<?xml version="1.0" encoding="UTF-8" standalone="no"?>
<!DOCTYPE svg PUBLIC "-//W3C//DTD SVG 1.1//EN"
 "http://www.w3.org/Graphics/SVG/1.1/DTD/svg11.dtd">
<!-- Generated by graphviz version 2.43.0 (0)
 -->
<!-- Title: G Pages: 1 -->
<svg width="623pt" height="1313pt"
 viewBox="0.00 0.00 623.39 1313.00" xmlns="http://www.w3.org/2000/svg" xmlns:xlink="http://www.w3.org/1999/xlink">
<g id="graph0" class="graph" transform="scale(1 1) rotate(0) translate(4 1309)">
<title>G</title>
<polygon fill="white" stroke="transparent" points="-4,4 -4,-1309 619.39,-1309 619.39,4 -4,4"/>
<!-- &#45;1 -->
<g id="node1" class="node">
<title>&#45;1</title>
<ellipse fill="none" stroke="black" cx="18.85" cy="-1038" rx="18.7" ry="18.7"/>
<text text-anchor="middle" x="18.85" y="-1034.3" font-family="Helvetica,Arial,sans-serif" font-size="14.00">&#45;1</text>
</g>
<!-- 6 -->
<g id="node2" class="node">
<title>6</title>
<ellipse fill="none" stroke="black" cx="107.7" cy="-677" rx="18" ry="18"/>
<text text-anchor="middle" x="107.7" y="-673.3" font-family="Helvetica,Arial,sans-serif" font-size="14.00">6</text>
</g>
<!-- &#45;1&#45;&gt;6 -->
<g id="edge1" class="edge">
<title>&#45;1&#45;&gt;6</title>
<path fill="none" stroke="black" d="M21.49,-1019.19C25.2,-979.96 35.53,-886.76 55.7,-811 66.03,-772.18 83.6,-729.05 95.18,-702.47"/>
<polygon fill="black" stroke="black" points="98.46,-703.7 99.3,-693.14 92.06,-700.88 98.46,-703.7"/>
<text text-anchor="middle" x="63.7" y="-814.8" font-family="Helvetica,Arial,sans-serif" font-size="14.00">22</text>
</g>
<!-- 2 -->
<g id="node3" class="node">
<title>2</title>
<ellipse fill="none" stroke="black" cx="356.54" cy="-868" rx="18" ry="18"/>
<text text-anchor="middle" x="356.54" y="-864.3" font-family="Helvetica,Arial,sans-serif" font-size="14.00">2</text>
</g>
<!-- &#45;1&#45;&gt;2 -->
<g id="edge2" class="edge">
<title>&#45;1&#45;&gt;2</title>
<path fill="none" stroke="black" d="M25.65,-1055.8C31.1,-1069.38 40.69,-1087.2 55.7,-1096 123.17,-1135.58 162.17,-1131.85 231.7,-1096 279.75,-1071.22 292.53,-1058.75 319.7,-1012 340.91,-975.49 349.65,-926.72 353.2,-896.34"/>
<polygon fill="black" stroke="black" points="356.72,-896.35 354.28,-886.04 349.76,-895.62 356.72,-896.35"/>
<text text-anchor="middle" x="187.7" y="-1123.8" font-family="Helvetica,Arial,sans-serif" font-size="14.00">17</text>
</g>
<!-- 3 -->
<g id="node4" class="node">
<title>3</title>
<ellipse fill="none" stroke="black" cx="597.39" cy="-678" rx="18" ry="18"/>
<text text-anchor="middle" x="597.39" y="-674.3" font-family="Helvetica,Arial,sans-serif" font-size="14.00">3</text>
</g>
<!-- &#45;1&#45;&gt;3 -->
<g id="edge3" class="edge">
<title>&#45;1&#45;&gt;3</title>
<path fill="none" stroke="black" d="M21.34,-1056.87C25.19,-1102.3 36.55,-1216.4 55.7,-1249 70.42,-1274.08 77.61,-1290 106.7,-1290 106.7,-1290 106.7,-1290 518.39,-1290 578.05,-1290 592.95,-826.47 595.81,-706.22"/>
<polygon fill="black" stroke="black" points="599.31,-706.06 596.04,-695.98 592.31,-705.9 599.31,-706.06"/>
<text text-anchor="middle" x="311.7" y="-1293.8" font-family="Helvetica,Arial,sans-serif" font-size="14.00">32</text>
</g>
<!-- 5 -->
<g id="node5" class="node">
<title>5</title>
<ellipse fill="none" stroke="black" cx="517.39" cy="-512" rx="18" ry="18"/>
<text text-anchor="middle" x="517.39" y="-508.3" font-family="Helvetica,Arial,sans-serif" font-size="14.00">5</text>
</g>
<!-- &#45;1&#45;&gt;5 -->
<g id="edge4" class="edge">
<title>&#45;1&#45;&gt;5</title>
<path fill="none" stroke="black" d="M19.83,-1019.02C19.81,-888.44 21.14,-127.27 55.7,-94 101.55,-49.86 393.03,-69.88 481.39,-170 502,-193.35 512.27,-405.89 515.36,-483.66"/>
<polygon fill="black" stroke="black" points="511.86,-483.85 515.75,-493.71 518.86,-483.58 511.86,-483.85"/>
<text text-anchor="middle" x="267.7" y="-87.8" font-family="Helvetica,Arial,sans-serif" font-size="14.00">12</text>
</g>
<!-- 4 -->
<g id="node6" class="node">
<title>4</title>
<ellipse fill="none" stroke="black" cx="437.39" cy="-787" rx="18" ry="18"/>
<text text-anchor="middle" x="437.39" y="-783.3" font-family="Helvetica,Arial,sans-serif" font-size="14.00">4</text>
</g>
<!-- &#45;1&#45;&gt;4 -->
<g id="edge5" class="edge">
<title>&#45;1&#45;&gt;4</title>
<path fill="none" stroke="black" d="M20.54,-1056.84C23.31,-1102.24 37.19,-1214 106.7,-1214 106.7,-1214 106.7,-1214 228.7,-1214 327.22,-1214 356.49,-1162.7 401.39,-1075 424.45,-1029.97 432.87,-878.28 435.43,-815.04"/>
<polygon fill="black" stroke="black" points="438.93,-815.12 435.82,-804.99 431.94,-814.85 438.93,-815.12"/>
<text text-anchor="middle" x="227.7" y="-1217.8" font-family="Helvetica,Arial,sans-serif" font-size="14.00">2</text>
</g>
<!-- 6&#45;&gt;&#45;1 -->
<g id="edge8" class="edge">
<title>6&#45;&gt;&#45;1</title>
<path fill="none" stroke="black" d="M102.65,-694.45C96.19,-722.28 83.09,-778.45 71.7,-826 55.89,-891.96 36.84,-969.33 26.81,-1009.9"/>
<polygon fill="black" stroke="black" points="23.35,-1009.32 24.34,-1019.86 30.14,-1011 23.35,-1009.32"/>
<text text-anchor="middle" x="63.7" y="-893.8" font-family="Helvetica,Arial,sans-serif" font-size="14.00">0</text>
</g>
<!-- 6&#45;&gt;2 -->
<g id="edge9" class="edge">
<title>6&#45;&gt;2</title>
<path fill="none" stroke="black" d="M108.26,-695.23C107.39,-748.82 108.05,-904.05 143.7,-936 201.95,-988.21 253.18,-977.16 319.7,-936 334.26,-926.98 343.24,-909.91 348.56,-895.13"/>
<polygon fill="black" stroke="black" points="351.96,-895.98 351.69,-885.39 345.3,-893.84 351.96,-895.98"/>
<text text-anchor="middle" x="227.7" y="-974.8" font-family="Helvetica,Arial,sans-serif" font-size="14.00">0</text>
</g>
<!-- 6&#45;&gt;3 -->
<g id="edge10" class="edge">
<title>6&#45;&gt;3</title>
<path fill="none" stroke="black" d="M108.98,-659.04C110.5,-571.59 118.5,-192.67 143.7,-147 185.61,-71.06 223.96,-46 310.7,-46 310.7,-46 310.7,-46 518.39,-46 547.03,-46 550.37,-67.57 561.39,-94 582.89,-145.55 593.29,-539.61 595.79,-649.58"/>
<polygon fill="black" stroke="black" points="592.29,-649.96 596.02,-659.88 599.29,-649.8 592.29,-649.96"/>
<text text-anchor="middle" x="356.54" y="-49.8" font-family="Helvetica,Arial,sans-serif" font-size="14.00">0</text>
</g>
<!-- 6&#45;&gt;5 -->
<g id="edge11" class="edge">
<title>6&#45;&gt;5</title>
<path fill="none" stroke="black" d="M108.8,-658.88C110.25,-595.71 124.62,-384.35 249.7,-298 295.68,-266.25 328.55,-270.54 375.39,-301 432.58,-338.19 445.77,-353.83 481.39,-412 495.28,-434.68 504.65,-463.63 510.17,-484.55"/>
<polygon fill="black" stroke="black" points="506.81,-485.54 512.64,-494.39 513.6,-483.84 506.81,-485.54"/>
<text text-anchor="middle" x="311.7" y="-280.8" font-family="Helvetica,Arial,sans-serif" font-size="14.00">0</text>
</g>
<!-- 6&#45;&gt;4 -->
<g id="edge12" class="edge">
<title>6&#45;&gt;4</title>
<path fill="none" stroke="black" d="M108.7,-695.39C108.99,-757.31 112.4,-957.31 143.7,-1012 146.44,-1016.79 218.45,-1069.27 223.7,-1071 298.92,-1095.74 343.96,-1112.52 401.39,-1058 435.8,-1025.34 437.81,-878.32 437.04,-815.55"/>
<polygon fill="black" stroke="black" points="440.53,-815.14 436.88,-805.2 433.54,-815.25 440.53,-815.14"/>
<text text-anchor="middle" x="267.7" y="-1092.8" font-family="Helvetica,Arial,sans-serif" font-size="14.00">0</text>
</g>
<!-- 0 -->
<g id="node8" class="node">
<title>0</title>
<ellipse fill="none" stroke="black" cx="267.7" cy="-551" rx="18" ry="18"/>
<text text-anchor="middle" x="267.7" y="-547.3" font-family="Helvetica,Arial,sans-serif" font-size="14.00">0</text>
</g>
<!-- 6&#45;&gt;0 -->
<g id="edge13" class="edge">
<title>6&#45;&gt;0</title>
<path fill="none" stroke="black" d="M108.06,-658.95C107.86,-621.11 113.75,-535.19 169.7,-514 195.71,-504.14 225.62,-519.63 245.27,-533.47"/>
<polygon fill="black" stroke="black" points="243.41,-536.46 253.52,-539.62 247.6,-530.84 243.41,-536.46"/>
<text text-anchor="middle" x="187.7" y="-517.8" font-family="Helvetica,Arial,sans-serif" font-size="14.00">0</text>
</g>
<!-- 1 -->
<g id="node9" class="node">
<title>1</title>
<ellipse fill="none" stroke="black" cx="187.7" cy="-677" rx="18" ry="18"/>
<text text-anchor="middle" x="187.7" y="-673.3" font-family="Helvetica,Arial,sans-serif" font-size="14.00">1</text>
</g>
<!-- 6&#45;&gt;1 -->
<g id="edge14" class="edge">
<title>6&#45;&gt;1</title>
<path fill="none" stroke="black" d="M123.41,-667.46C129.45,-664.08 136.66,-660.7 143.7,-659 150.57,-657.34 157.75,-658.9 164.24,-661.69"/>
<polygon fill="black" stroke="black" points="162.66,-664.81 173.13,-666.41 165.94,-658.63 162.66,-664.81"/>
<text text-anchor="middle" x="147.7" y="-662.8" font-family="Helvetica,Arial,sans-serif" font-size="14.00">0</text>
</g>
<!-- 2&#45;&gt;&#45;1 -->
<g id="edge15" class="edge">
<title>2&#45;&gt;&#45;1</title>
<path fill="none" stroke="black" d="M345.55,-882.66C342.77,-887.14 339.91,-892.16 337.7,-897 326.65,-921.16 336.02,-933.04 319.7,-954 308.78,-968.01 301.97,-967.89 285.7,-975 203.3,-1011.02 97.14,-1028.24 47.6,-1034.75"/>
<polygon fill="black" stroke="black" points="47.13,-1031.29 37.65,-1036.02 48.01,-1038.23 47.13,-1031.29"/>
<text text-anchor="middle" x="187.7" y="-1015.8" font-family="Helvetica,Arial,sans-serif" font-size="14.00">0</text>
</g>
<!-- 2&#45;&gt;6 -->
<g id="edge16" class="edge">
<title>2&#45;&gt;6</title>
<path fill="none" stroke="black" d="M340.6,-876.35C319.23,-887.09 279.26,-902.59 249.7,-887 175.69,-847.97 133.75,-750.72 117.13,-703.53"/>
<polygon fill="black" stroke="black" points="120.42,-702.33 113.88,-693.99 113.79,-704.58 120.42,-702.33"/>
<text text-anchor="middle" x="227.7" y="-877.8" font-family="Helvetica,Arial,sans-serif" font-size="14.00">0</text>
</g>
<!-- 2&#45;&gt;3 -->
<g id="edge17" class="edge">
<title>2&#45;&gt;3</title>
<path fill="none" stroke="black" d="M374.88,-866.87C383.05,-866.03 392.85,-864.56 401.39,-862 464.62,-843.08 483.22,-838.43 535.39,-798 565.21,-774.9 581.67,-733.23 589.77,-705.59"/>
<polygon fill="black" stroke="black" points="593.2,-706.32 592.48,-695.75 586.45,-704.47 593.2,-706.32"/>
<text text-anchor="middle" x="477.39" y="-841.8" font-family="Helvetica,Arial,sans-serif" font-size="14.00">0</text>
</g>
<!-- 2&#45;&gt;5 -->
<g id="edge18" class="edge">
<title>2&#45;&gt;5</title>
<path fill="none" stroke="black" d="M364.43,-851.79C382.13,-810.27 430.79,-696.7 473.39,-603 483.57,-580.62 495.55,-555.35 504.28,-537.13"/>
<polygon fill="black" stroke="black" points="507.47,-538.57 508.64,-528.04 501.16,-535.54 507.47,-538.57"/>
<text text-anchor="middle" x="437.39" y="-727.8" font-family="Helvetica,Arial,sans-serif" font-size="14.00">0</text>
</g>
<!-- 2&#45;&gt;4 -->
<g id="edge19" class="edge">
<title>2&#45;&gt;4</title>
<path fill="none" stroke="black" d="M372.23,-858.58C381.19,-852.45 392.57,-843.96 401.39,-835 408.62,-827.66 415.54,-818.74 421.28,-810.59"/>
<polygon fill="black" stroke="black" points="424.29,-812.4 427.02,-802.17 418.5,-808.46 424.29,-812.4"/>
<text text-anchor="middle" x="397.39" y="-846.8" font-family="Helvetica,Arial,sans-serif" font-size="14.00">0</text>
</g>
<!-- 2&#45;&gt;0 -->
<g id="edge20" class="edge">
<title>2&#45;&gt;0</title>
<path fill="none" stroke="black" d="M352.04,-850.46C346.11,-821.31 333.39,-761.17 319.7,-711 306.73,-663.49 288.67,-609.02 277.89,-577.46"/>
<polygon fill="black" stroke="black" points="281.08,-576 274.52,-567.68 274.46,-578.27 281.08,-576"/>
<text text-anchor="middle" x="311.7" y="-714.8" font-family="Helvetica,Arial,sans-serif" font-size="14.00">0</text>
</g>
<!-- 2&#45;&gt;1 -->
<g id="edge21" class="edge">
<title>2&#45;&gt;1</title>
<path fill="none" stroke="black" d="M339.37,-861.06C307.79,-847.22 239.63,-815.82 223.7,-796 202.59,-769.74 194.21,-731.13 190.88,-705.08"/>
<polygon fill="black" stroke="black" points="194.36,-704.64 189.78,-695.09 187.4,-705.41 194.36,-704.64"/>
<text text-anchor="middle" x="267.7" y="-839.8" font-family="Helvetica,Arial,sans-serif" font-size="14.00">0</text>
</g>
<!-- 3&#45;&gt;&#45;1 -->
<g id="edge22" class="edge">
<title>3&#45;&gt;&#45;1</title>
<path fill="none" stroke="black" d="M596.52,-659.93C596.96,-571.62 596.8,-185.04 561.39,-71 550.45,-35.77 555.28,0 518.39,0 106.7,0 106.7,0 106.7,0 64.16,0 68.26,-40.35 55.7,-81 27.77,-171.37 21.17,-857.23 20.04,-1008.53"/>
<polygon fill="black" stroke="black" points="16.54,-1008.84 19.97,-1018.86 23.54,-1008.89 16.54,-1008.84"/>
<text text-anchor="middle" x="311.7" y="-3.8" font-family="Helvetica,Arial,sans-serif" font-size="14.00">0</text>
</g>
<!-- 3&#45;&gt;6 -->
<g id="edge23" class="edge">
<title>3&#45;&gt;6</title>
<path fill="none" stroke="black" d="M596.05,-660.02C594.58,-592.29 587.61,-352.88 561.39,-282 540.18,-224.63 533.69,-201.74 481.39,-170 440.72,-145.31 422.86,-158.34 375.39,-155 319.58,-151.07 297.22,-132.47 249.7,-162 190.78,-198.61 198.49,-232.9 169.7,-296 113.83,-418.42 108.08,-583.31 108.19,-648.64"/>
<polygon fill="black" stroke="black" points="104.7,-648.98 108.26,-658.95 111.7,-648.93 104.7,-648.98"/>
<text text-anchor="middle" x="356.54" y="-158.8" font-family="Helvetica,Arial,sans-serif" font-size="14.00">0</text>
</g>
<!-- 3&#45;&gt;2 -->
<g id="edge24" class="edge">
<title>3&#45;&gt;2</title>
<path fill="none" stroke="black" d="M593.97,-695.7C588.83,-726.44 573.95,-789.78 535.39,-825 488.34,-867.97 464.8,-869.61 401.39,-876 395.72,-876.57 389.67,-876.15 383.94,-875.26"/>
<polygon fill="black" stroke="black" points="384.61,-871.83 374.11,-873.27 383.22,-878.69 384.61,-871.83"/>
<text text-anchor="middle" x="477.39" y="-867.8" font-family="Helvetica,Arial,sans-serif" font-size="14.00">0</text>
</g>
<!-- 3&#45;&gt;5 -->
<g id="edge25" class="edge">
<title>3&#45;&gt;5</title>
<path fill="none" stroke="black" d="M588.82,-661.89C575.22,-632.94 546.55,-571.92 530.3,-537.33"/>
<polygon fill="black" stroke="black" points="533.29,-535.48 525.87,-527.92 526.96,-538.46 533.29,-535.48"/>
<text text-anchor="middle" x="557.39" y="-603.8" font-family="Helvetica,Arial,sans-serif" font-size="14.00">0</text>
</g>
<!-- 3&#45;&gt;4 -->
<g id="edge26" class="edge">
<title>3&#45;&gt;4</title>
<path fill="none" stroke="black" d="M592.28,-695.32C587.53,-711.67 578.11,-735.76 561.39,-750 534.11,-773.23 492.62,-781.87 465.51,-785.09"/>
<polygon fill="black" stroke="black" points="465.13,-781.61 455.54,-786.11 465.84,-788.58 465.13,-781.61"/>
<text text-anchor="middle" x="517.39" y="-782.8" font-family="Helvetica,Arial,sans-serif" font-size="14.00">0</text>
</g>
<!-- 3&#45;&gt;0 -->
<g id="edge27" class="edge">
<title>3&#45;&gt;0</title>
<path fill="none" stroke="black" d="M596.15,-659.73C594.98,-586.52 588.84,-317.07 561.39,-292 532.52,-265.62 511.39,-282.73 473.39,-292 447.13,-298.4 440.22,-302.76 419.39,-320 395.01,-340.19 397.62,-353.46 375.39,-376 346.62,-405.19 326.52,-399.96 303.7,-434 285.51,-461.12 276.54,-497.95 272.28,-522.99"/>
<polygon fill="black" stroke="black" points="268.81,-522.52 270.73,-532.94 275.73,-523.6 268.81,-522.52"/>
<text text-anchor="middle" x="437.39" y="-323.8" font-family="Helvetica,Arial,sans-serif" font-size="14.00">0</text>
</g>
<!-- 3&#45;&gt;1 -->
<g id="edge28" class="edge">
<title>3&#45;&gt;1</title>
<path fill="none" stroke="black" d="M579.87,-683.54C553.99,-691.09 503.72,-700.99 473.39,-676 443.59,-651.44 467.62,-627.63 455.39,-591 437.39,-537.06 449.35,-505.57 401.39,-475 341.65,-436.91 294.85,-469.4 249.7,-524 214.29,-566.81 225.25,-589 205.7,-641 204.35,-644.57 202.8,-648.28 201.18,-651.9"/>
<polygon fill="black" stroke="black" points="197.94,-650.57 196.88,-661.11 204.28,-653.53 197.94,-650.57"/>
<text text-anchor="middle" x="397.39" y="-478.8" font-family="Helvetica,Arial,sans-serif" font-size="14.00">0</text>
</g>
<!-- 5&#45;&gt;&#45;1 -->
<g id="edge29" class="edge">
<title>5&#45;&gt;&#45;1</title>
<path fill="none" stroke="black" d="M516.01,-493.9C514.06,-425.14 502.63,-184 438.39,-184 226.7,-184 226.7,-184 226.7,-184 53.13,-184 24.69,-858.76 20.51,-1008.71"/>
<polygon fill="black" stroke="black" points="17.01,-1008.88 20.24,-1018.97 24.01,-1009.06 17.01,-1008.88"/>
<text text-anchor="middle" x="267.7" y="-187.8" font-family="Helvetica,Arial,sans-serif" font-size="14.00">0</text>
</g>
<!-- 5&#45;&gt;6 -->
<g id="edge30" class="edge">
<title>5&#45;&gt;6</title>
<path fill="none" stroke="black" d="M516.94,-493.82C517.16,-452.23 511.63,-349.48 455.39,-294 390.07,-229.55 330.98,-233.41 249.7,-276 210.33,-296.63 194.79,-299.32 169.7,-336 134.73,-387.11 116.55,-576.65 110.77,-648.83"/>
<polygon fill="black" stroke="black" points="107.27,-648.75 109.98,-658.99 114.25,-649.29 107.27,-648.75"/>
<text text-anchor="middle" x="311.7" y="-256.8" font-family="Helvetica,Arial,sans-serif" font-size="14.00">0</text>
</g>
<!-- 5&#45;&gt;2 -->
<g id="edge31" class="edge">
<title>5&#45;&gt;2</title>
<path fill="none" stroke="black" d="M504.49,-524.74C481.25,-549.84 431.08,-605.23 419.39,-628 382.82,-699.23 366.74,-793.71 360.68,-840.01"/>
<polygon fill="black" stroke="black" points="357.18,-839.82 359.41,-850.18 364.12,-840.69 357.18,-839.82"/>
<text text-anchor="middle" x="437.39" y="-631.8" font-family="Helvetica,Arial,sans-serif" font-size="14.00">0</text>
</g>
<!-- 5&#45;&gt;3 -->
<g id="edge32" class="edge">
<title>5&#45;&gt;3</title>
<path fill="none" stroke="black" d="M529.92,-525.53C539.42,-537.21 552.68,-554.86 561.39,-572 574.3,-597.39 583.92,-628.56 589.78,-650.5"/>
<polygon fill="black" stroke="black" points="586.46,-651.66 592.35,-660.47 593.24,-649.92 586.46,-651.66"/>
<text text-anchor="middle" x="557.39" y="-575.8" font-family="Helvetica,Arial,sans-serif" font-size="14.00">0</text>
</g>
<!-- 5&#45;&gt;4 -->
<g id="edge33" class="edge">
<title>5&#45;&gt;4</title>
<path fill="none" stroke="black" d="M509.57,-528.65C498.88,-554.87 478.86,-604.68 473.39,-623 459.41,-669.87 448.71,-725.86 443,-758.81"/>
<polygon fill="black" stroke="black" points="439.48,-758.6 441.26,-769.05 446.38,-759.78 439.48,-758.6"/>
<text text-anchor="middle" x="477.39" y="-626.8" font-family="Helvetica,Arial,sans-serif" font-size="14.00">0</text>
</g>
<!-- 5&#45;&gt;0 -->
<g id="edge34" class="edge">
<title>5&#45;&gt;0</title>
<path fill="none" stroke="black" d="M499.56,-509.12C452.25,-501.19 320.52,-480.26 303.7,-490 290.81,-497.46 282.26,-511.65 276.84,-524.47"/>
<polygon fill="black" stroke="black" points="273.55,-523.28 273.28,-533.87 280.1,-525.75 273.55,-523.28"/>
<text text-anchor="middle" x="397.39" y="-498.8" font-family="Helvetica,Arial,sans-serif" font-size="14.00">0</text>
</g>
<!-- 5&#45;&gt;1 -->
<g id="edge35" class="edge">
<title>5&#45;&gt;1</title>
<path fill="none" stroke="black" d="M510.38,-495.23C501.7,-471.33 486.18,-429.69 481.39,-424 460.58,-399.28 442.68,-408.41 419.39,-386 393.99,-361.55 406.48,-336.64 375.39,-320 315.27,-287.82 268.46,-291.55 223.7,-343 201.92,-368.03 213.93,-608.87 205.7,-641 204.73,-644.77 203.37,-648.62 201.83,-652.34"/>
<polygon fill="black" stroke="black" points="198.51,-651.17 197.49,-661.72 204.87,-654.11 198.51,-651.17"/>
<text text-anchor="middle" x="356.54" y="-323.8" font-family="Helvetica,Arial,sans-serif" font-size="14.00">0</text>
</g>
<!-- 4&#45;&gt;&#45;1 -->
<g id="edge36" class="edge">
<title>4&#45;&gt;&#45;1</title>
<path fill="none" stroke="black" d="M436.06,-805.03C434.47,-884.09 426.61,-1197.68 401.39,-1233 389.05,-1250.28 378.78,-1252 357.54,-1252 106.7,-1252 106.7,-1252 106.7,-1252 27.81,-1252 18.88,-1125.59 18.97,-1067.08"/>
<polygon fill="black" stroke="black" points="22.47,-1067.03 19.08,-1056.99 15.48,-1066.95 22.47,-1067.03"/>
<text text-anchor="middle" x="227.7" y="-1255.8" font-family="Helvetica,Arial,sans-serif" font-size="14.00">0</text>
</g>
<!-- 4&#45;&gt;6 -->
<g id="edge37" class="edge">
<title>4&#45;&gt;6</title>
<path fill="none" stroke="black" d="M429.92,-803.65C423.57,-819.24 413.15,-842.91 401.39,-862 372.72,-908.56 362.09,-919.46 319.7,-954 267.46,-996.56 228.84,-1008.28 169.7,-976 155.89,-968.47 150.9,-965.98 143.7,-952 121.7,-909.32 112.73,-766.13 109.84,-705.02"/>
<polygon fill="black" stroke="black" points="113.34,-704.77 109.39,-694.94 106.34,-705.09 113.34,-704.77"/>
<text text-anchor="middle" x="267.7" y="-995.8" font-family="Helvetica,Arial,sans-serif" font-size="14.00">0</text>
</g>
<!-- 4&#45;&gt;2 -->
<g id="edge38" class="edge">
<title>4&#45;&gt;2</title>
<path fill="none" stroke="black" d="M421.04,-795.42C412.33,-800.64 401.58,-807.89 393.39,-816 385.21,-824.1 377.71,-834.3 371.71,-843.52"/>
<polygon fill="black" stroke="black" points="368.56,-841.96 366.24,-852.3 374.5,-845.66 368.56,-841.96"/>
<text text-anchor="middle" x="397.39" y="-819.8" font-family="Helvetica,Arial,sans-serif" font-size="14.00">0</text>
</g>
<!-- 4&#45;&gt;3 -->
<g id="edge39" class="edge">
<title>4&#45;&gt;3</title>
<path fill="none" stroke="black" d="M452.93,-777.5C476.09,-762.29 522.71,-731.4 561.39,-704 565.57,-701.04 569.99,-697.83 574.23,-694.7"/>
<polygon fill="black" stroke="black" points="576.6,-697.3 582.53,-688.52 572.42,-691.68 576.6,-697.3"/>
<text text-anchor="middle" x="517.39" y="-750.8" font-family="Helvetica,Arial,sans-serif" font-size="14.00">0</text>
</g>
<!-- 4&#45;&gt;5 -->
<g id="edge40" class="edge">
<title>4&#45;&gt;5</title>
<path fill="none" stroke="black" d="M443.48,-769.58C451.59,-741.79 467.9,-685.67 481.39,-638 491.07,-603.83 501.99,-564.36 509.02,-538.84"/>
<polygon fill="black" stroke="black" points="512.41,-539.7 511.69,-529.13 505.66,-537.85 512.41,-539.7"/>
<text text-anchor="middle" x="477.39" y="-666.8" font-family="Helvetica,Arial,sans-serif" font-size="14.00">0</text>
</g>
<!-- 4&#45;&gt;0 -->
<g id="edge41" class="edge">
<title>4&#45;&gt;0</title>
<path fill="none" stroke="black" d="M432.5,-769.49C424.8,-736.96 405.71,-665.64 375.39,-612 362.39,-588.99 353.61,-587.11 337.7,-566 329.24,-554.78 332.15,-546.52 319.7,-540 311.62,-535.77 302.02,-536.56 293.33,-539.09"/>
<polygon fill="black" stroke="black" points="291.87,-535.9 283.7,-542.65 294.3,-542.46 291.87,-535.9"/>
<text text-anchor="middle" x="356.54" y="-615.8" font-family="Helvetica,Arial,sans-serif" font-size="14.00">0</text>
</g>
<!-- 4&#45;&gt;1 -->
<g id="edge42" class="edge">
<title>4&#45;&gt;1</title>
<path fill="none" stroke="black" d="M420.4,-780.03C414.45,-777.47 407.63,-774.57 401.39,-772 334.36,-744.38 315.44,-742.57 249.7,-712 236.9,-706.05 223.21,-698.33 212.06,-691.66"/>
<polygon fill="black" stroke="black" points="213.72,-688.57 203.36,-686.36 210.08,-694.55 213.72,-688.57"/>
<text text-anchor="middle" x="311.7" y="-744.8" font-family="Helvetica,Arial,sans-serif" font-size="14.00">0</text>
</g>
<!-- &#45;2 -->
<g id="node7" class="node">
<title>&#45;2</title>
<ellipse fill="none" stroke="black" cx="356.54" cy="-701" rx="18.7" ry="18.7"/>
<text text-anchor="middle" x="356.54" y="-697.3" font-family="Helvetica,Arial,sans-serif" font-size="14.00">&#45;2</text>
</g>
<!-- &#45;2&#45;&gt;0 -->
<g id="edge6" class="edge">
<title>&#45;2&#45;&gt;0</title>
<path fill="none" stroke="black" d="M346.45,-685.08C343.52,-679.72 340.35,-673.66 337.7,-668 328.56,-648.49 329.99,-641.92 319.7,-623 318.26,-620.36 299.45,-593.95 285.09,-573.87"/>
<polygon fill="black" stroke="black" points="287.74,-571.56 279.08,-565.47 282.05,-575.64 287.74,-571.56"/>
<text text-anchor="middle" x="311.7" y="-626.8" font-family="Helvetica,Arial,sans-serif" font-size="14.00">0</text>
</g>
<!-- &#45;2&#45;&gt;1 -->
<g id="edge7" class="edge">
<title>&#45;2&#45;&gt;1</title>
<path fill="none" stroke="black" d="M338.9,-693.69C328.58,-688.98 315.15,-682.54 303.7,-676 295.35,-671.23 294.9,-666.79 285.7,-664 262.16,-656.87 234.22,-661.96 214.39,-667.73"/>
<polygon fill="black" stroke="black" points="213.31,-664.4 204.82,-670.75 215.41,-671.08 213.31,-664.4"/>
<text text-anchor="middle" x="267.7" y="-667.8" font-family="Helvetica,Arial,sans-serif" font-size="14.00">0</text>
</g>
<!-- 0&#45;&gt;6 -->
<g id="edge51" class="edge">
<title>0&#45;&gt;6</title>
<path fill="none" stroke="black" d="M251.61,-559.71C243.19,-564.76 232.63,-571.41 223.7,-578 188.77,-603.77 151.16,-637.38 128.8,-658.06"/>
<polygon fill="black" stroke="black" points="126.21,-655.68 121.28,-665.06 130.98,-660.81 126.21,-655.68"/>
<text text-anchor="middle" x="187.7" y="-625.8" font-family="Helvetica,Arial,sans-serif" font-size="14.00">0</text>
</g>
<!-- 0&#45;&gt;2 -->
<g id="edge52" class="edge">
<title>0&#45;&gt;2</title>
<path fill="none" stroke="black" d="M273.12,-568.32C276.94,-583.86 282.36,-607.32 285.7,-628 298.1,-704.75 274.54,-729.93 303.7,-802 305.76,-807.11 323.49,-829.22 337.64,-846.46"/>
<polygon fill="black" stroke="black" points="335.16,-848.95 344.22,-854.43 340.56,-844.49 335.16,-848.95"/>
<text text-anchor="middle" x="311.7" y="-827.8" font-family="Helvetica,Arial,sans-serif" font-size="14.00">0</text>
</g>
<!-- 0&#45;&gt;3 -->
<g id="edge53" class="edge">
<title>0&#45;&gt;3</title>
<path fill="none" stroke="black" d="M273.67,-533.87C278.87,-518.8 288.43,-497.24 303.7,-484 366.66,-429.37 405.39,-389.77 481.39,-424 568.26,-463.12 589.53,-592.22 594.72,-649.82"/>
<polygon fill="black" stroke="black" points="591.25,-650.34 595.54,-660.02 598.23,-649.78 591.25,-650.34"/>
<text text-anchor="middle" x="437.39" y="-418.8" font-family="Helvetica,Arial,sans-serif" font-size="14.00">0</text>
</g>
<!-- 0&#45;&gt;5 -->
<g id="edge54" class="edge">
<title>0&#45;&gt;5</title>
<path fill="none" stroke="black" d="M283.55,-542.26C289.6,-539.12 296.79,-535.88 303.7,-534 380.14,-513.22 403.08,-531.97 481.39,-520 484.13,-519.58 486.97,-519.07 489.79,-518.5"/>
<polygon fill="black" stroke="black" points="490.73,-521.88 499.75,-516.33 489.24,-515.04 490.73,-521.88"/>
<text text-anchor="middle" x="397.39" y="-527.8" font-family="Helvetica,Arial,sans-serif" font-size="14.00">0</text>
</g>
<!-- 0&#45;&gt;4 -->
<g id="edge55" class="edge">
<title>0&#45;&gt;4</title>
<path fill="none" stroke="black" d="M285.95,-551.57C296.96,-552.83 310.8,-556.24 319.7,-565 340.13,-585.14 321.91,-603.04 337.7,-627 349.63,-645.11 362.06,-640.89 375.39,-658 399.97,-689.53 417.8,-732.57 427.63,-760.08"/>
<polygon fill="black" stroke="black" points="424.42,-761.51 431,-769.81 431.03,-759.21 424.42,-761.51"/>
<text text-anchor="middle" x="356.54" y="-661.8" font-family="Helvetica,Arial,sans-serif" font-size="14.00">0</text>
</g>
<!-- 0&#45;&gt;&#45;2 -->
<g id="edge50" class="edge">
<title>0&#45;&gt;&#45;2</title>
<path fill="none" stroke="black" d="M284.97,-557.15C296.44,-562.32 311.2,-570.83 319.7,-583 341.8,-614.66 324.37,-631.76 337.7,-668 338.71,-670.75 339.92,-673.55 341.22,-676.31"/>
<polygon fill="black" stroke="black" points="338.17,-678.04 345.87,-685.32 344.39,-674.83 338.17,-678.04"/>
<text text-anchor="middle" x="311.7" y="-586.8" font-family="Helvetica,Arial,sans-serif" font-size="14.00">18</text>
</g>
<!-- 0&#45;&gt;1 -->
<g id="edge56" class="edge">
<title>0&#45;&gt;1</title>
<path fill="none" stroke="black" d="M252.83,-561.61C243.6,-569.25 231.73,-580.25 223.7,-592 211.5,-609.84 202.41,-632.59 196.56,-650.06"/>
<polygon fill="black" stroke="black" points="193.2,-649.08 193.48,-659.67 199.86,-651.21 193.2,-649.08"/>
<text text-anchor="middle" x="227.7" y="-595.8" font-family="Helvetica,Arial,sans-serif" font-size="14.00">0</text>
</g>
<!-- 1&#45;&gt;6 -->
<g id="edge44" class="edge">
<title>1&#45;&gt;6</title>
<path fill="none" stroke="black" d="M169.43,-677C159.65,-677 147.18,-677 136.09,-677"/>
<polygon fill="black" stroke="black" points="136.01,-673.5 126.01,-677 136.01,-680.5 136.01,-673.5"/>
<text text-anchor="middle" x="147.7" y="-680.8" font-family="Helvetica,Arial,sans-serif" font-size="14.00">0</text>
</g>
<!-- 1&#45;&gt;2 -->
<g id="edge45" class="edge">
<title>1&#45;&gt;2</title>
<path fill="none" stroke="black" d="M188.32,-695.13C188.67,-732.99 195.6,-819.84 249.7,-855 273.15,-870.24 305.78,-872.02 328.6,-870.92"/>
<polygon fill="black" stroke="black" points="328.89,-874.41 338.62,-870.22 328.4,-867.43 328.89,-874.41"/>
<text text-anchor="middle" x="267.7" y="-871.8" font-family="Helvetica,Arial,sans-serif" font-size="14.00">0</text>
</g>
<!-- 1&#45;&gt;3 -->
<g id="edge46" class="edge">
<title>1&#45;&gt;3</title>
<path fill="none" stroke="black" d="M189.44,-695.13C192.05,-753.48 201.77,-935.76 223.7,-990 247.25,-1048.27 333.54,-1214 396.39,-1214 396.39,-1214 396.39,-1214 518.39,-1214 570.21,-1214 590.62,-816.67 595.29,-706.2"/>
<polygon fill="black" stroke="black" points="598.79,-706.28 595.71,-696.14 591.8,-705.99 598.79,-706.28"/>
<text text-anchor="middle" x="397.39" y="-1217.8" font-family="Helvetica,Arial,sans-serif" font-size="14.00">0</text>
</g>
<!-- 1&#45;&gt;5 -->
<g id="edge47" class="edge">
<title>1&#45;&gt;5</title>
<path fill="none" stroke="black" d="M197.46,-661.71C200.62,-655.48 203.85,-648.09 205.7,-641 213.01,-612.98 202.52,-400.76 223.7,-381 308.1,-302.24 447.8,-437.01 497.85,-491.08"/>
<polygon fill="black" stroke="black" points="495.5,-493.7 504.83,-498.72 500.67,-488.98 495.5,-493.7"/>
<text text-anchor="middle" x="356.54" y="-390.8" font-family="Helvetica,Arial,sans-serif" font-size="14.00">0</text>
</g>
<!-- 1&#45;&gt;4 -->
<g id="edge48" class="edge">
<title>1&#45;&gt;4</title>
<path fill="none" stroke="black" d="M200.08,-690.62C206.66,-698.15 215.27,-707.47 223.7,-715 234.37,-724.53 237.42,-726.64 249.7,-734 285.8,-755.64 296.62,-759.83 337.7,-769 361.9,-774.4 389.72,-779.36 409.64,-782.7"/>
<polygon fill="black" stroke="black" points="409.11,-786.16 419.55,-784.34 410.25,-779.26 409.11,-786.16"/>
<text text-anchor="middle" x="311.7" y="-768.8" font-family="Helvetica,Arial,sans-serif" font-size="14.00">0</text>
</g>
<!-- 1&#45;&gt;&#45;2 -->
<g id="edge43" class="edge">
<title>1&#45;&gt;&#45;2</title>
<path fill="none" stroke="black" d="M205.81,-679.9C228.25,-683.65 268.86,-690.26 303.7,-695 311.47,-696.06 319.93,-697.09 327.7,-697.99"/>
<polygon fill="black" stroke="black" points="327.44,-701.48 337.77,-699.12 328.22,-694.52 327.44,-701.48"/>
<text text-anchor="middle" x="267.7" y="-696.8" font-family="Helvetica,Arial,sans-serif" font-size="14.00">68</text>
</g>
<!-- 1&#45;&gt;0 -->
<g id="edge49" class="edge">
<title>1&#45;&gt;0</title>
<path fill="none" stroke="black" d="M197.95,-662.05C211.32,-640.45 236.17,-600.31 252.05,-574.66"/>
<polygon fill="black" stroke="black" points="255.17,-576.27 257.45,-565.93 249.22,-572.59 255.17,-576.27"/>
<text text-anchor="middle" x="227.7" y="-621.8" font-family="Helvetica,Arial,sans-serif" font-size="14.00">0</text>
</g>
</g>
</svg>
