<?xml version="1.0" encoding="UTF-8" standalone="no"?>
<!DOCTYPE svg PUBLIC "-//W3C//DTD SVG 1.1//EN"
 "http://www.w3.org/Graphics/SVG/1.1/DTD/svg11.dtd">
<!-- Generated by graphviz version 2.43.0 (0)
 -->
<!-- Title: G Pages: 1 -->
<svg width="930pt" height="512pt"
 viewBox="0.00 0.00 930.00 512.00" xmlns="http://www.w3.org/2000/svg" xmlns:xlink="http://www.w3.org/1999/xlink">
<g id="graph0" class="graph" transform="scale(1 1) rotate(0) translate(4 508)">
<title>G</title>
<polygon fill="white" stroke="transparent" points="-4,4 -4,-508 926,-508 926,4 -4,4"/>
<!-- 2 -->
<g id="node1" class="node">
<title>2</title>
<ellipse fill="none" stroke="black" cx="18" cy="-347" rx="18" ry="18"/>
<text text-anchor="middle" x="18" y="-343.3" font-family="Helvetica,Arial,sans-serif" font-size="14.00">2</text>
</g>
<!-- 5 -->
<g id="node2" class="node">
<title>5</title>
<ellipse fill="none" stroke="black" cx="132" cy="-305" rx="18" ry="18"/>
<text text-anchor="middle" x="132" y="-301.3" font-family="Helvetica,Arial,sans-serif" font-size="14.00">5</text>
</g>
<!-- 2&#45;&gt;5 -->
<g id="edge1" class="edge">
<title>2&#45;&gt;5</title>
<path fill="none" stroke="black" d="M34.99,-340.48C40.94,-338.09 47.76,-335.38 54,-333 70.95,-326.53 90.13,-319.55 105.1,-314.19"/>
<polygon fill="black" stroke="black" points="106.48,-317.41 114.72,-310.75 104.13,-310.82 106.48,-317.41"/>
<text text-anchor="middle" x="75" y="-336.8" font-family="Helvetica,Arial,sans-serif" font-size="14.00">0/1054</text>
</g>
<!-- 4 -->
<g id="node3" class="node">
<title>4</title>
<ellipse fill="none" stroke="black" cx="472" cy="-315" rx="18" ry="18"/>
<text text-anchor="middle" x="472" y="-311.3" font-family="Helvetica,Arial,sans-serif" font-size="14.00">4</text>
</g>
<!-- 2&#45;&gt;4 -->
<g id="edge2" class="edge">
<title>2&#45;&gt;4</title>
<path fill="none" stroke="black" d="M23.63,-364.13C35,-401.9 68.05,-489 131,-489 131,-489 131,-489 359,-489 393.8,-489 440.07,-389.36 460.52,-340.88"/>
<polygon fill="black" stroke="black" points="463.87,-341.95 464.48,-331.37 457.4,-339.26 463.87,-341.95"/>
<text text-anchor="middle" x="241" y="-492.8" font-family="Helvetica,Arial,sans-serif" font-size="14.00">0/1364</text>
</g>
<!-- 5&#45;&gt;2 -->
<g id="edge5" class="edge">
<title>5&#45;&gt;2</title>
<path fill="none" stroke="black" d="M115,-298.74C98.72,-293.43 73.22,-288.11 54,-298 44.1,-303.09 36.38,-312.43 30.74,-321.6"/>
<polygon fill="black" stroke="black" points="27.57,-320.1 25.79,-330.54 33.69,-323.49 27.57,-320.1"/>
<text text-anchor="middle" x="75" y="-301.8" font-family="Helvetica,Arial,sans-serif" font-size="14.00">0/1054</text>
</g>
<!-- 5&#45;&gt;4 -->
<g id="edge6" class="edge">
<title>5&#45;&gt;4</title>
<path fill="none" stroke="black" d="M150.23,-305.51C205.15,-307.13 376.45,-312.2 443.6,-314.19"/>
<polygon fill="black" stroke="black" points="443.71,-317.69 453.81,-314.49 443.92,-310.7 443.71,-317.69"/>
<text text-anchor="middle" x="301" y="-313.8" font-family="Helvetica,Arial,sans-serif" font-size="14.00">0/1106</text>
</g>
<!-- 0 -->
<g id="node4" class="node">
<title>0</title>
<ellipse fill="none" stroke="black" cx="798" cy="-335" rx="18" ry="18"/>
<text text-anchor="middle" x="798" y="-331.3" font-family="Helvetica,Arial,sans-serif" font-size="14.00">0</text>
</g>
<!-- 5&#45;&gt;0 -->
<g id="edge3" class="edge">
<title>5&#45;&gt;0</title>
<path fill="none" stroke="black" d="M133.6,-322.96C135.39,-347.82 142.25,-392.63 168,-419 191.57,-443.13 206.27,-443 240,-443 240,-443 240,-443 685,-443 722.97,-443 735.02,-432.71 762,-406 774.38,-393.75 783.08,-376.22 788.71,-361.65"/>
<polygon fill="black" stroke="black" points="792.04,-362.73 792.12,-352.13 785.45,-360.36 792.04,-362.73"/>
<text text-anchor="middle" x="472" y="-446.8" font-family="Helvetica,Arial,sans-serif" font-size="14.00">0/343</text>
</g>
<!-- 1 -->
<g id="node5" class="node">
<title>1</title>
<ellipse fill="none" stroke="black" cx="241" cy="-178" rx="18" ry="18"/>
<text text-anchor="middle" x="241" y="-174.3" font-family="Helvetica,Arial,sans-serif" font-size="14.00">1</text>
</g>
<!-- 5&#45;&gt;1 -->
<g id="edge4" class="edge">
<title>5&#45;&gt;1</title>
<path fill="none" stroke="black" d="M133.51,-286.93C135.21,-262.46 141.98,-219.11 168,-195 179.98,-183.9 197.82,-179.63 212.74,-178.15"/>
<polygon fill="black" stroke="black" points="213.21,-181.63 222.97,-177.5 212.77,-174.64 213.21,-181.63"/>
<text text-anchor="middle" x="185" y="-198.8" font-family="Helvetica,Arial,sans-serif" font-size="14.00">0/879</text>
</g>
<!-- 4&#45;&gt;2 -->
<g id="edge17" class="edge">
<title>4&#45;&gt;2</title>
<path fill="none" stroke="black" d="M456.94,-325.2C436.46,-339.02 396.75,-362 359,-362 131,-362 131,-362 131,-362 101.7,-362 68.47,-356.89 45.86,-352.64"/>
<polygon fill="black" stroke="black" points="46.47,-349.19 35.98,-350.71 45.12,-356.06 46.47,-349.19"/>
<text text-anchor="middle" x="241" y="-365.8" font-family="Helvetica,Arial,sans-serif" font-size="14.00">0/1364</text>
</g>
<!-- 4&#45;&gt;5 -->
<g id="edge18" class="edge">
<title>4&#45;&gt;5</title>
<path fill="none" stroke="black" d="M454.29,-311.51C448.51,-310.35 441.98,-309.07 436,-308 367.3,-295.71 349.7,-286.45 280,-290 238.01,-292.14 189.55,-297.68 160.1,-301.4"/>
<polygon fill="black" stroke="black" points="159.63,-297.93 150.16,-302.68 160.52,-304.87 159.63,-297.93"/>
<text text-anchor="middle" x="301" y="-293.8" font-family="Helvetica,Arial,sans-serif" font-size="14.00">0/1106</text>
</g>
<!-- 9 -->
<g id="node10" class="node">
<title>9</title>
<ellipse fill="none" stroke="black" cx="358" cy="-183" rx="18" ry="18"/>
<text text-anchor="middle" x="358" y="-179.3" font-family="Helvetica,Arial,sans-serif" font-size="14.00">9</text>
</g>
<!-- 4&#45;&gt;9 -->
<g id="edge19" class="edge">
<title>4&#45;&gt;9</title>
<path fill="none" stroke="black" d="M461.98,-299.61C459.1,-294.18 456.11,-287.95 454,-282 440.94,-245.2 464.15,-223.07 436,-196 423.01,-183.51 402.76,-180.49 386.29,-180.46"/>
<polygon fill="black" stroke="black" points="385.99,-176.97 376.12,-180.81 386.23,-183.97 385.99,-176.97"/>
<text text-anchor="middle" x="415" y="-199.8" font-family="Helvetica,Arial,sans-serif" font-size="14.00">0/766</text>
</g>
<!-- 0&#45;&gt;5 -->
<g id="edge8" class="edge">
<title>0&#45;&gt;5</title>
<path fill="none" stroke="black" d="M783.96,-346.81C764.13,-363.51 724.49,-392 685,-392 524,-392 524,-392 524,-392 388.8,-392 345.7,-430.78 220,-381 191.54,-369.73 166.09,-344.88 150.18,-326.66"/>
<polygon fill="black" stroke="black" points="152.69,-324.2 143.56,-318.82 147.34,-328.72 152.69,-324.2"/>
<text text-anchor="middle" x="472" y="-398.8" font-family="Helvetica,Arial,sans-serif" font-size="14.00">0/343</text>
</g>
<!-- 8 -->
<g id="node6" class="node">
<title>8</title>
<ellipse fill="none" stroke="black" cx="904" cy="-335" rx="18" ry="18"/>
<text text-anchor="middle" x="904" y="-331.3" font-family="Helvetica,Arial,sans-serif" font-size="14.00">8</text>
</g>
<!-- 0&#45;&gt;8 -->
<g id="edge9" class="edge">
<title>0&#45;&gt;8</title>
<path fill="none" stroke="black" d="M816.17,-335C832.36,-335 856.87,-335 875.73,-335"/>
<polygon fill="black" stroke="black" points="875.8,-338.5 885.8,-335 875.8,-331.5 875.8,-338.5"/>
<text text-anchor="middle" x="851" y="-338.8" font-family="Helvetica,Arial,sans-serif" font-size="14.00">0/464</text>
</g>
<!-- 7 -->
<g id="node7" class="node">
<title>7</title>
<ellipse fill="none" stroke="black" cx="684" cy="-193" rx="18" ry="18"/>
<text text-anchor="middle" x="684" y="-189.3" font-family="Helvetica,Arial,sans-serif" font-size="14.00">7</text>
</g>
<!-- 0&#45;&gt;7 -->
<g id="edge10" class="edge">
<title>0&#45;&gt;7</title>
<path fill="none" stroke="black" d="M786.18,-321.28C766.73,-296.62 725.72,-244.62 702.32,-214.96"/>
<polygon fill="black" stroke="black" points="704.88,-212.56 695.94,-206.87 699.39,-216.89 704.88,-212.56"/>
<text text-anchor="middle" x="741" y="-293.8" font-family="Helvetica,Arial,sans-serif" font-size="14.00">0/1435</text>
</g>
<!-- 1&#45;&gt;5 -->
<g id="edge26" class="edge">
<title>1&#45;&gt;5</title>
<path fill="none" stroke="black" d="M226.86,-189.24C211.69,-202.6 186.44,-225.98 168,-249 160.21,-258.73 152.72,-270.29 146.69,-280.38"/>
<polygon fill="black" stroke="black" points="143.6,-278.73 141.58,-289.13 149.64,-282.26 143.6,-278.73"/>
<text text-anchor="middle" x="185" y="-252.8" font-family="Helvetica,Arial,sans-serif" font-size="14.00">0/879</text>
</g>
<!-- 1&#45;&gt;7 -->
<g id="edge27" class="edge">
<title>1&#45;&gt;7</title>
<path fill="none" stroke="black" d="M242.69,-159.7C244.65,-131.52 252.07,-77.11 280,-42 304.27,-11.49 318.02,0 357,0 357,0 357,0 579,0 652.89,0 674.52,-110.98 680.66,-164.63"/>
<polygon fill="black" stroke="black" points="677.21,-165.26 681.72,-174.84 684.17,-164.54 677.21,-165.26"/>
<text text-anchor="middle" x="472" y="-3.8" font-family="Helvetica,Arial,sans-serif" font-size="14.00">0/811</text>
</g>
<!-- 6 -->
<g id="node8" class="node">
<title>6</title>
<ellipse fill="none" stroke="black" cx="578" cy="-118" rx="18" ry="18"/>
<text text-anchor="middle" x="578" y="-114.3" font-family="Helvetica,Arial,sans-serif" font-size="14.00">6</text>
</g>
<!-- 1&#45;&gt;6 -->
<g id="edge25" class="edge">
<title>1&#45;&gt;6</title>
<path fill="none" stroke="black" d="M256.2,-167.94C282.08,-150.33 339.32,-114.67 394,-103 415.65,-98.38 496.35,-96.35 542,-105 545.25,-105.62 548.59,-106.5 551.86,-107.53"/>
<polygon fill="black" stroke="black" points="550.7,-110.83 561.29,-110.88 553.05,-104.23 550.7,-110.83"/>
<text text-anchor="middle" x="415" y="-106.8" font-family="Helvetica,Arial,sans-serif" font-size="14.00">0/954</text>
</g>
<!-- 1&#45;&gt;9 -->
<g id="edge28" class="edge">
<title>1&#45;&gt;9</title>
<path fill="none" stroke="black" d="M257.03,-169.52C263.82,-166.16 272.08,-162.69 280,-161 298.26,-157.1 304.06,-155.83 322,-161 326.47,-162.29 330.91,-164.33 335.06,-166.66"/>
<polygon fill="black" stroke="black" points="333.25,-169.66 343.57,-172.06 337,-163.75 333.25,-169.66"/>
<text text-anchor="middle" x="301" y="-164.8" font-family="Helvetica,Arial,sans-serif" font-size="14.00">0/524</text>
</g>
<!-- 8&#45;&gt;0 -->
<g id="edge7" class="edge">
<title>8&#45;&gt;0</title>
<path fill="none" stroke="black" d="M888.28,-325.46C882.25,-322.08 875.04,-318.7 868,-317 853.31,-313.44 848.69,-313.44 834,-317 830.26,-317.91 826.47,-319.28 822.84,-320.88"/>
<polygon fill="black" stroke="black" points="821.09,-317.85 813.72,-325.46 824.22,-324.1 821.09,-317.85"/>
<text text-anchor="middle" x="851" y="-320.8" font-family="Helvetica,Arial,sans-serif" font-size="14.00">0/464</text>
</g>
<!-- 7&#45;&gt;0 -->
<g id="edge15" class="edge">
<title>7&#45;&gt;0</title>
<path fill="none" stroke="black" d="M702.1,-194.55C719.5,-197.02 746.12,-203.44 762,-220 784.5,-243.46 792.58,-280.94 795.45,-306.7"/>
<polygon fill="black" stroke="black" points="791.99,-307.31 796.39,-316.94 798.96,-306.67 791.99,-307.31"/>
<text text-anchor="middle" x="741" y="-223.8" font-family="Helvetica,Arial,sans-serif" font-size="14.00">0/1435</text>
</g>
<!-- 7&#45;&gt;1 -->
<g id="edge14" class="edge">
<title>7&#45;&gt;1</title>
<path fill="none" stroke="black" d="M667.32,-200.39C623.86,-219.92 498.2,-270.04 394,-249 345.05,-239.12 293.49,-210.63 264.77,-192.89"/>
<polygon fill="black" stroke="black" points="266.61,-189.91 256.28,-187.54 262.88,-195.83 266.61,-189.91"/>
<text text-anchor="middle" x="472" y="-257.8" font-family="Helvetica,Arial,sans-serif" font-size="14.00">0/811</text>
</g>
<!-- 7&#45;&gt;6 -->
<g id="edge16" class="edge">
<title>7&#45;&gt;6</title>
<path fill="none" stroke="black" d="M667.95,-184.69C653.61,-176.53 631.66,-163.39 614,-150 608.96,-146.17 603.79,-141.76 599.02,-137.46"/>
<polygon fill="black" stroke="black" points="601.18,-134.69 591.47,-130.44 596.42,-139.81 601.18,-134.69"/>
<text text-anchor="middle" x="631" y="-176.8" font-family="Helvetica,Arial,sans-serif" font-size="14.00">0/837</text>
</g>
<!-- 6&#45;&gt;1 -->
<g id="edge11" class="edge">
<title>6&#45;&gt;1</title>
<path fill="none" stroke="black" d="M569.89,-101.73C564.04,-90.26 554.66,-75.5 542,-67 486.74,-29.88 460.24,-37.38 394,-44 342.57,-49.14 318.86,-32.92 280,-67 256.15,-87.92 247.25,-124.47 243.95,-149.89"/>
<polygon fill="black" stroke="black" points="240.45,-149.7 242.84,-160.02 247.4,-150.46 240.45,-149.7"/>
<text text-anchor="middle" x="415" y="-47.8" font-family="Helvetica,Arial,sans-serif" font-size="14.00">0/954</text>
</g>
<!-- 6&#45;&gt;7 -->
<g id="edge13" class="edge">
<title>6&#45;&gt;7</title>
<path fill="none" stroke="black" d="M596.14,-118.61C611.12,-119.92 632.8,-123.81 648,-135 658.95,-143.06 667.15,-155.67 672.85,-167.08"/>
<polygon fill="black" stroke="black" points="669.7,-168.62 677.05,-176.25 676.07,-165.7 669.7,-168.62"/>
<text text-anchor="middle" x="631" y="-138.8" font-family="Helvetica,Arial,sans-serif" font-size="14.00">0/837</text>
</g>
<!-- 3 -->
<g id="node9" class="node">
<title>3</title>
<ellipse fill="none" stroke="black" cx="472" cy="-140" rx="18" ry="18"/>
<text text-anchor="middle" x="472" y="-136.3" font-family="Helvetica,Arial,sans-serif" font-size="14.00">3</text>
</g>
<!-- 6&#45;&gt;3 -->
<g id="edge12" class="edge">
<title>6&#45;&gt;3</title>
<path fill="none" stroke="black" d="M561.21,-124.73C555.28,-127.02 548.42,-129.41 542,-131 528.44,-134.36 513.05,-136.52 500.26,-137.88"/>
<polygon fill="black" stroke="black" points="499.83,-134.4 490.21,-138.84 500.5,-141.37 499.83,-134.4"/>
<text text-anchor="middle" x="525" y="-140.8" font-family="Helvetica,Arial,sans-serif" font-size="14.00">0/433</text>
</g>
<!-- 3&#45;&gt;6 -->
<g id="edge20" class="edge">
<title>3&#45;&gt;6</title>
<path fill="none" stroke="black" d="M484.99,-127.01C491.22,-121.23 499.34,-115.04 508,-112 521.61,-107.23 537.61,-108.24 550.78,-110.67"/>
<polygon fill="black" stroke="black" points="550.11,-114.11 560.63,-112.84 551.61,-107.27 550.11,-114.11"/>
<text text-anchor="middle" x="525" y="-115.8" font-family="Helvetica,Arial,sans-serif" font-size="14.00">0/433</text>
</g>
<!-- 3&#45;&gt;9 -->
<g id="edge21" class="edge">
<title>3&#45;&gt;9</title>
<path fill="none" stroke="black" d="M453.86,-142.05C437.84,-144.42 413.51,-149.17 394,-158 389.4,-160.08 384.78,-162.81 380.48,-165.7"/>
<polygon fill="black" stroke="black" points="378.25,-163 372.2,-171.7 382.35,-168.67 378.25,-163"/>
<text text-anchor="middle" x="415" y="-161.8" font-family="Helvetica,Arial,sans-serif" font-size="14.00">0/1053</text>
</g>
<!-- 9&#45;&gt;4 -->
<g id="edge22" class="edge">
<title>9&#45;&gt;4</title>
<path fill="none" stroke="black" d="M372.19,-194.28C388.31,-208.44 415.92,-233.93 436,-259 443.79,-268.73 451.28,-280.29 457.31,-290.38"/>
<polygon fill="black" stroke="black" points="454.35,-292.26 462.41,-299.14 460.4,-288.73 454.35,-292.26"/>
<text text-anchor="middle" x="415" y="-262.8" font-family="Helvetica,Arial,sans-serif" font-size="14.00">0/766</text>
</g>
<!-- 9&#45;&gt;1 -->
<g id="edge24" class="edge">
<title>9&#45;&gt;1</title>
<path fill="none" stroke="black" d="M339.75,-182.25C321.23,-181.44 291.55,-180.15 269.75,-179.21"/>
<polygon fill="black" stroke="black" points="269.61,-175.7 259.47,-178.76 269.3,-182.69 269.61,-175.7"/>
<text text-anchor="middle" x="301" y="-185.8" font-family="Helvetica,Arial,sans-serif" font-size="14.00">0/524</text>
</g>
<!-- 9&#45;&gt;3 -->
<g id="edge23" class="edge">
<title>9&#45;&gt;3</title>
<path fill="none" stroke="black" d="M364.4,-166.17C369.65,-152.89 379.06,-135.28 394,-127 409.95,-118.16 430.4,-122.2 446.22,-128.03"/>
<polygon fill="black" stroke="black" points="445.27,-131.42 455.85,-131.99 447.94,-124.95 445.27,-131.42"/>
<text text-anchor="middle" x="415" y="-130.8" font-family="Helvetica,Arial,sans-serif" font-size="14.00">0/1053</text>
</g>
</g>
</svg>
