<?xml version="1.0" encoding="UTF-8" standalone="no"?>
<!DOCTYPE svg PUBLIC "-//W3C//DTD SVG 1.1//EN"
 "http://www.w3.org/Graphics/SVG/1.1/DTD/svg11.dtd">
<!-- Generated by graphviz version 2.43.0 (0)
 -->
<!-- Title: G Pages: 1 -->
<svg width="623pt" height="463pt"
 viewBox="0.00 0.00 622.67 462.70" xmlns="http://www.w3.org/2000/svg" xmlns:xlink="http://www.w3.org/1999/xlink">
<g id="graph0" class="graph" transform="scale(1 1) rotate(0) translate(4 458.7)">
<title>G</title>
<polygon fill="white" stroke="transparent" points="-4,4 -4,-458.7 618.67,-458.7 618.67,4 -4,4"/>
<!-- Mateo -->
<g id="node1" class="node">
<title>Mateo</title>
<ellipse fill="none" stroke="black" cx="35.75" cy="-195.7" rx="36" ry="36"/>
<text text-anchor="middle" x="35.75" y="-192" font-family="Helvetica,Arial,sans-serif" font-size="14.00">Mateo</text>
</g>
<!-- Sophie -->
<g id="node2" class="node">
<title>Sophie</title>
<ellipse fill="none" stroke="black" cx="172.84" cy="-204.7" rx="38.19" ry="38.19"/>
<text text-anchor="middle" x="172.84" y="-201" font-family="Helvetica,Arial,sans-serif" font-size="14.00">Sophie</text>
</g>
<!-- Mateo&#45;&gt;Sophie -->
<g id="edge1" class="edge">
<title>Mateo&#45;&gt;Sophie</title>
<path fill="none" stroke="black" d="M68.97,-181.75C83.5,-177.18 100.87,-174.09 116.49,-177.7 120.95,-178.73 125.46,-180.17 129.89,-181.85"/>
<polygon fill="black" stroke="black" points="128.81,-185.2 139.38,-185.86 131.53,-178.75 128.81,-185.2"/>
<text text-anchor="middle" x="102.99" y="-181.5" font-family="Helvetica,Arial,sans-serif" font-size="14.00">0/inf</text>
</g>
<!-- Paul -->
<g id="node3" class="node">
<title>Paul</title>
<ellipse fill="none" stroke="black" cx="586.07" cy="-260.7" rx="28.7" ry="28.7"/>
<text text-anchor="middle" x="586.07" y="-257" font-family="Helvetica,Arial,sans-serif" font-size="14.00">Paul</text>
</g>
<!-- Mateo&#45;&gt;Paul -->
<g id="edge2" class="edge">
<title>Mateo&#45;&gt;Paul</title>
<path fill="none" stroke="black" d="M36.78,-231.77C38.69,-276.77 48.33,-353.73 89.49,-402.7 115.31,-433.41 131.72,-439.7 171.84,-439.7 171.84,-439.7 171.84,-439.7 458.43,-439.7 498.02,-439.7 513.17,-432.3 539.47,-402.7 565.13,-373.84 576.37,-330.41 581.28,-299.18"/>
<polygon fill="black" stroke="black" points="584.77,-299.49 582.71,-289.1 577.84,-298.51 584.77,-299.49"/>
<text text-anchor="middle" x="315.78" y="-443.5" font-family="Helvetica,Arial,sans-serif" font-size="14.00">0/inf</text>
</g>
<!-- Yacine -->
<g id="node4" class="node">
<title>Yacine</title>
<ellipse fill="none" stroke="black" cx="457.43" cy="-175.7" rx="37.09" ry="37.09"/>
<text text-anchor="middle" x="457.43" y="-172" font-family="Helvetica,Arial,sans-serif" font-size="14.00">Yacine</text>
</g>
<!-- Mateo&#45;&gt;Yacine -->
<g id="edge3" class="edge">
<title>Mateo&#45;&gt;Yacine</title>
<path fill="none" stroke="black" d="M62.42,-219.54C125.33,-274.99 290.22,-402.14 402.38,-323.7 434.58,-301.18 447.66,-257.34 452.94,-223.19"/>
<polygon fill="black" stroke="black" points="456.45,-223.32 454.34,-212.94 449.52,-222.37 456.45,-223.32"/>
<text text-anchor="middle" x="242.69" y="-340.5" font-family="Helvetica,Arial,sans-serif" font-size="14.00">0/inf</text>
</g>
<!-- Yassine -->
<g id="node5" class="node">
<title>Yassine</title>
<ellipse fill="none" stroke="black" cx="315.78" cy="-55.7" rx="41.69" ry="41.69"/>
<text text-anchor="middle" x="315.78" y="-52" font-family="Helvetica,Arial,sans-serif" font-size="14.00">Yassine</text>
</g>
<!-- Mateo&#45;&gt;Yassine -->
<g id="edge4" class="edge">
<title>Mateo&#45;&gt;Yassine</title>
<path fill="none" stroke="black" d="M50.84,-163.06C59.71,-145.94 72.68,-125.84 89.49,-112.7 139.95,-73.28 214.44,-60.83 263.76,-57.06"/>
<polygon fill="black" stroke="black" points="264.15,-60.54 273.89,-56.38 263.68,-53.56 264.15,-60.54"/>
<text text-anchor="middle" x="172.84" y="-88.5" font-family="Helvetica,Arial,sans-serif" font-size="14.00">0/inf</text>
</g>
<!-- Sophie&#45;&gt;Mateo -->
<g id="edge5" class="edge">
<title>Sophie&#45;&gt;Mateo</title>
<path fill="none" stroke="black" d="M134.32,-202.2C118.05,-201.12 98.86,-199.84 81.82,-198.7"/>
<polygon fill="black" stroke="black" points="81.75,-195.19 71.54,-198.02 81.28,-202.17 81.75,-195.19"/>
<text text-anchor="middle" x="102.99" y="-204.5" font-family="Helvetica,Arial,sans-serif" font-size="14.00">0/inf</text>
</g>
<!-- Sophie&#45;&gt;Paul -->
<g id="edge6" class="edge">
<title>Sophie&#45;&gt;Paul</title>
<path fill="none" stroke="black" d="M210.01,-214.57C216.37,-216.1 222.95,-217.55 229.19,-218.7 343.93,-239.89 481.57,-252.58 546.97,-257.84"/>
<polygon fill="black" stroke="black" points="546.95,-261.35 557.2,-258.65 547.51,-254.38 546.95,-261.35"/>
<text text-anchor="middle" x="388.88" y="-246.5" font-family="Helvetica,Arial,sans-serif" font-size="14.00">0/inf</text>
</g>
<!-- Sophie&#45;&gt;Yacine -->
<g id="edge7" class="edge">
<title>Sophie&#45;&gt;Yacine</title>
<path fill="none" stroke="black" d="M210.86,-196.99C229.73,-193.33 253.1,-189.22 274.19,-186.7 320.16,-181.21 373.01,-178.4 409.91,-177.01"/>
<polygon fill="black" stroke="black" points="410.49,-180.49 420.35,-176.63 410.23,-173.49 410.49,-180.49"/>
<text text-anchor="middle" x="315.78" y="-190.5" font-family="Helvetica,Arial,sans-serif" font-size="14.00">0/inf</text>
</g>
<!-- Sophie&#45;&gt;Yassine -->
<g id="edge8" class="edge">
<title>Sophie&#45;&gt;Yassine</title>
<path fill="none" stroke="black" d="M183.84,-167.75C192.27,-142.8 206.66,-110.7 229.19,-89.7 239.35,-80.23 252.47,-73.27 265.37,-68.21"/>
<polygon fill="black" stroke="black" points="266.91,-71.38 275.14,-64.7 264.54,-64.79 266.91,-71.38"/>
<text text-anchor="middle" x="242.69" y="-93.5" font-family="Helvetica,Arial,sans-serif" font-size="14.00">0/inf</text>
</g>
<!-- Paul&#45;&gt;Mateo -->
<g id="edge9" class="edge">
<title>Paul&#45;&gt;Mateo</title>
<path fill="none" stroke="black" d="M573.7,-286.6C555.33,-324 515.32,-388.7 458.43,-388.7 171.84,-388.7 171.84,-388.7 171.84,-388.7 99.88,-388.7 63.02,-297.54 47.01,-240.53"/>
<polygon fill="black" stroke="black" points="50.33,-239.39 44.35,-230.65 43.57,-241.22 50.33,-239.39"/>
<text text-anchor="middle" x="315.78" y="-392.5" font-family="Helvetica,Arial,sans-serif" font-size="14.00">0/inf</text>
</g>
<!-- Paul&#45;&gt;Sophie -->
<g id="edge10" class="edge">
<title>Paul&#45;&gt;Sophie</title>
<path fill="none" stroke="black" d="M557.71,-267C551.73,-268.12 545.42,-269.12 539.47,-269.7 527.53,-270.87 524.47,-270.05 512.47,-269.7 406.08,-266.6 378.54,-266.67 274.19,-245.7 254,-241.64 248.4,-242.11 229.19,-234.7 224.65,-232.95 220.01,-230.9 215.45,-228.71"/>
<polygon fill="black" stroke="black" points="216.75,-225.44 206.25,-224.06 213.6,-231.69 216.75,-225.44"/>
<text text-anchor="middle" x="388.88" y="-268.5" font-family="Helvetica,Arial,sans-serif" font-size="14.00">0/inf</text>
</g>
<!-- Paul&#45;&gt;Yacine -->
<g id="edge11" class="edge">
<title>Paul&#45;&gt;Yacine</title>
<path fill="none" stroke="black" d="M572.82,-235.03C565.07,-221.41 553.8,-205.51 539.47,-195.7 529.2,-188.66 516.69,-184.1 504.6,-181.13"/>
<polygon fill="black" stroke="black" points="505.12,-177.67 494.61,-179.01 503.66,-184.51 505.12,-177.67"/>
<text text-anchor="middle" x="525.97" y="-199.5" font-family="Helvetica,Arial,sans-serif" font-size="14.00">0/inf</text>
</g>
<!-- Paul&#45;&gt;Yassine -->
<g id="edge12" class="edge">
<title>Paul&#45;&gt;Yassine</title>
<path fill="none" stroke="black" d="M582.46,-232.13C577.03,-178.17 563.04,-63.84 539.47,-32.7 506.94,10.29 473.12,1.48 420.38,-9.7 400.22,-13.98 379.21,-22.45 361.43,-30.98"/>
<polygon fill="black" stroke="black" points="359.86,-27.85 352.44,-35.42 362.96,-34.13 359.86,-27.85"/>
<text text-anchor="middle" x="457.43" y="-13.5" font-family="Helvetica,Arial,sans-serif" font-size="14.00">0/inf</text>
</g>
<!-- Yacine&#45;&gt;Mateo -->
<g id="edge13" class="edge">
<title>Yacine&#45;&gt;Mateo</title>
<path fill="none" stroke="black" d="M423.55,-159.87C379.58,-140.62 299.04,-112.03 229.19,-123.7 174.53,-132.83 115.35,-157.39 77.26,-175.29"/>
<polygon fill="black" stroke="black" points="75.56,-172.22 68.05,-179.69 78.58,-178.54 75.56,-172.22"/>
<text text-anchor="middle" x="242.69" y="-127.5" font-family="Helvetica,Arial,sans-serif" font-size="14.00">0/inf</text>
</g>
<!-- Yacine&#45;&gt;Sophie -->
<g id="edge14" class="edge">
<title>Yacine&#45;&gt;Sophie</title>
<path fill="none" stroke="black" d="M421.93,-186.3C415.45,-188.18 408.73,-190.06 402.38,-191.7 382.55,-196.83 377.71,-199.16 357.38,-201.7 312.73,-207.27 301.18,-204.03 256.19,-204.7 245.02,-204.87 233.01,-204.93 221.7,-204.94"/>
<polygon fill="black" stroke="black" points="221.56,-201.44 211.56,-204.93 221.56,-208.44 221.56,-201.44"/>
<text text-anchor="middle" x="315.78" y="-208.5" font-family="Helvetica,Arial,sans-serif" font-size="14.00">0/inf</text>
</g>
<!-- Yacine&#45;&gt;Paul -->
<g id="edge15" class="edge">
<title>Yacine&#45;&gt;Paul</title>
<path fill="none" stroke="black" d="M488.76,-196.06C508.27,-209.15 533.57,-226.13 553.34,-239.4"/>
<polygon fill="black" stroke="black" points="551.46,-242.36 561.72,-245.03 555.37,-236.55 551.46,-242.36"/>
<text text-anchor="middle" x="525.97" y="-231.5" font-family="Helvetica,Arial,sans-serif" font-size="14.00">0/inf</text>
</g>
<!-- Yacine&#45;&gt;Yassine -->
<g id="edge16" class="edge">
<title>Yacine&#45;&gt;Yassine</title>
<path fill="none" stroke="black" d="M432.34,-148.34C423.3,-138.61 412.7,-127.82 402.38,-118.7 388.85,-106.76 373.17,-94.74 358.95,-84.46"/>
<polygon fill="black" stroke="black" points="360.94,-81.58 350.77,-78.61 356.87,-87.28 360.94,-81.58"/>
<text text-anchor="middle" x="388.88" y="-122.5" font-family="Helvetica,Arial,sans-serif" font-size="14.00">0/inf</text>
</g>
<!-- Yassine&#45;&gt;Mateo -->
<g id="edge17" class="edge">
<title>Yassine&#45;&gt;Mateo</title>
<path fill="none" stroke="black" d="M275.51,-44.01C237.84,-34.95 180.11,-26.81 134.49,-45.7 90.34,-63.99 63.96,-114.42 49.94,-151.79"/>
<polygon fill="black" stroke="black" points="46.55,-150.86 46.47,-161.46 53.14,-153.23 46.55,-150.86"/>
<text text-anchor="middle" x="172.84" y="-49.5" font-family="Helvetica,Arial,sans-serif" font-size="14.00">0/inf</text>
</g>
<!-- Yassine&#45;&gt;Sophie -->
<g id="edge18" class="edge">
<title>Yassine&#45;&gt;Sophie</title>
<path fill="none" stroke="black" d="M294.42,-91.55C284.12,-108.08 270.73,-127.38 256.19,-142.7 248.88,-150.4 230.67,-164.27 213.23,-176.94"/>
<polygon fill="black" stroke="black" points="210.85,-174.35 204.78,-183.04 214.94,-180.03 210.85,-174.35"/>
<text text-anchor="middle" x="242.69" y="-168.5" font-family="Helvetica,Arial,sans-serif" font-size="14.00">0/inf</text>
</g>
<!-- Yassine&#45;&gt;Paul -->
<g id="edge19" class="edge">
<title>Yassine&#45;&gt;Paul</title>
<path fill="none" stroke="black" d="M357.53,-54.83C371.95,-55.49 388.13,-57.35 402.38,-61.7 447.55,-75.48 459.6,-82.85 494.47,-114.7 528.61,-145.87 554.62,-192.81 569.83,-225"/>
<polygon fill="black" stroke="black" points="566.83,-226.86 574.2,-234.48 573.19,-223.93 566.83,-226.86"/>
<text text-anchor="middle" x="457.43" y="-118.5" font-family="Helvetica,Arial,sans-serif" font-size="14.00">0/inf</text>
</g>
<!-- Yassine&#45;&gt;Yacine -->
<g id="edge20" class="edge">
<title>Yassine&#45;&gt;Yacine</title>
<path fill="none" stroke="black" d="M357.26,-59.8C372.63,-63 389.52,-68.67 402.38,-78.7 419.54,-92.09 432.08,-112.54 440.73,-131.22"/>
<polygon fill="black" stroke="black" points="437.58,-132.73 444.79,-140.49 443.99,-129.92 437.58,-132.73"/>
<text text-anchor="middle" x="388.88" y="-82.5" font-family="Helvetica,Arial,sans-serif" font-size="14.00">0/inf</text>
</g>
</g>
</svg>
