<?xml version="1.0" encoding="UTF-8" standalone="no"?>
<!DOCTYPE svg PUBLIC "-//W3C//DTD SVG 1.1//EN"
 "http://www.w3.org/Graphics/SVG/1.1/DTD/svg11.dtd">
<!-- Generated by graphviz version 2.43.0 (0)
 -->
<!-- Title: G Pages: 1 -->
<svg width="637pt" height="462pt"
 viewBox="0.00 0.00 636.67 461.77" xmlns="http://www.w3.org/2000/svg" xmlns:xlink="http://www.w3.org/1999/xlink">
<g id="graph0" class="graph" transform="scale(1 1) rotate(0) translate(4 457.77)">
<title>G</title>
<polygon fill="white" stroke="transparent" points="-4,4 -4,-457.77 632.67,-457.77 632.67,4 -4,4"/>
<!-- Mateo -->
<g id="node1" class="node">
<title>Mateo</title>
<ellipse fill="none" stroke="black" cx="35.75" cy="-194.77" rx="36" ry="36"/>
<text text-anchor="middle" x="35.75" y="-191.07" font-family="Helvetica,Arial,sans-serif" font-size="14.00">Mateo</text>
</g>
<!-- Sophie -->
<g id="node2" class="node">
<title>Sophie</title>
<ellipse fill="none" stroke="black" cx="172.84" cy="-203.77" rx="38.19" ry="38.19"/>
<text text-anchor="middle" x="172.84" y="-200.07" font-family="Helvetica,Arial,sans-serif" font-size="14.00">Sophie</text>
</g>
<!-- Mateo&#45;&gt;Sophie -->
<g id="edge1" class="edge">
<title>Mateo&#45;&gt;Sophie</title>
<path fill="none" stroke="black" d="M68.97,-180.82C83.5,-176.24 100.87,-173.16 116.49,-176.77 120.95,-177.8 125.46,-179.24 129.89,-180.92"/>
<polygon fill="black" stroke="black" points="128.81,-184.26 139.38,-184.93 131.53,-177.81 128.81,-184.26"/>
<text text-anchor="middle" x="102.99" y="-180.57" font-family="Helvetica,Arial,sans-serif" font-size="14.00">0/inf</text>
</g>
<!-- Paul -->
<g id="node3" class="node">
<title>Paul</title>
<ellipse fill="none" stroke="black" cx="600.07" cy="-259.77" rx="28.7" ry="28.7"/>
<text text-anchor="middle" x="600.07" y="-256.07" font-family="Helvetica,Arial,sans-serif" font-size="14.00">Paul</text>
</g>
<!-- Mateo&#45;&gt;Paul -->
<g id="edge2" class="edge">
<title>Mateo&#45;&gt;Paul</title>
<path fill="none" stroke="black" d="M36.78,-230.84C38.69,-275.84 48.33,-352.8 89.49,-401.77 115.31,-432.48 131.72,-438.77 171.84,-438.77 171.84,-438.77 171.84,-438.77 465.43,-438.77 507.87,-438.77 524.79,-433.06 553.47,-401.77 579.56,-373.3 590.73,-329.81 595.51,-298.46"/>
<polygon fill="black" stroke="black" points="599,-298.71 596.89,-288.33 592.07,-297.76 599,-298.71"/>
<text text-anchor="middle" x="315.78" y="-442.57" font-family="Helvetica,Arial,sans-serif" font-size="14.00">0/inf</text>
</g>
<!-- Yacine -->
<g id="node4" class="node">
<title>Yacine</title>
<ellipse fill="none" stroke="black" cx="464.43" cy="-174.77" rx="37.09" ry="37.09"/>
<text text-anchor="middle" x="464.43" y="-171.07" font-family="Helvetica,Arial,sans-serif" font-size="14.00">Yacine</text>
</g>
<!-- Mateo&#45;&gt;Yacine -->
<g id="edge3" class="edge">
<title>Mateo&#45;&gt;Yacine</title>
<path fill="none" stroke="black" d="M62.94,-218.78C127.13,-274.61 295.31,-402.55 409.38,-322.77 441.58,-300.25 454.66,-256.41 459.94,-222.26"/>
<polygon fill="black" stroke="black" points="463.45,-222.39 461.34,-212.01 456.52,-221.44 463.45,-222.39"/>
<text text-anchor="middle" x="242.69" y="-339.57" font-family="Helvetica,Arial,sans-serif" font-size="14.00">0/inf</text>
</g>
<!-- Yassine -->
<g id="node5" class="node">
<title>Yassine</title>
<ellipse fill="none" stroke="black" cx="315.78" cy="-54.77" rx="41.69" ry="41.69"/>
<text text-anchor="middle" x="315.78" y="-51.07" font-family="Helvetica,Arial,sans-serif" font-size="14.00">Yassine</text>
</g>
<!-- Mateo&#45;&gt;Yassine -->
<g id="edge4" class="edge">
<title>Mateo&#45;&gt;Yassine</title>
<path fill="none" stroke="black" d="M50.84,-162.13C59.71,-145 72.68,-124.91 89.49,-111.77 139.95,-72.35 214.44,-59.9 263.76,-56.13"/>
<polygon fill="black" stroke="black" points="264.15,-59.61 273.89,-55.45 263.68,-52.63 264.15,-59.61"/>
<text text-anchor="middle" x="172.84" y="-87.57" font-family="Helvetica,Arial,sans-serif" font-size="14.00">5/inf</text>
</g>
<!-- Sophie&#45;&gt;Mateo -->
<g id="edge5" class="edge">
<title>Sophie&#45;&gt;Mateo</title>
<path fill="none" stroke="black" d="M134.32,-201.27C118.05,-200.18 98.86,-198.91 81.82,-197.77"/>
<polygon fill="black" stroke="black" points="81.75,-194.26 71.54,-197.09 81.28,-201.24 81.75,-194.26"/>
<text text-anchor="middle" x="102.99" y="-203.57" font-family="Helvetica,Arial,sans-serif" font-size="14.00">0/inf</text>
</g>
<!-- Sophie&#45;&gt;Paul -->
<g id="edge6" class="edge">
<title>Sophie&#45;&gt;Paul</title>
<path fill="none" stroke="black" d="M210.01,-213.66C216.37,-215.19 222.95,-216.63 229.19,-217.77 349.59,-239.73 494.26,-252.18 561.41,-257.18"/>
<polygon fill="black" stroke="black" points="561.28,-260.68 571.51,-257.91 561.79,-253.69 561.28,-260.68"/>
<text text-anchor="middle" x="392.38" y="-246.57" font-family="Helvetica,Arial,sans-serif" font-size="14.00">0/inf</text>
</g>
<!-- Sophie&#45;&gt;Yacine -->
<g id="edge7" class="edge">
<title>Sophie&#45;&gt;Yacine</title>
<path fill="none" stroke="black" d="M210.85,-196.04C229.73,-192.37 253.09,-188.26 274.19,-185.77 322.73,-180.02 378.65,-177.24 417.04,-175.92"/>
<polygon fill="black" stroke="black" points="417.51,-179.41 427.39,-175.58 417.28,-172.41 417.51,-179.41"/>
<text text-anchor="middle" x="315.78" y="-189.57" font-family="Helvetica,Arial,sans-serif" font-size="14.00">0/inf</text>
</g>
<!-- Sophie&#45;&gt;Yassine -->
<g id="edge8" class="edge">
<title>Sophie&#45;&gt;Yassine</title>
<path fill="none" stroke="black" d="M183.84,-166.82C192.27,-141.86 206.66,-109.77 229.19,-88.77 239.35,-79.3 252.47,-72.34 265.37,-67.28"/>
<polygon fill="black" stroke="black" points="266.91,-70.45 275.14,-63.77 264.54,-63.86 266.91,-70.45"/>
<text text-anchor="middle" x="242.69" y="-92.57" font-family="Helvetica,Arial,sans-serif" font-size="14.00">5/inf</text>
</g>
<!-- Paul&#45;&gt;Mateo -->
<g id="edge9" class="edge">
<title>Paul&#45;&gt;Mateo</title>
<path fill="none" stroke="black" d="M586.85,-285.36C567.01,-322.72 524.06,-387.77 465.43,-387.77 171.84,-387.77 171.84,-387.77 171.84,-387.77 99.88,-387.77 63.02,-296.61 47.01,-239.59"/>
<polygon fill="black" stroke="black" points="50.33,-238.46 44.35,-229.72 43.57,-240.29 50.33,-238.46"/>
<text text-anchor="middle" x="315.78" y="-391.57" font-family="Helvetica,Arial,sans-serif" font-size="14.00">0/inf</text>
</g>
<!-- Paul&#45;&gt;Sophie -->
<g id="edge10" class="edge">
<title>Paul&#45;&gt;Sophie</title>
<path fill="none" stroke="black" d="M571.71,-266.07C565.73,-267.19 559.42,-268.19 553.47,-268.77 538.43,-270.24 534.58,-269.13 519.47,-268.77 409.97,-266.11 381.47,-266.86 274.19,-244.77 254.02,-240.62 248.4,-241.18 229.19,-233.77 224.65,-232.02 220.01,-229.97 215.45,-227.77"/>
<polygon fill="black" stroke="black" points="216.75,-224.51 206.25,-223.13 213.6,-230.76 216.75,-224.51"/>
<text text-anchor="middle" x="392.38" y="-268.57" font-family="Helvetica,Arial,sans-serif" font-size="14.00">0/inf</text>
</g>
<!-- Paul&#45;&gt;Yacine -->
<g id="edge11" class="edge">
<title>Paul&#45;&gt;Yacine</title>
<path fill="none" stroke="black" d="M586.89,-234C579.16,-220.35 567.89,-204.45 553.47,-194.77 541.22,-186.54 526.07,-181.66 511.81,-178.78"/>
<polygon fill="black" stroke="black" points="512.09,-175.28 501.64,-177.01 510.9,-182.17 512.09,-175.28"/>
<text text-anchor="middle" x="536.47" y="-198.57" font-family="Helvetica,Arial,sans-serif" font-size="14.00">0/inf</text>
</g>
<!-- Paul&#45;&gt;Yassine -->
<g id="edge12" class="edge">
<title>Paul&#45;&gt;Yassine</title>
<path fill="none" stroke="black" d="M596.61,-231.08C591.45,-176.91 577.9,-62.24 553.47,-31.77 509.04,23.65 417.42,-5.81 362.12,-31.09"/>
<polygon fill="black" stroke="black" points="360.46,-28 352.9,-35.42 363.44,-34.34 360.46,-28"/>
<text text-anchor="middle" x="464.43" y="-11.57" font-family="Helvetica,Arial,sans-serif" font-size="14.00">0/inf</text>
</g>
<!-- Yacine&#45;&gt;Mateo -->
<g id="edge13" class="edge">
<title>Yacine&#45;&gt;Mateo</title>
<path fill="none" stroke="black" d="M430.67,-159.33C385.57,-139.96 301.71,-110.66 229.19,-122.77 174.53,-131.9 115.35,-156.46 77.26,-174.36"/>
<polygon fill="black" stroke="black" points="75.56,-171.29 68.05,-178.75 78.58,-177.61 75.56,-171.29"/>
<text text-anchor="middle" x="242.69" y="-126.57" font-family="Helvetica,Arial,sans-serif" font-size="14.00">0/inf</text>
</g>
<!-- Yacine&#45;&gt;Sophie -->
<g id="edge14" class="edge">
<title>Yacine&#45;&gt;Sophie</title>
<path fill="none" stroke="black" d="M428.96,-185.52C422.49,-187.38 415.75,-189.22 409.38,-190.77 342.99,-206.94 324.51,-202.76 256.19,-203.77 245.02,-203.93 233.01,-204 221.7,-204.01"/>
<polygon fill="black" stroke="black" points="221.56,-200.51 211.56,-204 221.56,-207.51 221.56,-200.51"/>
<text text-anchor="middle" x="315.78" y="-206.57" font-family="Helvetica,Arial,sans-serif" font-size="14.00">0/inf</text>
</g>
<!-- Yacine&#45;&gt;Paul -->
<g id="edge15" class="edge">
<title>Yacine&#45;&gt;Paul</title>
<path fill="none" stroke="black" d="M495.96,-194.65C503.62,-199.61 511.84,-204.9 519.47,-209.77 534.97,-219.65 552.24,-230.52 566.72,-239.59"/>
<polygon fill="black" stroke="black" points="565,-242.64 575.33,-244.98 568.71,-236.7 565,-242.64"/>
<text text-anchor="middle" x="536.47" y="-233.57" font-family="Helvetica,Arial,sans-serif" font-size="14.00">25/inf</text>
</g>
<!-- Yacine&#45;&gt;Yassine -->
<g id="edge16" class="edge">
<title>Yacine&#45;&gt;Yassine</title>
<path fill="none" stroke="black" d="M439.53,-147.18C430.51,-137.43 419.88,-126.68 409.38,-117.77 395.47,-105.97 390.47,-105.02 375.38,-94.77 370.1,-91.18 364.55,-87.4 359.07,-83.66"/>
<polygon fill="black" stroke="black" points="360.77,-80.59 350.54,-77.85 356.83,-86.37 360.77,-80.59"/>
<text text-anchor="middle" x="392.38" y="-121.57" font-family="Helvetica,Arial,sans-serif" font-size="14.00">0/inf</text>
</g>
<!-- Yassine&#45;&gt;Mateo -->
<g id="edge17" class="edge">
<title>Yassine&#45;&gt;Mateo</title>
<path fill="none" stroke="black" d="M275.51,-43.07C237.84,-34.01 180.11,-25.87 134.49,-44.77 90.34,-63.06 63.96,-113.49 49.94,-150.85"/>
<polygon fill="black" stroke="black" points="46.55,-149.93 46.47,-160.53 53.14,-152.29 46.55,-149.93"/>
<text text-anchor="middle" x="172.84" y="-48.57" font-family="Helvetica,Arial,sans-serif" font-size="14.00">0/inf</text>
</g>
<!-- Yassine&#45;&gt;Sophie -->
<g id="edge18" class="edge">
<title>Yassine&#45;&gt;Sophie</title>
<path fill="none" stroke="black" d="M294.42,-90.62C284.12,-107.14 270.73,-126.44 256.19,-141.77 248.88,-149.47 230.67,-163.34 213.23,-176.01"/>
<polygon fill="black" stroke="black" points="210.85,-173.42 204.78,-182.1 214.94,-179.09 210.85,-173.42"/>
<text text-anchor="middle" x="242.69" y="-167.57" font-family="Helvetica,Arial,sans-serif" font-size="14.00">0/inf</text>
</g>
<!-- Yassine&#45;&gt;Paul -->
<g id="edge19" class="edge">
<title>Yassine&#45;&gt;Paul</title>
<path fill="none" stroke="black" d="M357.61,-52.84C374,-53.12 392.88,-54.81 409.38,-59.77 454.82,-73.43 465.23,-83.14 501.47,-113.77 537.93,-144.57 566.29,-192.3 582.83,-224.73"/>
<polygon fill="black" stroke="black" points="579.79,-226.47 587.38,-233.86 586.05,-223.35 579.79,-226.47"/>
<text text-anchor="middle" x="464.43" y="-117.57" font-family="Helvetica,Arial,sans-serif" font-size="14.00">0/inf</text>
</g>
<!-- Yassine&#45;&gt;Yacine -->
<g id="edge20" class="edge">
<title>Yassine&#45;&gt;Yacine</title>
<path fill="none" stroke="black" d="M357.73,-56.66C375.08,-59.23 394.65,-64.64 409.38,-75.77 427.37,-89.36 440.11,-110.76 448.69,-130.19"/>
<polygon fill="black" stroke="black" points="445.5,-131.63 452.57,-139.52 451.96,-128.95 445.5,-131.63"/>
<text text-anchor="middle" x="392.38" y="-79.57" font-family="Helvetica,Arial,sans-serif" font-size="14.00">25/inf</text>
</g>
</g>
</svg>
