<?xml version="1.0" encoding="UTF-8" standalone="no"?>
<!DOCTYPE svg PUBLIC "-//W3C//DTD SVG 1.1//EN"
 "http://www.w3.org/Graphics/SVG/1.1/DTD/svg11.dtd">
<!-- Generated by graphviz version 2.43.0 (0)
 -->
<!-- Title: G Pages: 1 -->
<svg width="923pt" height="1045pt"
 viewBox="0.00 0.00 923.00 1045.38" xmlns="http://www.w3.org/2000/svg" xmlns:xlink="http://www.w3.org/1999/xlink">
<g id="graph0" class="graph" transform="scale(1 1) rotate(0) translate(4 1041.38)">
<title>G</title>
<polygon fill="white" stroke="transparent" points="-4,4 -4,-1041.38 919,-1041.38 919,4 -4,4"/>
<!-- 1 -->
<g id="node1" class="node">
<title>1</title>
<ellipse fill="none" stroke="black" cx="18" cy="-516.38" rx="18" ry="18"/>
<text text-anchor="middle" x="18" y="-512.68" font-family="Helvetica,Arial,sans-serif" font-size="14.00">1</text>
</g>
<!-- 0 -->
<g id="node2" class="node">
<title>0</title>
<ellipse fill="none" stroke="black" cx="157.5" cy="-662.38" rx="18" ry="18"/>
<text text-anchor="middle" x="157.5" y="-658.68" font-family="Helvetica,Arial,sans-serif" font-size="14.00">0</text>
</g>
<!-- 1&#45;&gt;0 -->
<g id="edge1" class="edge">
<title>1&#45;&gt;0</title>
<path fill="none" stroke="black" d="M20.33,-534.51C22.97,-557.74 30.8,-597.91 54,-622.38 74.06,-643.54 106.63,-653.69 129.67,-658.43"/>
<polygon fill="black" stroke="black" points="129.03,-661.87 139.5,-660.25 130.31,-654.99 129.03,-661.87"/>
<text text-anchor="middle" x="82.5" y="-657.18" font-family="Helvetica,Arial,sans-serif" font-size="14.00">0/100000</text>
</g>
<!-- 4 -->
<g id="node3" class="node">
<title>4</title>
<ellipse fill="none" stroke="black" cx="307.5" cy="-285.38" rx="18" ry="18"/>
<text text-anchor="middle" x="307.5" y="-281.68" font-family="Helvetica,Arial,sans-serif" font-size="14.00">4</text>
</g>
<!-- 1&#45;&gt;4 -->
<g id="edge2" class="edge">
<title>1&#45;&gt;4</title>
<path fill="none" stroke="black" d="M19.66,-498.37C22.62,-448.17 38.95,-307.56 129,-265.38 179.1,-241.92 245.57,-260.87 281.26,-274.51"/>
<polygon fill="black" stroke="black" points="280.31,-277.9 290.89,-278.35 282.9,-271.4 280.31,-277.9"/>
<text text-anchor="middle" x="157.5" y="-269.18" font-family="Helvetica,Arial,sans-serif" font-size="14.00">0/100000</text>
</g>
<!-- 5 -->
<g id="node4" class="node">
<title>5</title>
<ellipse fill="none" stroke="black" cx="897" cy="-694.38" rx="18" ry="18"/>
<text text-anchor="middle" x="897" y="-690.68" font-family="Helvetica,Arial,sans-serif" font-size="14.00">5</text>
</g>
<!-- 1&#45;&gt;5 -->
<g id="edge3" class="edge">
<title>1&#45;&gt;5</title>
<path fill="none" stroke="black" d="M19.2,-534.55C20.28,-616.46 26.32,-948.93 54,-985.38 83.29,-1023.96 108.07,-1022.38 156.5,-1022.38 156.5,-1022.38 156.5,-1022.38 758.5,-1022.38 806.93,-1022.38 830.85,-1023.28 861,-985.38 892.89,-945.29 896.27,-788.25 896.26,-723.02"/>
<polygon fill="black" stroke="black" points="899.76,-722.65 896.23,-712.67 892.76,-722.68 899.76,-722.65"/>
<text text-anchor="middle" x="457.5" y="-1026.18" font-family="Helvetica,Arial,sans-serif" font-size="14.00">0/100000</text>
</g>
<!-- 3 -->
<g id="node5" class="node">
<title>3</title>
<ellipse fill="none" stroke="black" cx="757.5" cy="-530.38" rx="18" ry="18"/>
<text text-anchor="middle" x="757.5" y="-526.68" font-family="Helvetica,Arial,sans-serif" font-size="14.00">3</text>
</g>
<!-- 1&#45;&gt;3 -->
<g id="edge4" class="edge">
<title>1&#45;&gt;3</title>
<path fill="none" stroke="black" d="M19.9,-498.28C23.06,-438.2 34.48,-245.96 54,-187.38 82.14,-102.96 67.51,-15.38 156.5,-15.38 156.5,-15.38 156.5,-15.38 383.5,-15.38 432.55,-15.38 686.61,-268.83 711,-311.38 746.33,-373.04 754.4,-458.45 756.13,-502.15"/>
<polygon fill="black" stroke="black" points="752.64,-502.44 756.45,-512.32 759.63,-502.22 752.64,-502.44"/>
<text text-anchor="middle" x="382.5" y="-19.18" font-family="Helvetica,Arial,sans-serif" font-size="14.00">0/100000</text>
</g>
<!-- 2 -->
<g id="node6" class="node">
<title>2</title>
<ellipse fill="none" stroke="black" cx="607.5" cy="-505.38" rx="18" ry="18"/>
<text text-anchor="middle" x="607.5" y="-501.68" font-family="Helvetica,Arial,sans-serif" font-size="14.00">2</text>
</g>
<!-- 1&#45;&gt;2 -->
<g id="edge5" class="edge">
<title>1&#45;&gt;2</title>
<path fill="none" stroke="black" d="M30.87,-503.56C58.14,-475.17 128.7,-407.64 204,-383.38 228.11,-375.61 238.23,-372.29 261,-383.38 272.67,-389.07 269.48,-397.56 279,-406.38 308.38,-433.61 316.9,-441.26 354,-456.38 440.69,-491.73 469.27,-476.67 561,-495.38 567.09,-496.63 573.63,-498.02 579.79,-499.37"/>
<polygon fill="black" stroke="black" points="579.15,-502.81 589.67,-501.56 580.66,-495.98 579.15,-502.81"/>
<text text-anchor="middle" x="307.5" y="-453.18" font-family="Helvetica,Arial,sans-serif" font-size="14.00">0/100000</text>
</g>
<!-- 6 -->
<g id="node7" class="node">
<title>6</title>
<ellipse fill="none" stroke="black" cx="457.5" cy="-543.38" rx="18" ry="18"/>
<text text-anchor="middle" x="457.5" y="-539.68" font-family="Helvetica,Arial,sans-serif" font-size="14.00">6</text>
</g>
<!-- 1&#45;&gt;6 -->
<g id="edge6" class="edge">
<title>1&#45;&gt;6</title>
<path fill="none" stroke="black" d="M36.23,-516.27C83.99,-516.11 222.04,-516.78 336,-528.38 344.07,-529.2 345.97,-530.24 354,-531.38 379.53,-535 408.75,-538.34 429.44,-540.58"/>
<polygon fill="black" stroke="black" points="429.1,-544.06 439.42,-541.64 429.85,-537.1 429.1,-544.06"/>
<text text-anchor="middle" x="232.5" y="-526.18" font-family="Helvetica,Arial,sans-serif" font-size="14.00">0/100000</text>
</g>
<!-- &#45;2 -->
<g id="node8" class="node">
<title>&#45;2</title>
<ellipse fill="none" stroke="black" cx="307.5" cy="-556.38" rx="18.7" ry="18.7"/>
<text text-anchor="middle" x="307.5" y="-552.68" font-family="Helvetica,Arial,sans-serif" font-size="14.00">&#45;2</text>
</g>
<!-- 1&#45;&gt;&#45;2 -->
<g id="edge7" class="edge">
<title>1&#45;&gt;&#45;2</title>
<path fill="none" stroke="black" d="M34.72,-523.75C40.65,-526.24 47.52,-528.79 54,-530.38 133.79,-550.04 231.31,-554.86 278.4,-556.02"/>
<polygon fill="black" stroke="black" points="278.38,-559.52 288.45,-556.23 278.53,-552.52 278.38,-559.52"/>
<text text-anchor="middle" x="157.5" y="-555.18" font-family="Helvetica,Arial,sans-serif" font-size="14.00">0/68</text>
</g>
<!-- 0&#45;&gt;1 -->
<g id="edge8" class="edge">
<title>0&#45;&gt;1</title>
<path fill="none" stroke="black" d="M147.65,-647.19C139.48,-634.2 126.31,-615.72 111,-603.38 89.17,-585.8 74.65,-595.34 54,-576.38 43.73,-566.95 35.59,-553.8 29.76,-542.21"/>
<polygon fill="black" stroke="black" points="32.84,-540.52 25.41,-532.96 26.5,-543.5 32.84,-540.52"/>
<text text-anchor="middle" x="82.5" y="-607.18" font-family="Helvetica,Arial,sans-serif" font-size="14.00">0/100000</text>
</g>
<!-- 0&#45;&gt;4 -->
<g id="edge9" class="edge">
<title>0&#45;&gt;4</title>
<path fill="none" stroke="black" d="M165.18,-645.91C171.47,-629.74 180.71,-604.24 186,-581.38 193.08,-550.82 184.83,-466.21 204,-441.38 220.7,-419.76 242.73,-438.69 261,-418.38 280.48,-396.74 269.67,-382.97 279,-355.38 284.04,-340.5 290.41,-324.14 295.76,-310.99"/>
<polygon fill="black" stroke="black" points="299.04,-312.21 299.61,-301.63 292.57,-309.54 299.04,-312.21"/>
<text text-anchor="middle" x="232.5" y="-445.18" font-family="Helvetica,Arial,sans-serif" font-size="14.00">0/100000</text>
</g>
<!-- 0&#45;&gt;5 -->
<g id="edge10" class="edge">
<title>0&#45;&gt;5</title>
<path fill="none" stroke="black" d="M161.79,-679.87C171.08,-728.87 197.26,-864.37 204,-871.38 306.21,-977.76 383.98,-925.38 531.5,-925.38 531.5,-925.38 531.5,-925.38 758.5,-925.38 805.29,-925.38 828.97,-935.48 861,-901.38 884.83,-876.01 892.58,-773.29 894.99,-722.74"/>
<polygon fill="black" stroke="black" points="898.49,-722.66 895.43,-712.51 891.5,-722.35 898.49,-722.66"/>
<text text-anchor="middle" x="532.5" y="-929.18" font-family="Helvetica,Arial,sans-serif" font-size="14.00">0/100000</text>
</g>
<!-- 0&#45;&gt;3 -->
<g id="edge11" class="edge">
<title>0&#45;&gt;3</title>
<path fill="none" stroke="black" d="M158.54,-680.38C159.71,-710.11 166.87,-768.84 204,-795.38 268.77,-841.68 503.15,-820.07 561,-765.38 587.48,-740.35 554.92,-712.74 579,-685.38 620.24,-638.52 666.49,-681.15 711,-637.38 726.95,-621.7 720.34,-611 729,-590.38 733.86,-578.82 739.59,-566.17 744.56,-555.48"/>
<polygon fill="black" stroke="black" points="747.79,-556.84 748.87,-546.3 741.45,-553.87 747.79,-556.84"/>
<text text-anchor="middle" x="457.5" y="-816.18" font-family="Helvetica,Arial,sans-serif" font-size="14.00">0/100000</text>
</g>
<!-- 0&#45;&gt;2 -->
<g id="edge12" class="edge">
<title>0&#45;&gt;2</title>
<path fill="none" stroke="black" d="M166.05,-678.29C173.53,-692.02 186.43,-710.93 204,-719.38 275.81,-753.94 507.34,-744.3 561,-685.38 581.83,-662.52 568.26,-576.38 579,-547.38 581.56,-540.46 585.44,-533.53 589.48,-527.34"/>
<polygon fill="black" stroke="black" points="592.51,-529.11 595.38,-518.91 586.78,-525.09 592.51,-529.11"/>
<text text-anchor="middle" x="382.5" y="-742.18" font-family="Helvetica,Arial,sans-serif" font-size="14.00">0/100000</text>
</g>
<!-- 0&#45;&gt;6 -->
<g id="edge13" class="edge">
<title>0&#45;&gt;6</title>
<path fill="none" stroke="black" d="M175.36,-664.68C218.75,-669.65 336.11,-677.16 411,-625.38 429.87,-612.34 441.75,-588.81 448.62,-570.29"/>
<polygon fill="black" stroke="black" points="452.01,-571.21 451.94,-560.62 445.38,-568.94 452.01,-571.21"/>
<text text-anchor="middle" x="307.5" y="-669.18" font-family="Helvetica,Arial,sans-serif" font-size="14.00">0/100000</text>
</g>
<!-- 0&#45;&gt;&#45;2 -->
<g id="edge14" class="edge">
<title>0&#45;&gt;&#45;2</title>
<path fill="none" stroke="black" d="M165.57,-645.96C173.03,-630.41 186.19,-607.41 204,-593.38 210.16,-588.53 251.26,-574.47 279.51,-565.14"/>
<polygon fill="black" stroke="black" points="280.84,-568.39 289.25,-561.95 278.66,-561.74 280.84,-568.39"/>
<text text-anchor="middle" x="232.5" y="-597.18" font-family="Helvetica,Arial,sans-serif" font-size="14.00">0/18</text>
</g>
<!-- 4&#45;&gt;1 -->
<g id="edge15" class="edge">
<title>4&#45;&gt;1</title>
<path fill="none" stroke="black" d="M293.55,-273.3C284.94,-265.9 273.03,-256.84 261,-251.38 229.96,-237.3 219.9,-238.96 186,-235.38 125.16,-228.97 89.42,-224.5 54,-274.38 29.98,-308.21 22.24,-431.47 19.92,-487.87"/>
<polygon fill="black" stroke="black" points="16.41,-488.08 19.52,-498.21 23.4,-488.35 16.41,-488.08"/>
<text text-anchor="middle" x="157.5" y="-239.18" font-family="Helvetica,Arial,sans-serif" font-size="14.00">0/100000</text>
</g>
<!-- 4&#45;&gt;0 -->
<g id="edge16" class="edge">
<title>4&#45;&gt;0</title>
<path fill="none" stroke="black" d="M292.55,-295.84C269.52,-314.01 224.09,-353.85 204,-399.38 171.19,-473.75 203.18,-501.93 186,-581.38 181.93,-600.2 174.93,-620.72 169.02,-636.4"/>
<polygon fill="black" stroke="black" points="165.67,-635.35 165.32,-645.94 172.2,-637.88 165.67,-635.35"/>
<text text-anchor="middle" x="232.5" y="-403.18" font-family="Helvetica,Arial,sans-serif" font-size="14.00">0/100000</text>
</g>
<!-- 4&#45;&gt;5 -->
<g id="edge17" class="edge">
<title>4&#45;&gt;5</title>
<path fill="none" stroke="black" d="M314.8,-268.84C329.1,-233.81 367.62,-152.3 429,-115.38 511.27,-65.9 794.53,-49.12 861,-118.38 899.22,-158.21 897.57,-556.44 896.37,-666.39"/>
<polygon fill="black" stroke="black" points="892.88,-666.35 896.26,-676.39 899.87,-666.43 892.88,-666.35"/>
<text text-anchor="middle" x="607.5" y="-81.18" font-family="Helvetica,Arial,sans-serif" font-size="14.00">0/100000</text>
</g>
<!-- 4&#45;&gt;3 -->
<g id="edge18" class="edge">
<title>4&#45;&gt;3</title>
<path fill="none" stroke="black" d="M325.67,-285.56C358.28,-286.47 430.87,-291.3 486,-315.38 594.36,-362.71 627.62,-373.53 711,-457.38 724.73,-471.19 736.28,-489.88 744.31,-504.89"/>
<polygon fill="black" stroke="black" points="741.38,-506.84 749.06,-514.13 747.6,-503.64 741.38,-506.84"/>
<text text-anchor="middle" x="532.5" y="-352.18" font-family="Helvetica,Arial,sans-serif" font-size="14.00">0/100000</text>
</g>
<!-- 4&#45;&gt;2 -->
<g id="edge19" class="edge">
<title>4&#45;&gt;2</title>
<path fill="none" stroke="black" d="M325.18,-289.33C376.35,-301.8 529.61,-341.77 561,-380.38 590.03,-416.11 555.95,-442.54 579,-482.38 580.46,-484.91 582.31,-487.28 584.35,-489.47"/>
<polygon fill="black" stroke="black" points="582.01,-492.07 591.78,-496.17 586.7,-486.87 582.01,-492.07"/>
<text text-anchor="middle" x="457.5" y="-341.18" font-family="Helvetica,Arial,sans-serif" font-size="14.00">0/100000</text>
</g>
<!-- 4&#45;&gt;6 -->
<g id="edge20" class="edge">
<title>4&#45;&gt;6</title>
<path fill="none" stroke="black" d="M314.82,-302.15C324.18,-326.26 341.93,-369.06 354,-380.38 373.92,-399.08 392.36,-383.41 411,-403.38 440.01,-434.47 450.53,-484.29 454.34,-515.36"/>
<polygon fill="black" stroke="black" points="450.88,-515.93 455.43,-525.5 457.84,-515.18 450.88,-515.93"/>
<text text-anchor="middle" x="382.5" y="-407.18" font-family="Helvetica,Arial,sans-serif" font-size="14.00">0/100000</text>
</g>
<!-- 5&#45;&gt;1 -->
<g id="edge21" class="edge">
<title>5&#45;&gt;1</title>
<path fill="none" stroke="black" d="M895.51,-712.33C893.85,-760.94 886.99,-893.7 861,-927.38 830.71,-966.63 808.08,-971.38 758.5,-971.38 156.5,-971.38 156.5,-971.38 156.5,-971.38 66.82,-971.38 30.3,-643.39 21.32,-544.36"/>
<polygon fill="black" stroke="black" points="24.79,-543.87 20.43,-534.22 17.82,-544.49 24.79,-543.87"/>
<text text-anchor="middle" x="457.5" y="-975.18" font-family="Helvetica,Arial,sans-serif" font-size="14.00">0/100000</text>
</g>
<!-- 5&#45;&gt;0 -->
<g id="edge22" class="edge">
<title>5&#45;&gt;0</title>
<path fill="none" stroke="black" d="M892.41,-711.85C881.54,-759.36 844.28,-887.38 758.5,-887.38 531.5,-887.38 531.5,-887.38 531.5,-887.38 457.12,-887.38 258.56,-868.93 204,-818.38 168.27,-785.28 160.04,-725.88 158.47,-690.7"/>
<polygon fill="black" stroke="black" points="161.96,-690.51 158.17,-680.62 154.97,-690.72 161.96,-690.51"/>
<text text-anchor="middle" x="532.5" y="-891.18" font-family="Helvetica,Arial,sans-serif" font-size="14.00">0/100000</text>
</g>
<!-- 5&#45;&gt;4 -->
<g id="edge23" class="edge">
<title>5&#45;&gt;4</title>
<path fill="none" stroke="black" d="M896.65,-676.36C898.39,-597.56 893.5,-281.85 711,-161.38 582.49,-76.55 393.03,-215.2 329.87,-267.06"/>
<polygon fill="black" stroke="black" points="327.26,-264.68 321.81,-273.77 331.74,-270.06 327.26,-264.68"/>
<text text-anchor="middle" x="607.5" y="-142.18" font-family="Helvetica,Arial,sans-serif" font-size="14.00">0/100000</text>
</g>
<!-- 5&#45;&gt;3 -->
<g id="edge24" class="edge">
<title>5&#45;&gt;3</title>
<path fill="none" stroke="black" d="M895.83,-676.24C894.61,-649.52 888.51,-599.5 861,-569.38 858.27,-566.4 813.99,-550.18 784.53,-539.63"/>
<polygon fill="black" stroke="black" points="785.41,-536.22 774.82,-536.16 783.06,-542.82 785.41,-536.22"/>
<text text-anchor="middle" x="832.5" y="-573.18" font-family="Helvetica,Arial,sans-serif" font-size="14.00">0/100000</text>
</g>
<!-- 5&#45;&gt;2 -->
<g id="edge25" class="edge">
<title>5&#45;&gt;2</title>
<path fill="none" stroke="black" d="M878.77,-693.8C834.64,-691.36 716.61,-678.64 654,-612.38 633.41,-590.6 648.36,-574.69 636,-547.38 633.01,-540.77 629.05,-534.01 625.07,-527.9"/>
<polygon fill="black" stroke="black" points="627.87,-525.8 619.34,-519.51 622.09,-529.74 627.87,-525.8"/>
<text text-anchor="middle" x="757.5" y="-683.18" font-family="Helvetica,Arial,sans-serif" font-size="14.00">0/100000</text>
</g>
<!-- 5&#45;&gt;6 -->
<g id="edge26" class="edge">
<title>5&#45;&gt;6</title>
<path fill="none" stroke="black" d="M879.4,-698.98C873.62,-700.36 867.07,-701.7 861,-702.38 802.68,-708.96 785.3,-714.99 729,-698.38 627.77,-668.52 523.81,-594.22 480.01,-560.5"/>
<polygon fill="black" stroke="black" points="482.12,-557.71 472.07,-554.33 477.82,-563.23 482.12,-557.71"/>
<text text-anchor="middle" x="682.5" y="-696.18" font-family="Helvetica,Arial,sans-serif" font-size="14.00">0/100000</text>
</g>
<!-- 3&#45;&gt;1 -->
<g id="edge27" class="edge">
<title>3&#45;&gt;1</title>
<path fill="none" stroke="black" d="M748.33,-546.1C742.37,-558.01 734.42,-574.92 729,-590.38 718.08,-621.51 731.19,-636.3 711,-662.38 693.35,-685.18 676.78,-675.7 654,-693.38 606.05,-730.59 609.49,-756.88 561,-793.38 431.25,-891.06 349.35,-943.84 204,-871.38 104.88,-821.97 100.5,-772.9 54,-672.38 34.52,-630.29 25.56,-576.67 21.68,-544.52"/>
<polygon fill="black" stroke="black" points="25.15,-544.03 20.56,-534.49 18.2,-544.81 25.15,-544.03"/>
<text text-anchor="middle" x="382.5" y="-906.18" font-family="Helvetica,Arial,sans-serif" font-size="14.00">0/100000</text>
</g>
<!-- 3&#45;&gt;0 -->
<g id="edge28" class="edge">
<title>3&#45;&gt;0</title>
<path fill="none" stroke="black" d="M741.92,-539.95C701.56,-566.53 590.59,-640.4 579,-656.38 563.16,-678.24 580.29,-695.51 561,-714.38 511.43,-762.89 479.68,-747.73 411,-757.38 319.59,-770.23 280.49,-792.06 204,-740.38 186.08,-728.28 174.26,-706.57 167.17,-689.13"/>
<polygon fill="black" stroke="black" points="170.33,-687.58 163.54,-679.45 163.78,-690.05 170.33,-687.58"/>
<text text-anchor="middle" x="457.5" y="-758.18" font-family="Helvetica,Arial,sans-serif" font-size="14.00">0/100000</text>
</g>
<!-- 3&#45;&gt;4 -->
<g id="edge29" class="edge">
<title>3&#45;&gt;4</title>
<path fill="none" stroke="black" d="M753.89,-512.48C749.26,-485.99 737.48,-435.86 711,-402.38 661.75,-340.11 635.31,-333.34 561,-305.38 483.3,-276.15 382.87,-279.16 335.5,-282.75"/>
<polygon fill="black" stroke="black" points="335.11,-279.27 325.43,-283.59 335.69,-286.25 335.11,-279.27"/>
<text text-anchor="middle" x="532.5" y="-309.18" font-family="Helvetica,Arial,sans-serif" font-size="14.00">0/100000</text>
</g>
<!-- 3&#45;&gt;5 -->
<g id="edge30" class="edge">
<title>3&#45;&gt;5</title>
<path fill="none" stroke="black" d="M774.77,-524.26C796.9,-517.09 836.53,-508.54 861,-528.38 882.03,-545.44 890.91,-623.67 894.24,-666.37"/>
<polygon fill="black" stroke="black" points="890.75,-666.68 894.97,-676.4 897.74,-666.17 890.75,-666.68"/>
<text text-anchor="middle" x="832.5" y="-532.18" font-family="Helvetica,Arial,sans-serif" font-size="14.00">0/100000</text>
</g>
<!-- 3&#45;&gt;2 -->
<g id="edge31" class="edge">
<title>3&#45;&gt;2</title>
<path fill="none" stroke="black" d="M739.42,-527.93C719.04,-524.96 683.97,-519.68 654,-514.38 647.9,-513.3 641.37,-512.06 635.2,-510.85"/>
<polygon fill="black" stroke="black" points="635.82,-507.41 625.32,-508.88 634.44,-514.27 635.82,-507.41"/>
<text text-anchor="middle" x="682.5" y="-528.18" font-family="Helvetica,Arial,sans-serif" font-size="14.00">0/100000</text>
</g>
<!-- 3&#45;&gt;6 -->
<g id="edge32" class="edge">
<title>3&#45;&gt;6</title>
<path fill="none" stroke="black" d="M745.37,-517.06C736.84,-507.6 724.29,-495.23 711,-487.38 659.66,-457.06 637.42,-451.44 579,-463.38 543.49,-470.64 533.75,-474.69 504,-495.38 493.61,-502.61 483.73,-512.52 475.85,-521.45"/>
<polygon fill="black" stroke="black" points="473.01,-519.39 469.21,-529.28 478.35,-523.91 473.01,-519.39"/>
<text text-anchor="middle" x="607.5" y="-467.18" font-family="Helvetica,Arial,sans-serif" font-size="14.00">0/100000</text>
</g>
<!-- 2&#45;&gt;1 -->
<g id="edge33" class="edge">
<title>2&#45;&gt;1</title>
<path fill="none" stroke="black" d="M591.59,-496.28C586.78,-492.58 581.94,-487.87 579,-482.38 544.75,-418.55 592.1,-385.81 561,-320.38 545.49,-287.74 521.72,-293.88 504,-262.38 488.04,-234.01 511.22,-211.97 486,-191.38 480.84,-187.17 334.26,-178.79 279,-184.38 177.45,-194.66 123.23,-155.38 54,-230.38 19.84,-267.39 17.76,-423.11 18.43,-487.91"/>
<polygon fill="black" stroke="black" points="14.94,-488.25 18.57,-498.2 21.94,-488.15 14.94,-488.25"/>
<text text-anchor="middle" x="307.5" y="-188.18" font-family="Helvetica,Arial,sans-serif" font-size="14.00">0/100000</text>
</g>
<!-- 2&#45;&gt;0 -->
<g id="edge34" class="edge">
<title>2&#45;&gt;0</title>
<path fill="none" stroke="black" d="M595.33,-519.12C586.58,-529.45 573.78,-543.61 561,-554.38 472.71,-628.83 449.15,-661.25 336,-684.38 278.51,-696.14 261.3,-694.06 204,-681.38 197.2,-679.88 190.12,-677.41 183.64,-674.74"/>
<polygon fill="black" stroke="black" points="184.61,-671.35 174.05,-670.5 181.78,-677.75 184.61,-671.35"/>
<text text-anchor="middle" x="382.5" y="-683.18" font-family="Helvetica,Arial,sans-serif" font-size="14.00">0/100000</text>
</g>
<!-- 2&#45;&gt;4 -->
<g id="edge35" class="edge">
<title>2&#45;&gt;4</title>
<path fill="none" stroke="black" d="M592.1,-495.98C587.34,-492.24 582.4,-487.59 579,-482.38 563.31,-458.36 579.51,-442.31 561,-420.38 518.95,-370.56 486.22,-387.64 429,-356.38 420.77,-351.89 419.22,-349.9 411,-345.38 386.27,-331.79 378.28,-331.77 354,-317.38 346.29,-312.81 338.19,-307.35 330.99,-302.25"/>
<polygon fill="black" stroke="black" points="332.61,-299.1 322.46,-296.06 328.5,-304.76 332.61,-299.1"/>
<text text-anchor="middle" x="457.5" y="-381.18" font-family="Helvetica,Arial,sans-serif" font-size="14.00">0/100000</text>
</g>
<!-- 2&#45;&gt;5 -->
<g id="edge36" class="edge">
<title>2&#45;&gt;5</title>
<path fill="none" stroke="black" d="M621.65,-517.19C630.53,-524.96 642.66,-535.17 654,-543.38 730.6,-598.86 827.6,-655.6 871.92,-680.85"/>
<polygon fill="black" stroke="black" points="870.38,-683.99 880.8,-685.88 873.83,-677.9 870.38,-683.99"/>
<text text-anchor="middle" x="757.5" y="-632.18" font-family="Helvetica,Arial,sans-serif" font-size="14.00">0/100000</text>
</g>
<!-- 2&#45;&gt;3 -->
<g id="edge37" class="edge">
<title>2&#45;&gt;3</title>
<path fill="none" stroke="black" d="M624.96,-499.66C645.62,-493.4 681.89,-485.48 711,-495.38 720.22,-498.52 729.04,-504.36 736.41,-510.39"/>
<polygon fill="black" stroke="black" points="734.53,-513.4 744.34,-517.4 739.16,-508.15 734.53,-513.4"/>
<text text-anchor="middle" x="682.5" y="-499.18" font-family="Helvetica,Arial,sans-serif" font-size="14.00">0/100000</text>
</g>
<!-- 2&#45;&gt;6 -->
<g id="edge38" class="edge">
<title>2&#45;&gt;6</title>
<path fill="none" stroke="black" d="M589.57,-502.22C568.74,-499.08 532.63,-496.06 504,-506.38 494.29,-509.88 485.14,-516.41 477.63,-523.02"/>
<polygon fill="black" stroke="black" points="475.02,-520.67 470.17,-530.09 479.83,-525.75 475.02,-520.67"/>
<text text-anchor="middle" x="532.5" y="-510.18" font-family="Helvetica,Arial,sans-serif" font-size="14.00">0/100000</text>
</g>
<!-- 6&#45;&gt;1 -->
<g id="edge39" class="edge">
<title>6&#45;&gt;1</title>
<path fill="none" stroke="black" d="M439.96,-538.58C406.51,-529.16 328.32,-508.53 261,-501.38 183.08,-493.11 90.52,-504.8 45.81,-511.79"/>
<polygon fill="black" stroke="black" points="45.08,-508.37 35.77,-513.41 46.2,-515.28 45.08,-508.37"/>
<text text-anchor="middle" x="232.5" y="-505.18" font-family="Helvetica,Arial,sans-serif" font-size="14.00">0/100000</text>
</g>
<!-- 6&#45;&gt;0 -->
<g id="edge40" class="edge">
<title>6&#45;&gt;0</title>
<path fill="none" stroke="black" d="M440.4,-549.81C391.38,-569.39 243.68,-628.37 183.97,-652.21"/>
<polygon fill="black" stroke="black" points="182.51,-649.03 174.52,-655.98 185.11,-655.53 182.51,-649.03"/>
<text text-anchor="middle" x="307.5" y="-616.18" font-family="Helvetica,Arial,sans-serif" font-size="14.00">0/100000</text>
</g>
<!-- 6&#45;&gt;4 -->
<g id="edge41" class="edge">
<title>6&#45;&gt;4</title>
<path fill="none" stroke="black" d="M453.09,-525.73C444.59,-482.44 422.31,-373.6 411,-361.38 392.86,-341.79 375.9,-357.67 354,-342.38 341.63,-333.75 330.92,-320.8 323,-309.43"/>
<polygon fill="black" stroke="black" points="325.7,-307.17 317.27,-300.76 319.86,-311.03 325.7,-307.17"/>
<text text-anchor="middle" x="382.5" y="-365.18" font-family="Helvetica,Arial,sans-serif" font-size="14.00">0/100000</text>
</g>
<!-- 6&#45;&gt;5 -->
<g id="edge42" class="edge">
<title>6&#45;&gt;5</title>
<path fill="none" stroke="black" d="M466.51,-559.21C474.57,-574.11 488.07,-596.45 504,-612.38 560.47,-668.88 578.47,-685.38 654,-711.38 741.05,-741.36 773.32,-747.48 861,-719.38 865.9,-717.81 870.69,-715.28 875.09,-712.41"/>
<polygon fill="black" stroke="black" points="877.47,-715.01 883.45,-706.26 873.32,-709.37 877.47,-715.01"/>
<text text-anchor="middle" x="682.5" y="-732.18" font-family="Helvetica,Arial,sans-serif" font-size="14.00">0/100000</text>
</g>
<!-- 6&#45;&gt;3 -->
<g id="edge43" class="edge">
<title>6&#45;&gt;3</title>
<path fill="none" stroke="black" d="M475.18,-548.42C483.71,-550.74 494.32,-553.23 504,-554.38 559.49,-561 705.77,-544.31 711,-543.38 717.32,-542.26 724.02,-540.61 730.29,-538.86"/>
<polygon fill="black" stroke="black" points="731.67,-542.1 740.26,-535.9 729.68,-535.39 731.67,-542.1"/>
<text text-anchor="middle" x="607.5" y="-559.18" font-family="Helvetica,Arial,sans-serif" font-size="14.00">0/100000</text>
</g>
<!-- 6&#45;&gt;2 -->
<g id="edge44" class="edge">
<title>6&#45;&gt;2</title>
<path fill="none" stroke="black" d="M475.35,-540.44C495.79,-536.72 531.22,-529.78 561,-521.38 567.45,-519.56 574.32,-517.32 580.71,-515.09"/>
<polygon fill="black" stroke="black" points="582.01,-518.34 590.23,-511.67 579.64,-511.75 582.01,-518.34"/>
<text text-anchor="middle" x="532.5" y="-539.18" font-family="Helvetica,Arial,sans-serif" font-size="14.00">0/100000</text>
</g>
<!-- &#45;1 -->
<g id="node9" class="node">
<title>&#45;1</title>
<ellipse fill="none" stroke="black" cx="157.5" cy="-308.38" rx="18.7" ry="18.7"/>
<text text-anchor="middle" x="157.5" y="-304.68" font-family="Helvetica,Arial,sans-serif" font-size="14.00">&#45;1</text>
</g>
<!-- &#45;1&#45;&gt;4 -->
<g id="edge45" class="edge">
<title>&#45;1&#45;&gt;4</title>
<path fill="none" stroke="black" d="M174.94,-300.36C183.42,-296.62 194.04,-292.53 204,-290.38 229.06,-284.97 258.34,-284.06 279.17,-284.31"/>
<polygon fill="black" stroke="black" points="279.16,-287.81 289.23,-284.52 279.31,-280.81 279.16,-287.81"/>
<text text-anchor="middle" x="232.5" y="-294.18" font-family="Helvetica,Arial,sans-serif" font-size="14.00">0/2</text>
</g>
<!-- &#45;1&#45;&gt;5 -->
<g id="edge46" class="edge">
<title>&#45;1&#45;&gt;5</title>
<path fill="none" stroke="black" d="M172.83,-297.05C177.27,-293.24 182.03,-288.82 186,-284.38 195.37,-273.9 195.14,-269.29 204,-258.38 282.71,-161.54 317.06,-145.56 429,-90.38 601.22,-5.48 734.13,58.74 861,-85.38 899.73,-129.37 897.65,-552.62 896.38,-666.36"/>
<polygon fill="black" stroke="black" points="892.88,-666.34 896.26,-676.38 899.88,-666.42 892.88,-666.34"/>
<text text-anchor="middle" x="532.5" y="-58.18" font-family="Helvetica,Arial,sans-serif" font-size="14.00">0/12</text>
</g>
<!-- &#45;1&#45;&gt;3 -->
<g id="edge47" class="edge">
<title>&#45;1&#45;&gt;3</title>
<path fill="none" stroke="black" d="M173.6,-298.19C182.23,-292.68 193.42,-286.07 204,-281.38 235.88,-267.28 244.52,-263.55 279,-258.38 437.51,-234.62 486.26,-252.23 636,-309.38 670.19,-322.43 687.65,-315.2 711,-343.38 749.08,-389.34 756.17,-462.2 756.98,-502.05"/>
<polygon fill="black" stroke="black" points="753.48,-502.16 757.06,-512.14 760.48,-502.11 753.48,-502.16"/>
<text text-anchor="middle" x="457.5" y="-263.18" font-family="Helvetica,Arial,sans-serif" font-size="14.00">0/32</text>
</g>
<!-- &#45;1&#45;&gt;2 -->
<g id="edge48" class="edge">
<title>&#45;1&#45;&gt;2</title>
<path fill="none" stroke="black" d="M176.4,-307.06C211.93,-305.48 291.76,-307.3 336,-350.38 358.4,-372.19 331.16,-397.04 354,-418.38 388.23,-450.37 521.28,-433.53 561,-458.38 572.3,-465.45 569.83,-472.71 579,-482.38 580.84,-484.32 582.83,-486.25 584.87,-488.13"/>
<polygon fill="black" stroke="black" points="582.94,-491.09 592.8,-494.97 587.52,-485.79 582.94,-491.09"/>
<text text-anchor="middle" x="382.5" y="-441.18" font-family="Helvetica,Arial,sans-serif" font-size="14.00">0/17</text>
</g>
<!-- &#45;1&#45;&gt;6 -->
<g id="edge49" class="edge">
<title>&#45;1&#45;&gt;6</title>
<path fill="none" stroke="black" d="M174.89,-316.39C183.54,-320.6 194.32,-325.81 204,-330.38 262.43,-358.01 294.45,-341.88 336,-391.38 356.1,-415.33 337.09,-433.09 354,-459.38 359.47,-467.89 405.77,-504.33 434.24,-526.32"/>
<polygon fill="black" stroke="black" points="432.38,-529.31 442.44,-532.64 436.65,-523.76 432.38,-529.31"/>
<text text-anchor="middle" x="307.5" y="-395.18" font-family="Helvetica,Arial,sans-serif" font-size="14.00">0/22</text>
</g>
</g>
</svg>
