<?xml version="1.0" encoding="UTF-8" standalone="no"?>
<!DOCTYPE svg PUBLIC "-//W3C//DTD SVG 1.1//EN"
 "http://www.w3.org/Graphics/SVG/1.1/DTD/svg11.dtd">
<!-- Generated by graphviz version 2.43.0 (0)
 -->
<!-- Title: G Pages: 1 -->
<svg width="958pt" height="1045pt"
 viewBox="0.00 0.00 958.00 1045.38" xmlns="http://www.w3.org/2000/svg" xmlns:xlink="http://www.w3.org/1999/xlink">
<g id="graph0" class="graph" transform="scale(1 1) rotate(0) translate(4 1041.38)">
<title>G</title>
<polygon fill="white" stroke="transparent" points="-4,4 -4,-1041.38 954,-1041.38 954,4 -4,4"/>
<!-- 1 -->
<g id="node1" class="node">
<title>1</title>
<ellipse fill="none" stroke="black" cx="18" cy="-516.38" rx="18" ry="18"/>
<text text-anchor="middle" x="18" y="-512.68" font-family="Helvetica,Arial,sans-serif" font-size="14.00">1</text>
</g>
<!-- 0 -->
<g id="node2" class="node">
<title>0</title>
<ellipse fill="none" stroke="black" cx="164.5" cy="-662.38" rx="18" ry="18"/>
<text text-anchor="middle" x="164.5" y="-658.68" font-family="Helvetica,Arial,sans-serif" font-size="14.00">0</text>
</g>
<!-- 1&#45;&gt;0 -->
<g id="edge1" class="edge">
<title>1&#45;&gt;0</title>
<path fill="none" stroke="black" d="M20.25,-534.59C22.8,-557.9 30.53,-598.17 54,-622.38 75.84,-644.92 111.39,-654.83 136.04,-659.14"/>
<polygon fill="black" stroke="black" points="135.76,-662.64 146.18,-660.71 136.83,-655.72 135.76,-662.64"/>
<text text-anchor="middle" x="86" y="-658.18" font-family="Helvetica,Arial,sans-serif" font-size="14.00">18/100000</text>
</g>
<!-- 4 -->
<g id="node3" class="node">
<title>4</title>
<ellipse fill="none" stroke="black" cx="325" cy="-285.38" rx="18" ry="18"/>
<text text-anchor="middle" x="325" y="-281.68" font-family="Helvetica,Arial,sans-serif" font-size="14.00">4</text>
</g>
<!-- 1&#45;&gt;4 -->
<g id="edge2" class="edge">
<title>1&#45;&gt;4</title>
<path fill="none" stroke="black" d="M19.88,-498.46C22.02,-467.6 29.33,-403.17 54,-355.38 78.82,-307.3 86.5,-287.25 136,-265.38 190.07,-241.5 261.09,-261.11 298.46,-274.85"/>
<polygon fill="black" stroke="black" points="297.48,-278.22 308.07,-278.52 299.98,-271.68 297.48,-278.22"/>
<text text-anchor="middle" x="164.5" y="-269.18" font-family="Helvetica,Arial,sans-serif" font-size="14.00">0/100000</text>
</g>
<!-- 5 -->
<g id="node4" class="node">
<title>5</title>
<ellipse fill="none" stroke="black" cx="932" cy="-694.38" rx="18" ry="18"/>
<text text-anchor="middle" x="932" y="-690.68" font-family="Helvetica,Arial,sans-serif" font-size="14.00">5</text>
</g>
<!-- 1&#45;&gt;5 -->
<g id="edge3" class="edge">
<title>1&#45;&gt;5</title>
<path fill="none" stroke="black" d="M19.19,-534.57C20.18,-616.53 25.94,-949.21 54,-985.38 85.48,-1025.98 112.13,-1022.38 163.5,-1022.38 163.5,-1022.38 163.5,-1022.38 793.5,-1022.38 841.93,-1022.38 865.85,-1023.29 896,-985.38 927.89,-945.3 931.27,-788.25 931.26,-723.02"/>
<polygon fill="black" stroke="black" points="934.76,-722.66 931.23,-712.67 927.76,-722.68 934.76,-722.66"/>
<text text-anchor="middle" x="489" y="-1026.18" font-family="Helvetica,Arial,sans-serif" font-size="14.00">0/100000</text>
</g>
<!-- 3 -->
<g id="node5" class="node">
<title>3</title>
<ellipse fill="none" stroke="black" cx="792.5" cy="-530.38" rx="18" ry="18"/>
<text text-anchor="middle" x="792.5" y="-526.68" font-family="Helvetica,Arial,sans-serif" font-size="14.00">3</text>
</g>
<!-- 1&#45;&gt;3 -->
<g id="edge4" class="edge">
<title>1&#45;&gt;3</title>
<path fill="none" stroke="black" d="M19.7,-498.06C22.26,-436.32 32.08,-236.45 54,-176.38 83.67,-95.09 76.96,-15.38 163.5,-15.38 163.5,-15.38 163.5,-15.38 408,-15.38 457.85,-15.38 720.86,-267.34 746,-310.38 781.99,-372.02 789.78,-457.95 791.29,-501.95"/>
<polygon fill="black" stroke="black" points="787.8,-502.29 791.55,-512.19 794.8,-502.11 787.8,-502.29"/>
<text text-anchor="middle" x="407" y="-19.18" font-family="Helvetica,Arial,sans-serif" font-size="14.00">0/100000</text>
</g>
<!-- 2 -->
<g id="node6" class="node">
<title>2</title>
<ellipse fill="none" stroke="black" cx="642.5" cy="-505.38" rx="18" ry="18"/>
<text text-anchor="middle" x="642.5" y="-501.68" font-family="Helvetica,Arial,sans-serif" font-size="14.00">2</text>
</g>
<!-- 1&#45;&gt;2 -->
<g id="edge5" class="edge">
<title>1&#45;&gt;2</title>
<path fill="none" stroke="black" d="M31.43,-503.55C59.95,-475.15 133.59,-407.58 211,-383.38 238.15,-374.9 249.43,-370.93 275,-383.38 286.67,-389.07 283.3,-397.76 293,-406.38 324.89,-434.76 335.1,-441.22 375,-456.38 468.3,-491.86 497.93,-477.81 596,-496.38 602.08,-497.54 608.61,-498.81 614.78,-500.02"/>
<polygon fill="black" stroke="black" points="614.17,-503.47 624.66,-501.99 615.53,-496.6 614.17,-503.47"/>
<text text-anchor="middle" x="325" y="-453.18" font-family="Helvetica,Arial,sans-serif" font-size="14.00">0/100000</text>
</g>
<!-- 6 -->
<g id="node7" class="node">
<title>6</title>
<ellipse fill="none" stroke="black" cx="489" cy="-543.38" rx="18" ry="18"/>
<text text-anchor="middle" x="489" y="-539.68" font-family="Helvetica,Arial,sans-serif" font-size="14.00">6</text>
</g>
<!-- 1&#45;&gt;6 -->
<g id="edge6" class="edge">
<title>1&#45;&gt;6</title>
<path fill="none" stroke="black" d="M36.29,-516.21C86.17,-515.87 234.61,-516.06 357,-528.38 365.07,-529.2 366.96,-530.29 375,-531.38 404.19,-535.36 437.78,-538.78 460.7,-540.94"/>
<polygon fill="black" stroke="black" points="460.45,-544.44 470.73,-541.87 461.1,-537.46 460.45,-544.44"/>
<text text-anchor="middle" x="243" y="-526.18" font-family="Helvetica,Arial,sans-serif" font-size="14.00">0/100000</text>
</g>
<!-- &#45;2 -->
<g id="node8" class="node">
<title>&#45;2</title>
<ellipse fill="none" stroke="black" cx="325" cy="-556.38" rx="18.7" ry="18.7"/>
<text text-anchor="middle" x="325" y="-552.68" font-family="Helvetica,Arial,sans-serif" font-size="14.00">&#45;2</text>
</g>
<!-- 1&#45;&gt;&#45;2 -->
<g id="edge7" class="edge">
<title>1&#45;&gt;&#45;2</title>
<path fill="none" stroke="black" d="M34.72,-523.78C40.64,-526.27 47.51,-528.81 54,-530.38 140.36,-551.36 246.13,-555.54 295.76,-556.29"/>
<polygon fill="black" stroke="black" points="295.98,-559.79 306.02,-556.4 296.06,-552.79 295.98,-559.79"/>
<text text-anchor="middle" x="164.5" y="-555.18" font-family="Helvetica,Arial,sans-serif" font-size="14.00">67/68</text>
</g>
<!-- 0&#45;&gt;1 -->
<g id="edge8" class="edge">
<title>0&#45;&gt;1</title>
<path fill="none" stroke="black" d="M154.78,-647.03C146.69,-633.94 133.57,-615.39 118,-603.38 93.55,-584.54 77.19,-596.76 54,-576.38 43.53,-567.18 35.37,-554.05 29.58,-542.42"/>
<polygon fill="black" stroke="black" points="32.65,-540.72 25.27,-533.12 26.3,-543.66 32.65,-540.72"/>
<text text-anchor="middle" x="86" y="-607.18" font-family="Helvetica,Arial,sans-serif" font-size="14.00">0/100000</text>
</g>
<!-- 0&#45;&gt;4 -->
<g id="edge9" class="edge">
<title>0&#45;&gt;4</title>
<path fill="none" stroke="black" d="M172.18,-645.91C178.47,-629.74 187.71,-604.24 193,-581.38 200.08,-550.83 191.35,-465.84 211,-441.38 229.93,-417.82 254.35,-440.46 275,-418.38 294.89,-397.12 283.08,-382.76 293,-355.38 298.48,-340.25 305.72,-323.76 311.82,-310.6"/>
<polygon fill="black" stroke="black" points="315.13,-311.79 316.22,-301.25 308.79,-308.81 315.13,-311.79"/>
<text text-anchor="middle" x="243" y="-445.18" font-family="Helvetica,Arial,sans-serif" font-size="14.00">0/100000</text>
</g>
<!-- 0&#45;&gt;5 -->
<g id="edge10" class="edge">
<title>0&#45;&gt;5</title>
<path fill="none" stroke="black" d="M168.27,-680.22C175.89,-728.24 197.48,-857.6 211,-871.38 322.92,-985.46 406.69,-925.38 566.5,-925.38 566.5,-925.38 566.5,-925.38 793.5,-925.38 840.29,-925.38 863.97,-935.49 896,-901.38 919.83,-876.02 927.58,-773.29 929.99,-722.75"/>
<polygon fill="black" stroke="black" points="933.49,-722.66 930.43,-712.52 926.5,-722.35 933.49,-722.66"/>
<text text-anchor="middle" x="567.5" y="-929.18" font-family="Helvetica,Arial,sans-serif" font-size="14.00">0/100000</text>
</g>
<!-- 0&#45;&gt;3 -->
<g id="edge11" class="edge">
<title>0&#45;&gt;3</title>
<path fill="none" stroke="black" d="M165.54,-680.38C166.71,-710.11 173.87,-768.85 211,-795.38 280.81,-845.29 533.43,-824.11 596,-765.38 622.57,-740.44 589.92,-712.74 614,-685.38 655.24,-638.52 701.49,-681.15 746,-637.38 761.95,-621.7 755.34,-611.01 764,-590.38 768.86,-578.82 774.59,-566.17 779.56,-555.48"/>
<polygon fill="black" stroke="black" points="782.79,-556.84 783.87,-546.3 776.45,-553.87 782.79,-556.84"/>
<text text-anchor="middle" x="489" y="-818.18" font-family="Helvetica,Arial,sans-serif" font-size="14.00">0/100000</text>
</g>
<!-- 0&#45;&gt;2 -->
<g id="edge12" class="edge">
<title>0&#45;&gt;2</title>
<path fill="none" stroke="black" d="M173.05,-678.29C180.53,-692.02 193.43,-710.93 211,-719.38 302.31,-763.33 338.24,-730.17 439,-719.38 509.99,-711.79 547.69,-737.96 596,-685.38 617.07,-662.45 603.03,-575.54 614,-546.38 616.51,-539.7 620.3,-533.03 624.27,-527.06"/>
<polygon fill="black" stroke="black" points="627.13,-529.08 630.09,-518.91 621.43,-525.02 627.13,-529.08"/>
<text text-anchor="middle" x="407" y="-733.18" font-family="Helvetica,Arial,sans-serif" font-size="14.00">0/100000</text>
</g>
<!-- 0&#45;&gt;6 -->
<g id="edge13" class="edge">
<title>0&#45;&gt;6</title>
<path fill="none" stroke="black" d="M182.63,-664.84C228.49,-670.49 356.22,-680.01 439,-625.38 458.71,-612.38 471.66,-588.47 479.26,-569.81"/>
<polygon fill="black" stroke="black" points="482.58,-570.94 482.85,-560.35 476.03,-568.46 482.58,-570.94"/>
<text text-anchor="middle" x="325" y="-671.18" font-family="Helvetica,Arial,sans-serif" font-size="14.00">0/100000</text>
</g>
<!-- 0&#45;&gt;&#45;2 -->
<g id="edge14" class="edge">
<title>0&#45;&gt;&#45;2</title>
<path fill="none" stroke="black" d="M172.34,-646.14C179.71,-630.49 192.87,-607.23 211,-593.38 217.96,-588.07 265.41,-573.52 296.56,-564.33"/>
<polygon fill="black" stroke="black" points="297.81,-567.62 306.42,-561.44 295.84,-560.9 297.81,-567.62"/>
<text text-anchor="middle" x="243" y="-597.18" font-family="Helvetica,Arial,sans-serif" font-size="14.00">18/18</text>
</g>
<!-- 4&#45;&gt;1 -->
<g id="edge15" class="edge">
<title>4&#45;&gt;1</title>
<path fill="none" stroke="black" d="M310.76,-273.92C301.37,-266.39 288.16,-256.94 275,-251.38 184.15,-213.01 113.65,-192.84 54,-271.38 28.49,-304.98 21.52,-431.16 19.66,-488.15"/>
<polygon fill="black" stroke="black" points="16.16,-488.16 19.36,-498.26 23.16,-488.37 16.16,-488.16"/>
<text text-anchor="middle" x="164.5" y="-226.18" font-family="Helvetica,Arial,sans-serif" font-size="14.00">2/100000</text>
</g>
<!-- 4&#45;&gt;0 -->
<g id="edge16" class="edge">
<title>4&#45;&gt;0</title>
<path fill="none" stroke="black" d="M309.44,-294.93C284.33,-312.3 233.42,-351.73 211,-399.38 176.39,-472.93 210.18,-501.94 193,-581.38 188.93,-600.2 181.93,-620.72 176.02,-636.41"/>
<polygon fill="black" stroke="black" points="172.67,-635.36 172.32,-645.94 179.2,-637.88 172.67,-635.36"/>
<text text-anchor="middle" x="243" y="-403.18" font-family="Helvetica,Arial,sans-serif" font-size="14.00">0/100000</text>
</g>
<!-- 4&#45;&gt;5 -->
<g id="edge17" class="edge">
<title>4&#45;&gt;5</title>
<path fill="none" stroke="black" d="M333.13,-269.04C349.36,-234.02 392.71,-151.96 457,-115.38 541.8,-67.14 828.45,-47.99 896,-118.38 934.22,-158.22 932.57,-556.44 931.37,-666.39"/>
<polygon fill="black" stroke="black" points="927.88,-666.35 931.26,-676.39 934.87,-666.43 927.88,-666.35"/>
<text text-anchor="middle" x="642.5" y="-81.18" font-family="Helvetica,Arial,sans-serif" font-size="14.00">0/100000</text>
</g>
<!-- 4&#45;&gt;3 -->
<g id="edge18" class="edge">
<title>4&#45;&gt;3</title>
<path fill="none" stroke="black" d="M343.19,-285.14C378.11,-285.25 459.29,-288.52 521,-314.38 630.28,-360.19 662.59,-373.23 746,-457.38 759.71,-471.22 771.26,-489.9 779.3,-504.91"/>
<polygon fill="black" stroke="black" points="776.36,-506.86 784.05,-514.15 782.59,-503.66 776.36,-506.86"/>
<text text-anchor="middle" x="567.5" y="-350.18" font-family="Helvetica,Arial,sans-serif" font-size="14.00">0/100000</text>
</g>
<!-- 4&#45;&gt;2 -->
<g id="edge19" class="edge">
<title>4&#45;&gt;2</title>
<path fill="none" stroke="black" d="M342.68,-288.91C396.22,-300.55 562.15,-339.38 596,-380.38 625.31,-415.88 590.95,-442.54 614,-482.38 615.46,-484.91 617.31,-487.28 619.35,-489.47"/>
<polygon fill="black" stroke="black" points="617.01,-492.07 626.78,-496.17 621.7,-486.88 617.01,-492.07"/>
<text text-anchor="middle" x="489" y="-342.18" font-family="Helvetica,Arial,sans-serif" font-size="14.00">0/100000</text>
</g>
<!-- 4&#45;&gt;6 -->
<g id="edge20" class="edge">
<title>4&#45;&gt;6</title>
<path fill="none" stroke="black" d="M332.73,-301.82C342.89,-325.93 362.3,-369.25 375,-380.38 397.73,-400.31 417.72,-381.92 439,-403.38 469.17,-433.81 480.82,-483.82 485.28,-515.11"/>
<polygon fill="black" stroke="black" points="481.85,-515.85 486.58,-525.33 488.79,-514.97 481.85,-515.85"/>
<text text-anchor="middle" x="407" y="-407.18" font-family="Helvetica,Arial,sans-serif" font-size="14.00">0/100000</text>
</g>
<!-- 5&#45;&gt;1 -->
<g id="edge21" class="edge">
<title>5&#45;&gt;1</title>
<path fill="none" stroke="black" d="M930.51,-712.33C928.85,-760.94 921.99,-893.7 896,-927.38 865.71,-966.63 843.08,-971.38 793.5,-971.38 163.5,-971.38 163.5,-971.38 163.5,-971.38 73.43,-971.38 32.14,-643.4 21.73,-544.36"/>
<polygon fill="black" stroke="black" points="25.19,-543.81 20.69,-534.22 18.23,-544.53 25.19,-543.81"/>
<text text-anchor="middle" x="489" y="-975.18" font-family="Helvetica,Arial,sans-serif" font-size="14.00">12/100000</text>
</g>
<!-- 5&#45;&gt;0 -->
<g id="edge22" class="edge">
<title>5&#45;&gt;0</title>
<path fill="none" stroke="black" d="M927.41,-711.85C916.54,-759.36 879.28,-887.38 793.5,-887.38 566.5,-887.38 566.5,-887.38 566.5,-887.38 486.11,-887.38 270.46,-874.49 211,-820.38 174.36,-787.04 166.49,-726.29 165.22,-690.62"/>
<polygon fill="black" stroke="black" points="168.71,-690.34 165.01,-680.41 161.71,-690.48 168.71,-690.34"/>
<text text-anchor="middle" x="567.5" y="-891.18" font-family="Helvetica,Arial,sans-serif" font-size="14.00">0/100000</text>
</g>
<!-- 5&#45;&gt;4 -->
<g id="edge23" class="edge">
<title>5&#45;&gt;4</title>
<path fill="none" stroke="black" d="M931.65,-676.36C933.39,-597.56 928.5,-281.86 746,-161.38 611.5,-72.59 411.76,-215.87 347.05,-267.77"/>
<polygon fill="black" stroke="black" points="344.72,-265.16 339.17,-274.18 349.14,-270.59 344.72,-265.16"/>
<text text-anchor="middle" x="642.5" y="-139.18" font-family="Helvetica,Arial,sans-serif" font-size="14.00">0/100000</text>
</g>
<!-- 5&#45;&gt;3 -->
<g id="edge24" class="edge">
<title>5&#45;&gt;3</title>
<path fill="none" stroke="black" d="M930.83,-676.24C929.61,-649.52 923.51,-599.5 896,-569.38 893.27,-566.4 848.99,-550.19 819.53,-539.63"/>
<polygon fill="black" stroke="black" points="820.41,-536.23 809.82,-536.16 818.06,-542.82 820.41,-536.23"/>
<text text-anchor="middle" x="867.5" y="-573.18" font-family="Helvetica,Arial,sans-serif" font-size="14.00">0/100000</text>
</g>
<!-- 5&#45;&gt;2 -->
<g id="edge25" class="edge">
<title>5&#45;&gt;2</title>
<path fill="none" stroke="black" d="M913.76,-693.82C869.59,-691.41 751.48,-678.76 689,-612.38 668.16,-590.25 683.63,-574.04 671,-546.38 668.1,-540.04 664.27,-533.59 660.38,-527.73"/>
<polygon fill="black" stroke="black" points="662.97,-525.32 654.37,-519.13 657.23,-529.34 662.97,-525.32"/>
<text text-anchor="middle" x="792.5" y="-683.18" font-family="Helvetica,Arial,sans-serif" font-size="14.00">0/100000</text>
</g>
<!-- 5&#45;&gt;6 -->
<g id="edge26" class="edge">
<title>5&#45;&gt;6</title>
<path fill="none" stroke="black" d="M914.4,-698.98C908.62,-700.37 902.07,-701.7 896,-702.38 837.68,-708.97 820.34,-714.83 764,-698.38 661.45,-668.45 555.76,-593.86 511.51,-560.26"/>
<polygon fill="black" stroke="black" points="513.57,-557.43 503.5,-554.11 509.3,-562.98 513.57,-557.43"/>
<text text-anchor="middle" x="717.5" y="-696.18" font-family="Helvetica,Arial,sans-serif" font-size="14.00">0/100000</text>
</g>
<!-- 3&#45;&gt;1 -->
<g id="edge27" class="edge">
<title>3&#45;&gt;1</title>
<path fill="none" stroke="black" d="M783.33,-546.1C777.37,-558.01 769.42,-574.92 764,-590.38 753.08,-621.51 766.19,-636.3 746,-662.38 728.35,-685.19 711.78,-675.71 689,-693.38 641.05,-730.59 644.1,-756.37 596,-793.38 457.63,-899.85 368.19,-947.35 211,-871.38 109.88,-822.52 102.33,-774.76 54,-673.38 33.92,-631.26 25.14,-577.23 21.46,-544.79"/>
<polygon fill="black" stroke="black" points="24.93,-544.25 20.41,-534.66 17.97,-544.97 24.93,-544.25"/>
<text text-anchor="middle" x="407" y="-910.18" font-family="Helvetica,Arial,sans-serif" font-size="14.00">32/100000</text>
</g>
<!-- 3&#45;&gt;0 -->
<g id="edge28" class="edge">
<title>3&#45;&gt;0</title>
<path fill="none" stroke="black" d="M776.92,-539.95C736.55,-566.52 625.55,-640.37 614,-656.38 597.96,-678.62 616.08,-696.72 596,-715.38 533.16,-773.78 282.84,-790.26 211,-743.38 191.97,-730.97 180.1,-707.68 173.28,-689.25"/>
<polygon fill="black" stroke="black" points="176.53,-687.95 169.99,-679.61 169.91,-690.2 176.53,-687.95"/>
<text text-anchor="middle" x="489" y="-766.18" font-family="Helvetica,Arial,sans-serif" font-size="14.00">0/100000</text>
</g>
<!-- 3&#45;&gt;4 -->
<g id="edge29" class="edge">
<title>3&#45;&gt;4</title>
<path fill="none" stroke="black" d="M788.91,-512.36C784.3,-485.68 772.54,-435.19 746,-401.38 696.97,-338.94 670.19,-332.65 596,-304.38 512.13,-272.43 403.13,-277.58 353.17,-282.26"/>
<polygon fill="black" stroke="black" points="352.76,-278.78 343.16,-283.26 353.46,-285.74 352.76,-278.78"/>
<text text-anchor="middle" x="567.5" y="-308.18" font-family="Helvetica,Arial,sans-serif" font-size="14.00">0/100000</text>
</g>
<!-- 3&#45;&gt;5 -->
<g id="edge30" class="edge">
<title>3&#45;&gt;5</title>
<path fill="none" stroke="black" d="M809.77,-524.26C831.9,-517.09 871.53,-508.54 896,-528.38 917.03,-545.45 925.91,-623.67 929.24,-666.37"/>
<polygon fill="black" stroke="black" points="925.75,-666.68 929.97,-676.4 932.74,-666.17 925.75,-666.68"/>
<text text-anchor="middle" x="867.5" y="-532.18" font-family="Helvetica,Arial,sans-serif" font-size="14.00">0/100000</text>
</g>
<!-- 3&#45;&gt;2 -->
<g id="edge31" class="edge">
<title>3&#45;&gt;2</title>
<path fill="none" stroke="black" d="M774.42,-527.93C754.04,-524.96 718.97,-519.69 689,-514.38 682.9,-513.31 676.37,-512.06 670.2,-510.85"/>
<polygon fill="black" stroke="black" points="670.82,-507.41 660.32,-508.88 669.44,-514.27 670.82,-507.41"/>
<text text-anchor="middle" x="717.5" y="-528.18" font-family="Helvetica,Arial,sans-serif" font-size="14.00">0/100000</text>
</g>
<!-- 3&#45;&gt;6 -->
<g id="edge32" class="edge">
<title>3&#45;&gt;6</title>
<path fill="none" stroke="black" d="M780.37,-517.07C771.84,-507.6 759.29,-495.23 746,-487.38 694.66,-457.06 672.35,-451.11 614,-463.38 578.36,-470.88 569.27,-476.14 539,-496.38 527.94,-503.78 517.1,-513.8 508.44,-522.69"/>
<polygon fill="black" stroke="black" points="505.76,-520.43 501.44,-530.11 510.85,-525.23 505.76,-520.43"/>
<text text-anchor="middle" x="642.5" y="-467.18" font-family="Helvetica,Arial,sans-serif" font-size="14.00">0/100000</text>
</g>
<!-- 2&#45;&gt;1 -->
<g id="edge33" class="edge">
<title>2&#45;&gt;1</title>
<path fill="none" stroke="black" d="M626.59,-496.28C621.78,-492.58 616.94,-487.87 614,-482.38 579.56,-418.15 627.55,-385.09 596,-319.38 580.49,-287.09 556.7,-293.53 539,-262.38 522.91,-234.08 546.26,-211.92 521,-191.38 519.84,-190.44 354.5,-179.91 293,-184.38 185.93,-192.18 128.84,-142.41 54,-219.38 35.45,-238.47 24.16,-417.49 20.4,-488.02"/>
<polygon fill="black" stroke="black" points="16.89,-488.2 19.86,-498.37 23.88,-488.57 16.89,-488.2"/>
<text text-anchor="middle" x="325" y="-188.18" font-family="Helvetica,Arial,sans-serif" font-size="14.00">17/100000</text>
</g>
<!-- 2&#45;&gt;0 -->
<g id="edge34" class="edge">
<title>2&#45;&gt;0</title>
<path fill="none" stroke="black" d="M630.32,-518.87C621.56,-528.99 608.76,-542.86 596,-553.38 502.22,-630.73 476.34,-663.27 357,-686.38 293.27,-698.73 274.18,-697.27 211,-682.38 203.89,-680.71 196.51,-677.95 189.81,-675.02"/>
<polygon fill="black" stroke="black" points="191.14,-671.77 180.6,-670.69 188.16,-678.11 191.14,-671.77"/>
<text text-anchor="middle" x="407" y="-686.18" font-family="Helvetica,Arial,sans-serif" font-size="14.00">0/100000</text>
</g>
<!-- 2&#45;&gt;4 -->
<g id="edge35" class="edge">
<title>2&#45;&gt;4</title>
<path fill="none" stroke="black" d="M627.1,-495.98C622.34,-492.25 617.4,-487.6 614,-482.38 598.31,-458.36 614.79,-442.07 596,-420.38 551.59,-369.12 516.3,-390.3 457,-357.38 448.59,-352.72 447.44,-350 439,-345.38 411.76,-330.49 402.31,-332.15 375,-317.38 366.07,-312.56 356.65,-306.63 348.48,-301.19"/>
<polygon fill="black" stroke="black" points="350.43,-298.28 340.19,-295.56 346.5,-304.07 350.43,-298.28"/>
<text text-anchor="middle" x="489" y="-383.18" font-family="Helvetica,Arial,sans-serif" font-size="14.00">0/100000</text>
</g>
<!-- 2&#45;&gt;5 -->
<g id="edge36" class="edge">
<title>2&#45;&gt;5</title>
<path fill="none" stroke="black" d="M656.65,-517.19C665.53,-524.96 677.66,-535.17 689,-543.38 765.6,-598.86 862.6,-655.61 906.92,-680.85"/>
<polygon fill="black" stroke="black" points="905.38,-684 915.8,-685.88 908.83,-677.91 905.38,-684"/>
<text text-anchor="middle" x="792.5" y="-632.18" font-family="Helvetica,Arial,sans-serif" font-size="14.00">0/100000</text>
</g>
<!-- 2&#45;&gt;3 -->
<g id="edge37" class="edge">
<title>2&#45;&gt;3</title>
<path fill="none" stroke="black" d="M659.96,-499.66C680.62,-493.4 716.89,-485.48 746,-495.38 755.22,-498.52 764.04,-504.37 771.41,-510.39"/>
<polygon fill="black" stroke="black" points="769.53,-513.4 779.34,-517.4 774.16,-508.16 769.53,-513.4"/>
<text text-anchor="middle" x="717.5" y="-499.18" font-family="Helvetica,Arial,sans-serif" font-size="14.00">0/100000</text>
</g>
<!-- 2&#45;&gt;6 -->
<g id="edge38" class="edge">
<title>2&#45;&gt;6</title>
<path fill="none" stroke="black" d="M624.63,-502.4C603.86,-499.42 567.81,-496.57 539,-506.38 528.25,-510.04 517.97,-517.06 509.62,-524.01"/>
<polygon fill="black" stroke="black" points="507.12,-521.55 501.97,-530.81 511.77,-526.78 507.12,-521.55"/>
<text text-anchor="middle" x="567.5" y="-510.18" font-family="Helvetica,Arial,sans-serif" font-size="14.00">0/100000</text>
</g>
<!-- 6&#45;&gt;1 -->
<g id="edge39" class="edge">
<title>6&#45;&gt;1</title>
<path fill="none" stroke="black" d="M471.33,-538.83C435.66,-529.36 349.14,-507.79 275,-500.38 246.7,-497.56 239.42,-499.3 211,-500.38 141.07,-503.05 123.67,-505.74 54,-512.38 51.44,-512.63 48.78,-512.9 46.12,-513.18"/>
<polygon fill="black" stroke="black" points="45.63,-509.72 36.08,-514.3 46.4,-516.67 45.63,-509.72"/>
<text text-anchor="middle" x="243" y="-504.18" font-family="Helvetica,Arial,sans-serif" font-size="14.00">22/100000</text>
</g>
<!-- 6&#45;&gt;0 -->
<g id="edge40" class="edge">
<title>6&#45;&gt;0</title>
<path fill="none" stroke="black" d="M471.98,-549.3C420.05,-568.46 256,-628.99 191.71,-652.71"/>
<polygon fill="black" stroke="black" points="190.11,-649.57 181.94,-656.32 192.53,-656.14 190.11,-649.57"/>
<text text-anchor="middle" x="325" y="-618.18" font-family="Helvetica,Arial,sans-serif" font-size="14.00">0/100000</text>
</g>
<!-- 6&#45;&gt;4 -->
<g id="edge41" class="edge">
<title>6&#45;&gt;4</title>
<path fill="none" stroke="black" d="M484.27,-525.71C474.97,-482.34 450.68,-373.36 439,-361.38 418.29,-340.14 399.91,-358.51 375,-342.38 361.65,-333.74 349.9,-320.4 341.25,-308.8"/>
<polygon fill="black" stroke="black" points="343.92,-306.5 335.27,-300.37 338.21,-310.55 343.92,-306.5"/>
<text text-anchor="middle" x="407" y="-365.18" font-family="Helvetica,Arial,sans-serif" font-size="14.00">0/100000</text>
</g>
<!-- 6&#45;&gt;5 -->
<g id="edge42" class="edge">
<title>6&#45;&gt;5</title>
<path fill="none" stroke="black" d="M498.71,-558.89C507.55,-573.75 522.31,-596.25 539,-612.38 596.44,-667.89 613.47,-685.38 689,-711.38 776.05,-741.36 808.32,-747.48 896,-719.38 900.9,-717.81 905.69,-715.28 910.09,-712.41"/>
<polygon fill="black" stroke="black" points="912.47,-715.01 918.45,-706.27 908.32,-709.37 912.47,-715.01"/>
<text text-anchor="middle" x="717.5" y="-732.18" font-family="Helvetica,Arial,sans-serif" font-size="14.00">0/100000</text>
</g>
<!-- 6&#45;&gt;3 -->
<g id="edge43" class="edge">
<title>6&#45;&gt;3</title>
<path fill="none" stroke="black" d="M506.65,-547.65C516.08,-549.85 528.12,-552.29 539,-553.38 596.02,-559.14 745.01,-543.56 746,-543.38 752.33,-542.28 759.03,-540.64 765.29,-538.89"/>
<polygon fill="black" stroke="black" points="766.68,-542.13 775.27,-535.93 764.68,-535.42 766.68,-542.13"/>
<text text-anchor="middle" x="642.5" y="-558.18" font-family="Helvetica,Arial,sans-serif" font-size="14.00">0/100000</text>
</g>
<!-- 6&#45;&gt;2 -->
<g id="edge44" class="edge">
<title>6&#45;&gt;2</title>
<path fill="none" stroke="black" d="M507.06,-540.57C528.14,-536.92 565.04,-530 596,-521.38 602.46,-519.59 609.33,-517.35 615.72,-515.12"/>
<polygon fill="black" stroke="black" points="617.02,-518.37 625.24,-511.7 614.65,-511.79 617.02,-518.37"/>
<text text-anchor="middle" x="567.5" y="-538.18" font-family="Helvetica,Arial,sans-serif" font-size="14.00">0/100000</text>
</g>
<!-- &#45;1 -->
<g id="node9" class="node">
<title>&#45;1</title>
<ellipse fill="none" stroke="black" cx="164.5" cy="-308.38" rx="18.7" ry="18.7"/>
<text text-anchor="middle" x="164.5" y="-304.68" font-family="Helvetica,Arial,sans-serif" font-size="14.00">&#45;1</text>
</g>
<!-- &#45;1&#45;&gt;4 -->
<g id="edge45" class="edge">
<title>&#45;1&#45;&gt;4</title>
<path fill="none" stroke="black" d="M181.94,-300.34C190.41,-296.6 201.03,-292.51 211,-290.38 239.85,-284.22 273.75,-283.57 296.84,-284.08"/>
<polygon fill="black" stroke="black" points="296.83,-287.58 306.93,-284.4 297.04,-280.59 296.83,-287.58"/>
<text text-anchor="middle" x="243" y="-294.18" font-family="Helvetica,Arial,sans-serif" font-size="14.00">2/2</text>
</g>
<!-- &#45;1&#45;&gt;5 -->
<g id="edge46" class="edge">
<title>&#45;1&#45;&gt;5</title>
<path fill="none" stroke="black" d="M179.88,-297.09C184.32,-293.28 189.07,-288.86 193,-284.38 202.52,-273.55 201.72,-268.42 211,-257.38 296.37,-155.86 335.76,-142.21 457,-88.38 635.33,-9.21 767.08,61.07 896,-85.38 934.73,-129.37 932.65,-552.63 931.38,-666.37"/>
<polygon fill="black" stroke="black" points="927.88,-666.34 931.26,-676.38 934.88,-666.43 927.88,-666.34"/>
<text text-anchor="middle" x="567.5" y="-56.18" font-family="Helvetica,Arial,sans-serif" font-size="14.00">12/12</text>
</g>
<!-- &#45;1&#45;&gt;3 -->
<g id="edge47" class="edge">
<title>&#45;1&#45;&gt;3</title>
<path fill="none" stroke="black" d="M180.48,-297.63C189.08,-291.86 200.27,-285.01 211,-280.38 245.65,-265.45 255.59,-263.32 293,-258.38 461.01,-236.24 512.68,-247.95 671,-308.38 705.19,-321.44 722.67,-314.19 746,-342.38 784.34,-388.71 791.31,-462.22 792.03,-502.21"/>
<polygon fill="black" stroke="black" points="788.53,-502.34 792.09,-512.32 795.53,-502.3 788.53,-502.34"/>
<text text-anchor="middle" x="489" y="-263.18" font-family="Helvetica,Arial,sans-serif" font-size="14.00">32/32</text>
</g>
<!-- &#45;1&#45;&gt;2 -->
<g id="edge48" class="edge">
<title>&#45;1&#45;&gt;2</title>
<path fill="none" stroke="black" d="M183.33,-306.56C220.85,-303.77 308.48,-302.96 357,-349.38 379.9,-371.29 351.75,-396.84 375,-418.38 411.61,-452.31 553.53,-432.16 596,-458.38 607.34,-465.39 604.83,-472.71 614,-482.38 615.84,-484.32 617.83,-486.25 619.87,-488.13"/>
<polygon fill="black" stroke="black" points="617.94,-491.09 627.8,-494.97 622.52,-485.79 617.94,-491.09"/>
<text text-anchor="middle" x="407" y="-442.18" font-family="Helvetica,Arial,sans-serif" font-size="14.00">17/17</text>
</g>
<!-- &#45;1&#45;&gt;6 -->
<g id="edge49" class="edge">
<title>&#45;1&#45;&gt;6</title>
<path fill="none" stroke="black" d="M181.83,-316.54C190.45,-320.79 201.24,-325.99 211,-330.38 275.12,-359.26 310.79,-338.37 357,-391.38 377.54,-414.95 357.47,-433.5 375,-459.38 381.14,-468.46 434.11,-506.03 465.3,-527.73"/>
<polygon fill="black" stroke="black" points="463.62,-530.82 473.84,-533.64 467.61,-525.07 463.62,-530.82"/>
<text text-anchor="middle" x="325" y="-395.18" font-family="Helvetica,Arial,sans-serif" font-size="14.00">22/22</text>
</g>
</g>
</svg>
