<?xml version="1.0" encoding="UTF-8" standalone="no"?>
<!DOCTYPE svg PUBLIC "-//W3C//DTD SVG 1.1//EN"
 "http://www.w3.org/Graphics/SVG/1.1/DTD/svg11.dtd">
<!-- Generated by graphviz version 2.43.0 (0)
 -->
<!-- Title: G Pages: 1 -->
<svg width="860pt" height="343pt"
 viewBox="0.00 0.00 860.00 343.00" xmlns="http://www.w3.org/2000/svg" xmlns:xlink="http://www.w3.org/1999/xlink">
<g id="graph0" class="graph" transform="scale(1 1) rotate(0) translate(4 339)">
<title>G</title>
<polygon fill="white" stroke="transparent" points="-4,4 -4,-339 856,-339 856,4 -4,4"/>
<!-- 8 -->
<g id="node1" class="node">
<title>8</title>
<ellipse fill="none" stroke="black" cx="18" cy="-237" rx="18" ry="18"/>
<text text-anchor="middle" x="18" y="-233.3" font-family="Helvetica,Arial,sans-serif" font-size="14.00">8</text>
</g>
<!-- 0 -->
<g id="node2" class="node">
<title>0</title>
<ellipse fill="none" stroke="black" cx="113" cy="-237" rx="18" ry="18"/>
<text text-anchor="middle" x="113" y="-233.3" font-family="Helvetica,Arial,sans-serif" font-size="14.00">0</text>
</g>
<!-- 8&#45;&gt;0 -->
<g id="edge1" class="edge">
<title>8&#45;&gt;0</title>
<path fill="none" stroke="black" d="M36.06,-237C49.61,-237 68.82,-237 84.53,-237"/>
<polygon fill="black" stroke="black" points="84.74,-240.5 94.74,-237 84.74,-233.5 84.74,-240.5"/>
<text text-anchor="middle" x="65.5" y="-240.8" font-family="Helvetica,Arial,sans-serif" font-size="14.00">464</text>
</g>
<!-- 0&#45;&gt;8 -->
<g id="edge11" class="edge">
<title>0&#45;&gt;8</title>
<path fill="none" stroke="black" d="M97.69,-227.13C91.6,-223.51 84.24,-219.84 77,-218 67.09,-215.48 63.91,-215.48 54,-218 50.04,-219.01 46.05,-220.56 42.24,-222.35"/>
<polygon fill="black" stroke="black" points="40.48,-219.33 33.31,-227.13 43.78,-225.5 40.48,-219.33"/>
<text text-anchor="middle" x="65.5" y="-221.8" font-family="Helvetica,Arial,sans-serif" font-size="14.00">464</text>
</g>
<!-- 5 -->
<g id="node3" class="node">
<title>5</title>
<ellipse fill="none" stroke="black" cx="525" cy="-245" rx="18" ry="18"/>
<text text-anchor="middle" x="525" y="-241.3" font-family="Helvetica,Arial,sans-serif" font-size="14.00">5</text>
</g>
<!-- 0&#45;&gt;5 -->
<g id="edge12" class="edge">
<title>0&#45;&gt;5</title>
<path fill="none" stroke="black" d="M126.52,-249.21C144.51,-265.41 179.46,-292 215,-292 215,-292 215,-292 423,-292 452.52,-292 482.74,-275.29 502.33,-261.8"/>
<polygon fill="black" stroke="black" points="504.47,-264.58 510.55,-255.9 500.38,-258.89 504.47,-264.58"/>
<text text-anchor="middle" x="319" y="-295.8" font-family="Helvetica,Arial,sans-serif" font-size="14.00">0</text>
</g>
<!-- 7 -->
<g id="node8" class="node">
<title>7</title>
<ellipse fill="none" stroke="black" cx="216" cy="-147" rx="18" ry="18"/>
<text text-anchor="middle" x="216" y="-143.3" font-family="Helvetica,Arial,sans-serif" font-size="14.00">7</text>
</g>
<!-- 0&#45;&gt;7 -->
<g id="edge13" class="edge">
<title>0&#45;&gt;7</title>
<path fill="none" stroke="black" d="M127.7,-226.18C141.27,-215.34 162.49,-197.99 180,-182 185.29,-177.17 190.84,-171.78 195.92,-166.7"/>
<polygon fill="black" stroke="black" points="198.41,-169.16 202.96,-159.59 193.44,-164.24 198.41,-169.16"/>
<text text-anchor="middle" x="164.5" y="-212.8" font-family="Helvetica,Arial,sans-serif" font-size="14.00">0</text>
</g>
<!-- 5&#45;&gt;0 -->
<g id="edge2" class="edge">
<title>5&#45;&gt;0</title>
<path fill="none" stroke="black" d="M506.85,-243.91C486.77,-242.72 452.48,-241 423,-241 215,-241 215,-241 215,-241 190.01,-241 161.57,-239.76 141.25,-238.66"/>
<polygon fill="black" stroke="black" points="141.33,-235.16 131.15,-238.09 140.93,-242.15 141.33,-235.16"/>
<text text-anchor="middle" x="319" y="-244.8" font-family="Helvetica,Arial,sans-serif" font-size="14.00">686</text>
</g>
<!-- 2 -->
<g id="node4" class="node">
<title>2</title>
<ellipse fill="none" stroke="black" cx="731" cy="-271" rx="18" ry="18"/>
<text text-anchor="middle" x="731" y="-267.3" font-family="Helvetica,Arial,sans-serif" font-size="14.00">2</text>
</g>
<!-- 5&#45;&gt;2 -->
<g id="edge3" class="edge">
<title>5&#45;&gt;2</title>
<path fill="none" stroke="black" d="M531.93,-261.67C537.4,-274.42 546.84,-291.26 561,-300 611.68,-331.27 640.07,-323.02 695,-300 700.46,-297.71 705.72,-294.28 710.44,-290.56"/>
<polygon fill="black" stroke="black" points="713.01,-292.96 718.26,-283.76 708.41,-287.68 713.01,-292.96"/>
<text text-anchor="middle" x="628" y="-323.8" font-family="Helvetica,Arial,sans-serif" font-size="14.00">0</text>
</g>
<!-- 1 -->
<g id="node5" class="node">
<title>1</title>
<ellipse fill="none" stroke="black" cx="422" cy="-127" rx="18" ry="18"/>
<text text-anchor="middle" x="422" y="-123.3" font-family="Helvetica,Arial,sans-serif" font-size="14.00">1</text>
</g>
<!-- 5&#45;&gt;1 -->
<g id="edge4" class="edge">
<title>5&#45;&gt;1</title>
<path fill="none" stroke="black" d="M511.96,-232.57C498.44,-218.46 476.05,-194.6 458,-173 451.8,-165.58 445.31,-157.24 439.63,-149.71"/>
<polygon fill="black" stroke="black" points="442.18,-147.28 433.4,-141.35 436.57,-151.46 442.18,-147.28"/>
<text text-anchor="middle" x="473.5" y="-211.8" font-family="Helvetica,Arial,sans-serif" font-size="14.00">1758</text>
</g>
<!-- 4 -->
<g id="node6" class="node">
<title>4</title>
<ellipse fill="none" stroke="black" cx="628" cy="-218" rx="18" ry="18"/>
<text text-anchor="middle" x="628" y="-214.3" font-family="Helvetica,Arial,sans-serif" font-size="14.00">4</text>
</g>
<!-- 5&#45;&gt;4 -->
<g id="edge5" class="edge">
<title>5&#45;&gt;4</title>
<path fill="none" stroke="black" d="M542.68,-240.54C558.39,-236.34 582.2,-229.98 600.51,-225.08"/>
<polygon fill="black" stroke="black" points="601.54,-228.43 610.3,-222.47 599.73,-221.67 601.54,-228.43"/>
<text text-anchor="middle" x="576.5" y="-238.8" font-family="Helvetica,Arial,sans-serif" font-size="14.00">938</text>
</g>
<!-- 2&#45;&gt;5 -->
<g id="edge27" class="edge">
<title>2&#45;&gt;5</title>
<path fill="none" stroke="black" d="M712.88,-271.77C699.53,-272.18 680.56,-272.36 664,-271 617.76,-267.21 606.4,-263.56 561,-254 558.27,-253.43 555.44,-252.78 552.62,-252.1"/>
<polygon fill="black" stroke="black" points="553.22,-248.65 542.66,-249.6 551.51,-255.43 553.22,-248.65"/>
<text text-anchor="middle" x="628" y="-272.8" font-family="Helvetica,Arial,sans-serif" font-size="14.00">2108</text>
</g>
<!-- 2&#45;&gt;4 -->
<g id="edge28" class="edge">
<title>2&#45;&gt;4</title>
<path fill="none" stroke="black" d="M724.22,-254.23C718.83,-241.48 709.43,-224.84 695,-217 683.12,-210.54 668.18,-210.25 655.51,-211.81"/>
<polygon fill="black" stroke="black" points="654.82,-208.38 645.53,-213.46 655.97,-215.28 654.82,-208.38"/>
<text text-anchor="middle" x="679.5" y="-220.8" font-family="Helvetica,Arial,sans-serif" font-size="14.00">2088</text>
</g>
<!-- 1&#45;&gt;5 -->
<g id="edge17" class="edge">
<title>1&#45;&gt;5</title>
<path fill="none" stroke="black" d="M440.02,-130.02C454.76,-133.46 475.75,-140.47 489,-154 505.86,-171.22 514.8,-197.44 519.4,-217.32"/>
<polygon fill="black" stroke="black" points="516.02,-218.26 521.49,-227.34 522.88,-216.83 516.02,-218.26"/>
<text text-anchor="middle" x="473.5" y="-157.8" font-family="Helvetica,Arial,sans-serif" font-size="14.00">0</text>
</g>
<!-- 6 -->
<g id="node7" class="node">
<title>6</title>
<ellipse fill="none" stroke="black" cx="319" cy="-71" rx="18" ry="18"/>
<text text-anchor="middle" x="319" y="-67.3" font-family="Helvetica,Arial,sans-serif" font-size="14.00">6</text>
</g>
<!-- 1&#45;&gt;6 -->
<g id="edge18" class="edge">
<title>1&#45;&gt;6</title>
<path fill="none" stroke="black" d="M415.38,-110.26C410.04,-97.28 400.62,-80.17 386,-72 374.2,-65.41 359.26,-64.68 346.58,-65.81"/>
<polygon fill="black" stroke="black" points="346.04,-62.35 336.58,-67.11 346.95,-69.29 346.04,-62.35"/>
<text text-anchor="middle" x="370.5" y="-75.8" font-family="Helvetica,Arial,sans-serif" font-size="14.00">1358</text>
</g>
<!-- 1&#45;&gt;7 -->
<g id="edge19" class="edge">
<title>1&#45;&gt;7</title>
<path fill="none" stroke="black" d="M403.86,-128.68C368.46,-132.15 286.98,-140.14 244.26,-144.33"/>
<polygon fill="black" stroke="black" points="243.65,-140.87 234.04,-145.33 244.34,-147.84 243.65,-140.87"/>
<text text-anchor="middle" x="319" y="-142.8" font-family="Helvetica,Arial,sans-serif" font-size="14.00">1409</text>
</g>
<!-- 9 -->
<g id="node10" class="node">
<title>9</title>
<ellipse fill="none" stroke="black" cx="731" cy="-109" rx="18" ry="18"/>
<text text-anchor="middle" x="731" y="-105.3" font-family="Helvetica,Arial,sans-serif" font-size="14.00">9</text>
</g>
<!-- 1&#45;&gt;9 -->
<g id="edge20" class="edge">
<title>1&#45;&gt;9</title>
<path fill="none" stroke="black" d="M435.72,-115C442,-109.68 449.94,-103.78 458,-100 500.47,-80.09 514.38,-82.14 561,-77 620.73,-70.41 637.2,-78.58 695,-95 698.21,-95.91 701.53,-97.02 704.79,-98.2"/>
<polygon fill="black" stroke="black" points="703.62,-101.5 714.21,-101.88 706.17,-94.98 703.62,-101.5"/>
<text text-anchor="middle" x="576.5" y="-80.8" font-family="Helvetica,Arial,sans-serif" font-size="14.00">401</text>
</g>
<!-- 4&#45;&gt;5 -->
<g id="edge24" class="edge">
<title>4&#45;&gt;5</title>
<path fill="none" stroke="black" d="M611.18,-210.94C597.41,-205.87 577.18,-201.03 561,-208 553.74,-211.13 547.29,-216.58 541.96,-222.35"/>
<polygon fill="black" stroke="black" points="539.11,-220.31 535.42,-230.24 544.49,-224.77 539.11,-220.31"/>
<text text-anchor="middle" x="576.5" y="-211.8" font-family="Helvetica,Arial,sans-serif" font-size="14.00">1274</text>
</g>
<!-- 4&#45;&gt;2 -->
<g id="edge26" class="edge">
<title>4&#45;&gt;2</title>
<path fill="none" stroke="black" d="M644.34,-226.05C660.67,-234.62 686.75,-248.3 705.85,-258.33"/>
<polygon fill="black" stroke="black" points="704.37,-261.5 714.85,-263.05 707.62,-255.3 704.37,-261.5"/>
<text text-anchor="middle" x="679.5" y="-255.8" font-family="Helvetica,Arial,sans-serif" font-size="14.00">640</text>
</g>
<!-- 4&#45;&gt;9 -->
<g id="edge25" class="edge">
<title>4&#45;&gt;9</title>
<path fill="none" stroke="black" d="M642.68,-207.04C656.6,-195.56 678.44,-176.63 695,-158 702.11,-150 709.14,-140.55 715,-132.11"/>
<polygon fill="black" stroke="black" points="717.95,-134 720.66,-123.76 712.15,-130.08 717.95,-134"/>
<text text-anchor="middle" x="679.5" y="-191.8" font-family="Helvetica,Arial,sans-serif" font-size="14.00">1322</text>
</g>
<!-- 6&#45;&gt;1 -->
<g id="edge7" class="edge">
<title>6&#45;&gt;1</title>
<path fill="none" stroke="black" d="M335.34,-79.51C351.67,-88.56 377.75,-103.02 396.85,-113.61"/>
<polygon fill="black" stroke="black" points="395.4,-116.81 405.85,-118.6 398.8,-110.69 395.4,-116.81"/>
<text text-anchor="middle" x="370.5" y="-111.8" font-family="Helvetica,Arial,sans-serif" font-size="14.00">550</text>
</g>
<!-- 6&#45;&gt;7 -->
<g id="edge6" class="edge">
<title>6&#45;&gt;7</title>
<path fill="none" stroke="black" d="M301.41,-66.67C287.15,-63.95 266.62,-62.53 252,-72 235.82,-82.48 226.99,-102.57 222.24,-119.32"/>
<polygon fill="black" stroke="black" points="218.8,-118.66 219.79,-129.21 225.59,-120.35 218.8,-118.66"/>
<text text-anchor="middle" x="267.5" y="-75.8" font-family="Helvetica,Arial,sans-serif" font-size="14.00">1674</text>
</g>
<!-- 3 -->
<g id="node9" class="node">
<title>3</title>
<ellipse fill="none" stroke="black" cx="834" cy="-54" rx="18" ry="18"/>
<text text-anchor="middle" x="834" y="-50.3" font-family="Helvetica,Arial,sans-serif" font-size="14.00">3</text>
</g>
<!-- 6&#45;&gt;3 -->
<g id="edge8" class="edge">
<title>6&#45;&gt;3</title>
<path fill="none" stroke="black" d="M335.24,-62.67C354.58,-52.9 389.27,-38 421,-38 421,-38 421,-38 732,-38 757.55,-38 786.29,-43.06 806.56,-47.48"/>
<polygon fill="black" stroke="black" points="805.8,-50.9 816.33,-49.71 807.36,-44.08 805.8,-50.9"/>
<text text-anchor="middle" x="576.5" y="-41.8" font-family="Helvetica,Arial,sans-serif" font-size="14.00">0</text>
</g>
<!-- 7&#45;&gt;0 -->
<g id="edge15" class="edge">
<title>7&#45;&gt;0</title>
<path fill="none" stroke="black" d="M197.77,-147.19C183.29,-148.21 162.8,-151.76 149,-163 134.63,-174.7 125.81,-193.69 120.63,-209.5"/>
<polygon fill="black" stroke="black" points="117.2,-208.74 117.72,-219.32 123.91,-210.73 117.2,-208.74"/>
<text text-anchor="middle" x="164.5" y="-166.8" font-family="Helvetica,Arial,sans-serif" font-size="14.00">2870</text>
</g>
<!-- 7&#45;&gt;1 -->
<g id="edge16" class="edge">
<title>7&#45;&gt;1</title>
<path fill="none" stroke="black" d="M233.55,-151.76C264.66,-159.82 333.45,-173.4 386,-153 390.99,-151.06 395.89,-148.21 400.37,-145.1"/>
<polygon fill="black" stroke="black" points="402.57,-147.83 408.39,-138.97 398.32,-142.27 402.57,-147.83"/>
<text text-anchor="middle" x="319" y="-167.8" font-family="Helvetica,Arial,sans-serif" font-size="14.00">213</text>
</g>
<!-- 7&#45;&gt;6 -->
<g id="edge14" class="edge">
<title>7&#45;&gt;6</title>
<path fill="none" stroke="black" d="M228.17,-133.44C234.68,-126.02 243.29,-116.95 252,-110 264.77,-99.81 280.46,-90.43 293.34,-83.42"/>
<polygon fill="black" stroke="black" points="295.34,-86.32 302.55,-78.55 292.07,-80.14 295.34,-86.32"/>
<text text-anchor="middle" x="267.5" y="-113.8" font-family="Helvetica,Arial,sans-serif" font-size="14.00">0</text>
</g>
<!-- 3&#45;&gt;6 -->
<g id="edge9" class="edge">
<title>3&#45;&gt;6</title>
<path fill="none" stroke="black" d="M820.44,-42.02C802.4,-26.11 767.39,0 732,0 421,0 421,0 421,0 386.37,0 355.23,-28.28 336.96,-49.14"/>
<polygon fill="black" stroke="black" points="334.13,-47.06 330.39,-56.97 339.49,-51.56 334.13,-47.06"/>
<text text-anchor="middle" x="576.5" y="-3.8" font-family="Helvetica,Arial,sans-serif" font-size="14.00">866</text>
</g>
<!-- 3&#45;&gt;9 -->
<g id="edge10" class="edge">
<title>3&#45;&gt;9</title>
<path fill="none" stroke="black" d="M816,-56.04C802.05,-58.3 782.18,-62.91 767,-72 760.32,-76 754.1,-81.62 748.81,-87.28"/>
<polygon fill="black" stroke="black" points="746.14,-85.02 742.22,-94.86 751.42,-89.61 746.14,-85.02"/>
<text text-anchor="middle" x="782.5" y="-75.8" font-family="Helvetica,Arial,sans-serif" font-size="14.00">620</text>
</g>
<!-- 9&#45;&gt;1 -->
<g id="edge22" class="edge">
<title>9&#45;&gt;1</title>
<path fill="none" stroke="black" d="M712.81,-110.01C662.08,-112.98 512.71,-121.74 450.59,-125.38"/>
<polygon fill="black" stroke="black" points="450.16,-121.9 440.39,-125.98 450.57,-128.89 450.16,-121.9"/>
<text text-anchor="middle" x="576.5" y="-122.8" font-family="Helvetica,Arial,sans-serif" font-size="14.00">647</text>
</g>
<!-- 9&#45;&gt;4 -->
<g id="edge23" class="edge">
<title>9&#45;&gt;4</title>
<path fill="none" stroke="black" d="M713.47,-114.08C698.85,-119.3 677.76,-128.69 664,-143 651.09,-156.42 642.28,-175.48 636.73,-191.02"/>
<polygon fill="black" stroke="black" points="633.37,-190.04 633.54,-200.64 640.01,-192.25 633.37,-190.04"/>
<text text-anchor="middle" x="679.5" y="-146.8" font-family="Helvetica,Arial,sans-serif" font-size="14.00">210</text>
</g>
<!-- 9&#45;&gt;3 -->
<g id="edge21" class="edge">
<title>9&#45;&gt;3</title>
<path fill="none" stroke="black" d="M748.86,-105.52C762.73,-102.17 782.55,-96.24 798,-87 803.74,-83.57 809.31,-79.06 814.26,-74.47"/>
<polygon fill="black" stroke="black" points="816.81,-76.88 821.46,-67.36 811.88,-71.9 816.81,-76.88"/>
<text text-anchor="middle" x="782.5" y="-103.8" font-family="Helvetica,Arial,sans-serif" font-size="14.00">1486</text>
</g>
</g>
</svg>
