<?xml version="1.0" encoding="UTF-8" standalone="no"?>
<!DOCTYPE svg PUBLIC "-//W3C//DTD SVG 1.1//EN"
 "http://www.w3.org/Graphics/SVG/1.1/DTD/svg11.dtd">
<!-- Generated by graphviz version 2.43.0 (0)
 -->
<!-- Title: G Pages: 1 -->
<svg width="617pt" height="1030pt"
 viewBox="0.00 0.00 617.39 1030.00" xmlns="http://www.w3.org/2000/svg" xmlns:xlink="http://www.w3.org/1999/xlink">
<g id="graph0" class="graph" transform="scale(1 1) rotate(0) translate(4 1026)">
<title>G</title>
<polygon fill="white" stroke="transparent" points="-4,4 -4,-1026 613.39,-1026 613.39,4 -4,4"/>
<!-- 1 -->
<g id="node1" class="node">
<title>1</title>
<ellipse fill="none" stroke="black" cx="18" cy="-501" rx="18" ry="18"/>
<text text-anchor="middle" x="18" y="-497.3" font-family="Helvetica,Arial,sans-serif" font-size="14.00">1</text>
</g>
<!-- 0 -->
<g id="node2" class="node">
<title>0</title>
<ellipse fill="none" stroke="black" cx="109.85" cy="-647" rx="18" ry="18"/>
<text text-anchor="middle" x="109.85" y="-643.3" font-family="Helvetica,Arial,sans-serif" font-size="14.00">0</text>
</g>
<!-- 1&#45;&gt;0 -->
<g id="edge1" class="edge">
<title>1&#45;&gt;0</title>
<path fill="none" stroke="black" d="M21.49,-519.05C25.32,-541.47 34.37,-580.06 54,-607 62.03,-618.01 73.99,-627.24 84.7,-634.04"/>
<polygon fill="black" stroke="black" points="82.91,-637.05 93.28,-639.18 86.5,-631.04 82.91,-637.05"/>
<text text-anchor="middle" x="63.5" y="-628.8" font-family="Helvetica,Arial,sans-serif" font-size="14.00">0/0</text>
</g>
<!-- 4 -->
<g id="node3" class="node">
<title>4</title>
<ellipse fill="none" stroke="black" cx="210.54" cy="-270" rx="18" ry="18"/>
<text text-anchor="middle" x="210.54" y="-266.3" font-family="Helvetica,Arial,sans-serif" font-size="14.00">4</text>
</g>
<!-- 1&#45;&gt;4 -->
<g id="edge2" class="edge">
<title>1&#45;&gt;4</title>
<path fill="none" stroke="black" d="M21.21,-482.93C28.12,-429.87 51.27,-276.62 91,-250 119.44,-230.94 160.11,-244.52 185.66,-256.73"/>
<polygon fill="black" stroke="black" points="184.15,-259.89 194.65,-261.28 187.3,-253.64 184.15,-259.89"/>
<text text-anchor="middle" x="109.85" y="-253.8" font-family="Helvetica,Arial,sans-serif" font-size="14.00">0/0</text>
</g>
<!-- 5 -->
<g id="node4" class="node">
<title>5</title>
<ellipse fill="none" stroke="black" cx="591.39" cy="-679" rx="18" ry="18"/>
<text text-anchor="middle" x="591.39" y="-675.3" font-family="Helvetica,Arial,sans-serif" font-size="14.00">5</text>
</g>
<!-- 1&#45;&gt;5 -->
<g id="edge3" class="edge">
<title>1&#45;&gt;5</title>
<path fill="none" stroke="black" d="M19.42,-519.03C21.44,-600.3 31.02,-930.41 54,-970 68.76,-995.43 79.44,-1007 108.85,-1007 108.85,-1007 108.85,-1007 501.39,-1007 530.49,-1007 540.31,-994.88 555.39,-970 581.88,-926.29 588.35,-772 589.91,-707.58"/>
<polygon fill="black" stroke="black" points="593.41,-707.42 590.13,-697.35 586.41,-707.27 593.41,-707.42"/>
<text text-anchor="middle" x="310.39" y="-1010.8" font-family="Helvetica,Arial,sans-serif" font-size="14.00">0/0</text>
</g>
<!-- 3 -->
<g id="node5" class="node">
<title>3</title>
<ellipse fill="none" stroke="black" cx="500.39" cy="-515" rx="18" ry="18"/>
<text text-anchor="middle" x="500.39" y="-511.3" font-family="Helvetica,Arial,sans-serif" font-size="14.00">3</text>
</g>
<!-- 1&#45;&gt;3 -->
<g id="edge4" class="edge">
<title>1&#45;&gt;3</title>
<path fill="none" stroke="black" d="M20.29,-482.87C26.91,-393.05 58.76,0 108.85,0 108.85,0 108.85,0 261.89,0 346.23,0 433.84,-242.39 464.39,-321 486.23,-377.18 494.58,-447.88 497.67,-486.53"/>
<polygon fill="black" stroke="black" points="494.22,-487.28 498.44,-496.99 501.2,-486.76 494.22,-487.28"/>
<text text-anchor="middle" x="260.89" y="-3.8" font-family="Helvetica,Arial,sans-serif" font-size="14.00">0/0</text>
</g>
<!-- 2 -->
<g id="node6" class="node">
<title>2</title>
<ellipse fill="none" stroke="black" cx="409.39" cy="-490" rx="18" ry="18"/>
<text text-anchor="middle" x="409.39" y="-486.3" font-family="Helvetica,Arial,sans-serif" font-size="14.00">2</text>
</g>
<!-- 1&#45;&gt;2 -->
<g id="edge5" class="edge">
<title>1&#45;&gt;2</title>
<path fill="none" stroke="black" d="M27.79,-485.66C45.69,-456.17 89.57,-392.35 146.7,-368 157.74,-363.3 162.91,-362.74 173.7,-368 185.37,-373.69 182.79,-381.56 191.7,-391 214.33,-414.97 218.64,-423.87 247.39,-440 270.71,-453.08 342.73,-472.95 382.07,-483.26"/>
<polygon fill="black" stroke="black" points="381.22,-486.66 391.78,-485.79 382.98,-479.88 381.22,-486.66"/>
<text text-anchor="middle" x="210.54" y="-432.8" font-family="Helvetica,Arial,sans-serif" font-size="14.00">0/0</text>
</g>
<!-- 6 -->
<g id="node7" class="node">
<title>6</title>
<ellipse fill="none" stroke="black" cx="310.39" cy="-528" rx="18" ry="18"/>
<text text-anchor="middle" x="310.39" y="-524.3" font-family="Helvetica,Arial,sans-serif" font-size="14.00">6</text>
</g>
<!-- 1&#45;&gt;6 -->
<g id="edge6" class="edge">
<title>1&#45;&gt;6</title>
<path fill="none" stroke="black" d="M36.25,-501.24C72.26,-501.89 158.03,-504.31 229.39,-513 234.67,-513.64 261.41,-518.72 282.55,-522.79"/>
<polygon fill="black" stroke="black" points="282.16,-526.28 292.65,-524.74 283.49,-519.41 282.16,-526.28"/>
<text text-anchor="middle" x="160.2" y="-511.8" font-family="Helvetica,Arial,sans-serif" font-size="14.00">0/0</text>
</g>
<!-- &#45;2 -->
<g id="node8" class="node">
<title>&#45;2</title>
<ellipse fill="none" stroke="black" cx="210.54" cy="-541" rx="18.7" ry="18.7"/>
<text text-anchor="middle" x="210.54" y="-537.3" font-family="Helvetica,Arial,sans-serif" font-size="14.00">&#45;2</text>
</g>
<!-- 1&#45;&gt;&#45;2 -->
<g id="edge7" class="edge">
<title>1&#45;&gt;&#45;2</title>
<path fill="none" stroke="black" d="M34.78,-508.15C40.71,-510.61 47.57,-513.2 54,-515 97.63,-527.22 149.85,-534.51 181.32,-538.13"/>
<polygon fill="black" stroke="black" points="181.22,-541.64 191.54,-539.26 181.99,-534.68 181.22,-541.64"/>
<text text-anchor="middle" x="109.85" y="-534.8" font-family="Helvetica,Arial,sans-serif" font-size="14.00">0/68</text>
</g>
<!-- 0&#45;&gt;1 -->
<g id="edge8" class="edge">
<title>0&#45;&gt;1</title>
<path fill="none" stroke="black" d="M99.99,-631.79C92.9,-619.77 82.58,-602.64 73,-588 64.96,-575.72 61.93,-573.35 54,-561 46.64,-549.54 38.97,-536.52 32.68,-525.54"/>
<polygon fill="black" stroke="black" points="35.54,-523.48 27.57,-516.51 29.45,-526.93 35.54,-523.48"/>
<text text-anchor="middle" x="63.5" y="-591.8" font-family="Helvetica,Arial,sans-serif" font-size="14.00">0/0</text>
</g>
<!-- 0&#45;&gt;4 -->
<g id="edge9" class="edge">
<title>0&#45;&gt;4</title>
<path fill="none" stroke="black" d="M115.13,-629.71C119.06,-613.37 124.84,-588.13 128.7,-566 139.46,-504.2 116.81,-481.16 146.7,-426 154.21,-412.14 165.27,-416.32 173.7,-403 176.57,-398.46 193.06,-334.82 202.64,-297.25"/>
<polygon fill="black" stroke="black" points="206.07,-297.96 205.14,-287.41 199.29,-296.24 206.07,-297.96"/>
<text text-anchor="middle" x="160.2" y="-429.8" font-family="Helvetica,Arial,sans-serif" font-size="14.00">0/0</text>
</g>
<!-- 0&#45;&gt;5 -->
<g id="edge10" class="edge">
<title>0&#45;&gt;5</title>
<path fill="none" stroke="black" d="M112.89,-665.09C118.47,-713.17 134.35,-841.43 146.7,-856 209.62,-930.24 261.58,-910 358.89,-910 358.89,-910 358.89,-910 501.39,-910 527.66,-910 539.29,-906.75 555.39,-886 576.68,-858.57 585.67,-757.32 588.87,-707.32"/>
<polygon fill="black" stroke="black" points="592.38,-707.38 589.49,-697.19 585.39,-706.96 592.38,-707.38"/>
<text text-anchor="middle" x="359.89" y="-913.8" font-family="Helvetica,Arial,sans-serif" font-size="14.00">0/0</text>
</g>
<!-- 0&#45;&gt;3 -->
<g id="edge11" class="edge">
<title>0&#45;&gt;3</title>
<path fill="none" stroke="black" d="M113,-664.91C117.36,-697.85 128.43,-766 146.7,-780 187.03,-810.91 337.93,-786.4 373.39,-750 398.83,-723.9 370.66,-699.97 391.39,-670 413.49,-638.07 441.27,-653.19 464.39,-622 481.23,-599.29 473.49,-587.83 482.39,-561 484.54,-554.53 487.01,-547.61 489.38,-541.15"/>
<polygon fill="black" stroke="black" points="492.76,-542.11 492.99,-531.51 486.21,-539.65 492.76,-542.11"/>
<text text-anchor="middle" x="310.39" y="-787.8" font-family="Helvetica,Arial,sans-serif" font-size="14.00">0/0</text>
</g>
<!-- 0&#45;&gt;2 -->
<g id="edge12" class="edge">
<title>0&#45;&gt;2</title>
<path fill="none" stroke="black" d="M116.3,-663.86C121.68,-677.41 131.35,-695.52 146.7,-704 191.29,-728.63 341.24,-709.51 373.39,-670 393.47,-645.33 382.81,-558.63 391.39,-528 392.6,-523.69 394.22,-519.25 395.98,-514.99"/>
<polygon fill="black" stroke="black" points="399.32,-516.07 400.21,-505.51 392.93,-513.22 399.32,-516.07"/>
<text text-anchor="middle" x="260.89" y="-715.8" font-family="Helvetica,Arial,sans-serif" font-size="14.00">0/0</text>
</g>
<!-- 0&#45;&gt;6 -->
<g id="edge13" class="edge">
<title>0&#45;&gt;6</title>
<path fill="none" stroke="black" d="M127.85,-647.92C160.2,-648.74 231.24,-645.98 274.39,-610 290.69,-596.41 299.57,-573.86 304.3,-555.84"/>
<polygon fill="black" stroke="black" points="307.77,-556.4 306.64,-545.86 300.95,-554.8 307.77,-556.4"/>
<text text-anchor="middle" x="210.54" y="-646.8" font-family="Helvetica,Arial,sans-serif" font-size="14.00">0/0</text>
</g>
<!-- 0&#45;&gt;&#45;2 -->
<g id="edge14" class="edge">
<title>0&#45;&gt;&#45;2</title>
<path fill="none" stroke="black" d="M116.57,-630.05C122.32,-614.99 132.39,-593.08 146.7,-578 157.01,-567.13 171.22,-558.4 183.52,-552.16"/>
<polygon fill="black" stroke="black" points="185.35,-555.16 192.86,-547.69 182.33,-548.84 185.35,-555.16"/>
<text text-anchor="middle" x="160.2" y="-581.8" font-family="Helvetica,Arial,sans-serif" font-size="14.00">0/18</text>
</g>
<!-- 4&#45;&gt;1 -->
<g id="edge15" class="edge">
<title>4&#45;&gt;1</title>
<path fill="none" stroke="black" d="M197.45,-257.63C190.87,-251.42 182.32,-244.14 173.7,-239 141.46,-219.8 124.59,-205.27 91,-222 66.57,-234.16 64.6,-245.85 54,-271 25.16,-339.42 19.69,-428.19 18.9,-472.79"/>
<polygon fill="black" stroke="black" points="15.4,-472.85 18.79,-482.89 22.4,-472.93 15.4,-472.85"/>
<text text-anchor="middle" x="109.85" y="-225.8" font-family="Helvetica,Arial,sans-serif" font-size="14.00">0/0</text>
</g>
<!-- 4&#45;&gt;0 -->
<g id="edge16" class="edge">
<title>4&#45;&gt;0</title>
<path fill="none" stroke="black" d="M199.17,-284.25C184.64,-305.02 158.7,-345.37 146.7,-384 122.58,-461.62 141.46,-485.73 128.7,-566 125.83,-584.03 121.43,-604.06 117.71,-619.69"/>
<polygon fill="black" stroke="black" points="114.23,-619.19 115.28,-629.73 121.03,-620.84 114.23,-619.19"/>
<text text-anchor="middle" x="160.2" y="-387.8" font-family="Helvetica,Arial,sans-serif" font-size="14.00">0/0</text>
</g>
<!-- 4&#45;&gt;5 -->
<g id="edge17" class="edge">
<title>4&#45;&gt;5</title>
<path fill="none" stroke="black" d="M214.57,-252.33C221.55,-217.33 242.17,-139.23 292.39,-100 384.52,-28.04 477.71,-15.65 555.39,-103 592.04,-144.21 591.54,-540.58 590.68,-650.73"/>
<polygon fill="black" stroke="black" points="587.18,-650.73 590.6,-660.76 594.18,-650.79 587.18,-650.73"/>
<text text-anchor="middle" x="409.39" y="-50.8" font-family="Helvetica,Arial,sans-serif" font-size="14.00">0/0</text>
</g>
<!-- 4&#45;&gt;3 -->
<g id="edge18" class="edge">
<title>4&#45;&gt;3</title>
<path fill="none" stroke="black" d="M228.87,-270.3C253.06,-271.49 297.48,-276.56 328.39,-297 405.19,-347.77 462.73,-444.47 486.89,-490.05"/>
<polygon fill="black" stroke="black" points="483.81,-491.71 491.53,-498.97 490.02,-488.48 483.81,-491.71"/>
<text text-anchor="middle" x="359.89" y="-337.8" font-family="Helvetica,Arial,sans-serif" font-size="14.00">0/0</text>
</g>
<!-- 4&#45;&gt;2 -->
<g id="edge19" class="edge">
<title>4&#45;&gt;2</title>
<path fill="none" stroke="black" d="M228.1,-274.53C261.61,-284.61 337.32,-312.31 373.39,-365 399.4,-402.99 373.23,-424.7 391.39,-467 391.48,-467.21 391.57,-467.41 391.66,-467.62"/>
<polygon fill="black" stroke="black" points="388.8,-469.65 396.86,-476.53 394.85,-466.12 388.8,-469.65"/>
<text text-anchor="middle" x="310.39" y="-324.8" font-family="Helvetica,Arial,sans-serif" font-size="14.00">0/0</text>
</g>
<!-- 4&#45;&gt;6 -->
<g id="edge20" class="edge">
<title>4&#45;&gt;6</title>
<path fill="none" stroke="black" d="M215.3,-287.37C220.24,-307.43 230.35,-340.78 247.39,-365 256.46,-377.89 266.09,-374.6 274.39,-388 295.91,-422.7 304.22,-469.96 307.41,-499.73"/>
<polygon fill="black" stroke="black" points="303.94,-500.22 308.37,-509.85 310.91,-499.56 303.94,-500.22"/>
<text text-anchor="middle" x="260.89" y="-391.8" font-family="Helvetica,Arial,sans-serif" font-size="14.00">0/0</text>
</g>
<!-- 5&#45;&gt;1 -->
<g id="edge21" class="edge">
<title>5&#45;&gt;1</title>
<path fill="none" stroke="black" d="M589.22,-696.94C585.89,-744.27 575.27,-871.43 555.39,-908 540.06,-936.21 533.5,-956 501.39,-956 108.85,-956 108.85,-956 108.85,-956 21.44,-956 17.67,-628.74 18.54,-529.31"/>
<polygon fill="black" stroke="black" points="22.04,-529.16 18.65,-519.12 15.04,-529.08 22.04,-529.16"/>
<text text-anchor="middle" x="310.39" y="-959.8" font-family="Helvetica,Arial,sans-serif" font-size="14.00">0/0</text>
</g>
<!-- 5&#45;&gt;0 -->
<g id="edge22" class="edge">
<title>5&#45;&gt;0</title>
<path fill="none" stroke="black" d="M590.26,-697.16C588.88,-745.2 577.96,-872 501.39,-872 358.89,-872 358.89,-872 358.89,-872 333.96,-872 163.43,-817.49 146.7,-799 130.4,-780.99 119.36,-713.75 114.19,-675"/>
<polygon fill="black" stroke="black" points="117.64,-674.36 112.89,-664.89 110.7,-675.25 117.64,-674.36"/>
<text text-anchor="middle" x="359.89" y="-875.8" font-family="Helvetica,Arial,sans-serif" font-size="14.00">0/0</text>
</g>
<!-- 5&#45;&gt;4 -->
<g id="edge23" class="edge">
<title>5&#45;&gt;4</title>
<path fill="none" stroke="black" d="M589.06,-660.91C582.31,-575.26 548.98,-211.87 464.39,-146 385.83,-84.82 272.24,-199.47 229.08,-248.9"/>
<polygon fill="black" stroke="black" points="226.4,-246.64 222.54,-256.51 231.71,-251.2 226.4,-246.64"/>
<text text-anchor="middle" x="409.39" y="-134.8" font-family="Helvetica,Arial,sans-serif" font-size="14.00">0/0</text>
</g>
<!-- 5&#45;&gt;3 -->
<g id="edge24" class="edge">
<title>5&#45;&gt;3</title>
<path fill="none" stroke="black" d="M589.06,-660.86C586.39,-635.02 578.47,-587.08 555.39,-554 547.82,-543.14 536.22,-534.2 525.71,-527.63"/>
<polygon fill="black" stroke="black" points="527.29,-524.49 516.89,-522.47 523.76,-530.54 527.29,-524.49"/>
<text text-anchor="middle" x="545.89" y="-557.8" font-family="Helvetica,Arial,sans-serif" font-size="14.00">0/0</text>
</g>
<!-- 5&#45;&gt;2 -->
<g id="edge25" class="edge">
<title>5&#45;&gt;2</title>
<path fill="none" stroke="black" d="M573.61,-674.29C543.21,-664.88 479.07,-640.78 445.39,-597 426.07,-571.88 437.9,-557.9 427.39,-528 425.94,-523.86 424.22,-519.54 422.44,-515.37"/>
<polygon fill="black" stroke="black" points="425.54,-513.74 418.27,-506.03 419.15,-516.59 425.54,-513.74"/>
<text text-anchor="middle" x="500.39" y="-655.8" font-family="Helvetica,Arial,sans-serif" font-size="14.00">0/0</text>
</g>
<!-- 5&#45;&gt;6 -->
<g id="edge26" class="edge">
<title>5&#45;&gt;6</title>
<path fill="none" stroke="black" d="M573.47,-681.1C551.48,-683.1 512.36,-684.12 482.39,-671 417.36,-642.53 357.72,-581.43 329.14,-549.08"/>
<polygon fill="black" stroke="black" points="331.76,-546.77 322.56,-541.52 326.48,-551.36 331.76,-546.77"/>
<text text-anchor="middle" x="454.89" y="-664.8" font-family="Helvetica,Arial,sans-serif" font-size="14.00">0/0</text>
</g>
<!-- 3&#45;&gt;1 -->
<g id="edge27" class="edge">
<title>3&#45;&gt;1</title>
<path fill="none" stroke="black" d="M492.69,-531.42C489.3,-540.11 485.3,-551.03 482.39,-561 471.82,-597.24 479.64,-609.47 464.39,-644 450.3,-675.93 398.25,-747.51 373.39,-772 296.86,-847.41 236.61,-914.82 146.7,-856 34.58,-782.65 20.1,-599.86 18.81,-529.36"/>
<polygon fill="black" stroke="black" points="22.31,-529.01 18.71,-519.04 15.31,-529.08 22.31,-529.01"/>
<text text-anchor="middle" x="260.89" y="-875.8" font-family="Helvetica,Arial,sans-serif" font-size="14.00">0/0</text>
</g>
<!-- 3&#45;&gt;0 -->
<g id="edge28" class="edge">
<title>3&#45;&gt;0</title>
<path fill="none" stroke="black" d="M486.64,-526.67C464.45,-547.6 418.49,-593.77 391.39,-641 379.22,-662.21 389.61,-674.69 373.39,-693 358.64,-709.67 349.14,-706.92 328.39,-715 253.09,-744.33 212.06,-769.53 146.7,-722 131.13,-710.68 122.06,-690.81 116.93,-674.36"/>
<polygon fill="black" stroke="black" points="120.29,-673.37 114.23,-664.67 113.55,-675.25 120.29,-673.37"/>
<text text-anchor="middle" x="310.39" y="-732.8" font-family="Helvetica,Arial,sans-serif" font-size="14.00">0/0</text>
</g>
<!-- 3&#45;&gt;4 -->
<g id="edge29" class="edge">
<title>3&#45;&gt;4</title>
<path fill="none" stroke="black" d="M495.46,-497.49C484.66,-453.96 450.1,-340.85 373.39,-292 332.17,-265.75 273.1,-264.87 238.89,-267.1"/>
<polygon fill="black" stroke="black" points="238.41,-263.63 228.71,-267.91 238.96,-270.61 238.41,-263.63"/>
<text text-anchor="middle" x="359.89" y="-295.8" font-family="Helvetica,Arial,sans-serif" font-size="14.00">0/0</text>
</g>
<!-- 3&#45;&gt;5 -->
<g id="edge30" class="edge">
<title>3&#45;&gt;5</title>
<path fill="none" stroke="black" d="M517.91,-510.75C529.69,-508.76 545.18,-508.44 555.39,-517 575.53,-533.87 584.75,-609.1 588.38,-650.85"/>
<polygon fill="black" stroke="black" points="584.9,-651.25 589.2,-660.93 591.87,-650.68 584.9,-651.25"/>
<text text-anchor="middle" x="545.89" y="-520.8" font-family="Helvetica,Arial,sans-serif" font-size="14.00">0/0</text>
</g>
<!-- 3&#45;&gt;2 -->
<g id="edge31" class="edge">
<title>3&#45;&gt;2</title>
<path fill="none" stroke="black" d="M482.73,-510.32C469.82,-506.69 451.69,-501.6 436.81,-497.42"/>
<polygon fill="black" stroke="black" points="437.71,-494.04 427.13,-494.7 435.81,-500.78 437.71,-494.04"/>
<text text-anchor="middle" x="454.89" y="-508.8" font-family="Helvetica,Arial,sans-serif" font-size="14.00">0/0</text>
</g>
<!-- 3&#45;&gt;6 -->
<g id="edge32" class="edge">
<title>3&#45;&gt;6</title>
<path fill="none" stroke="black" d="M488.32,-501.41C481.71,-493.63 472.96,-483.88 464.39,-476 438.82,-452.48 424.34,-436.95 391.39,-448 362.84,-457.57 339.8,-484.37 325.9,-504.33"/>
<polygon fill="black" stroke="black" points="322.98,-502.4 320.35,-512.67 328.8,-506.29 322.98,-502.4"/>
<text text-anchor="middle" x="409.39" y="-451.8" font-family="Helvetica,Arial,sans-serif" font-size="14.00">0/0</text>
</g>
<!-- 2&#45;&gt;1 -->
<g id="edge33" class="edge">
<title>2&#45;&gt;1</title>
<path fill="none" stroke="black" d="M396.7,-476.59C394.62,-473.6 392.7,-470.33 391.39,-467 365.23,-400.39 392.3,-376.02 373.39,-307 365.67,-278.8 356.02,-274.61 346.39,-247 335.67,-216.26 353.36,-196.89 328.39,-176 319.27,-168.37 226.12,-162.11 191.7,-169 143.11,-178.73 68.85,-209.39 54,-231 27.36,-269.77 20.99,-411.48 19.47,-472.61"/>
<polygon fill="black" stroke="black" points="15.97,-472.64 19.25,-482.71 22.97,-472.79 15.97,-472.64"/>
<text text-anchor="middle" x="210.54" y="-172.8" font-family="Helvetica,Arial,sans-serif" font-size="14.00">0/0</text>
</g>
<!-- 2&#45;&gt;0 -->
<g id="edge34" class="edge">
<title>2&#45;&gt;0</title>
<path fill="none" stroke="black" d="M399.65,-505.25C377.24,-542.43 313.54,-636.52 229.39,-662 194.21,-672.65 182.74,-668.2 146.7,-661 143.18,-660.3 139.57,-659.28 136.05,-658.1"/>
<polygon fill="black" stroke="black" points="137.14,-654.77 126.55,-654.51 134.66,-661.32 137.14,-654.77"/>
<text text-anchor="middle" x="260.89" y="-657.8" font-family="Helvetica,Arial,sans-serif" font-size="14.00">0/0</text>
</g>
<!-- 2&#45;&gt;4 -->
<g id="edge35" class="edge">
<title>2&#45;&gt;4</title>
<path fill="none" stroke="black" d="M397.13,-476.4C395.02,-473.43 392.98,-470.2 391.39,-467 378.67,-441.28 389.32,-428.87 373.39,-405 347.77,-366.61 327.85,-369.56 292.39,-340 271.75,-322.79 248.6,-302.66 232.38,-288.41"/>
<polygon fill="black" stroke="black" points="234.4,-285.53 224.58,-281.55 229.77,-290.78 234.4,-285.53"/>
<text text-anchor="middle" x="310.39" y="-368.8" font-family="Helvetica,Arial,sans-serif" font-size="14.00">0/0</text>
</g>
<!-- 2&#45;&gt;5 -->
<g id="edge36" class="edge">
<title>2&#45;&gt;5</title>
<path fill="none" stroke="black" d="M422.48,-502.69C453.1,-534.84 533.88,-619.66 571.11,-658.75"/>
<polygon fill="black" stroke="black" points="568.93,-661.53 578.36,-666.36 573.99,-656.71 568.93,-661.53"/>
<text text-anchor="middle" x="500.39" y="-606.8" font-family="Helvetica,Arial,sans-serif" font-size="14.00">0/0</text>
</g>
<!-- 2&#45;&gt;3 -->
<g id="edge37" class="edge">
<title>2&#45;&gt;3</title>
<path fill="none" stroke="black" d="M426.49,-483.39C437.5,-479.87 452.24,-477.17 464.39,-482 470.71,-484.51 476.55,-488.76 481.57,-493.38"/>
<polygon fill="black" stroke="black" points="479.27,-496.04 488.75,-500.78 484.29,-491.16 479.27,-496.04"/>
<text text-anchor="middle" x="454.89" y="-485.8" font-family="Helvetica,Arial,sans-serif" font-size="14.00">0/0</text>
</g>
<!-- 2&#45;&gt;6 -->
<g id="edge38" class="edge">
<title>2&#45;&gt;6</title>
<path fill="none" stroke="black" d="M391.59,-486.85C378.67,-485.23 360.68,-484.71 346.39,-491 339.16,-494.18 332.71,-499.65 327.38,-505.43"/>
<polygon fill="black" stroke="black" points="324.54,-503.37 320.84,-513.3 329.92,-507.85 324.54,-503.37"/>
<text text-anchor="middle" x="359.89" y="-494.8" font-family="Helvetica,Arial,sans-serif" font-size="14.00">0/0</text>
</g>
<!-- 6&#45;&gt;1 -->
<g id="edge39" class="edge">
<title>6&#45;&gt;1</title>
<path fill="none" stroke="black" d="M293.45,-521.51C268.45,-511.71 218.25,-493.58 173.7,-487 129.07,-480.41 76.71,-488.41 45.78,-494.74"/>
<polygon fill="black" stroke="black" points="44.83,-491.37 35.78,-496.89 46.3,-498.21 44.83,-491.37"/>
<text text-anchor="middle" x="160.2" y="-490.8" font-family="Helvetica,Arial,sans-serif" font-size="14.00">0/0</text>
</g>
<!-- 6&#45;&gt;0 -->
<g id="edge40" class="edge">
<title>6&#45;&gt;0</title>
<path fill="none" stroke="black" d="M294.57,-536.89C260.37,-557.38 175.75,-608.1 134.38,-632.9"/>
<polygon fill="black" stroke="black" points="132.55,-629.91 125.77,-638.06 136.15,-635.92 132.55,-629.91"/>
<text text-anchor="middle" x="210.54" y="-600.8" font-family="Helvetica,Arial,sans-serif" font-size="14.00">0/0</text>
</g>
<!-- 6&#45;&gt;4 -->
<g id="edge41" class="edge">
<title>6&#45;&gt;4</title>
<path fill="none" stroke="black" d="M307.67,-510.17C303.51,-469.87 291.95,-373.16 274.39,-346 266.43,-333.68 257.5,-337.64 247.39,-327 238.43,-317.56 230.48,-305.54 224.36,-294.98"/>
<polygon fill="black" stroke="black" points="227.38,-293.22 219.47,-286.17 221.26,-296.62 227.38,-293.22"/>
<text text-anchor="middle" x="260.89" y="-349.8" font-family="Helvetica,Arial,sans-serif" font-size="14.00">0/0</text>
</g>
<!-- 6&#45;&gt;5 -->
<g id="edge42" class="edge">
<title>6&#45;&gt;5</title>
<path fill="none" stroke="black" d="M318.14,-544.26C324.39,-558.37 334.5,-578.99 346.39,-595 380.98,-641.55 393.02,-655.09 445.39,-680 490.01,-701.22 507.25,-707.07 555.39,-696 559.1,-695.15 562.87,-693.85 566.5,-692.34"/>
<polygon fill="black" stroke="black" points="568.08,-695.46 575.61,-688.02 565.08,-689.14 568.08,-695.46"/>
<text text-anchor="middle" x="454.89" y="-691.8" font-family="Helvetica,Arial,sans-serif" font-size="14.00">0/0</text>
</g>
<!-- 6&#45;&gt;3 -->
<g id="edge43" class="edge">
<title>6&#45;&gt;3</title>
<path fill="none" stroke="black" d="M328.03,-532.02C333.8,-533.24 340.35,-534.4 346.39,-535 390.99,-539.42 442.63,-529.52 473.07,-522.13"/>
<polygon fill="black" stroke="black" points="474.06,-525.49 482.9,-519.65 472.35,-518.7 474.06,-525.49"/>
<text text-anchor="middle" x="409.39" y="-539.8" font-family="Helvetica,Arial,sans-serif" font-size="14.00">0/0</text>
</g>
<!-- 6&#45;&gt;2 -->
<g id="edge44" class="edge">
<title>6&#45;&gt;2</title>
<path fill="none" stroke="black" d="M327.6,-522.69C340.19,-518.45 358.04,-512.22 373.39,-506 376.71,-504.65 380.18,-503.17 383.58,-501.67"/>
<polygon fill="black" stroke="black" points="385.18,-504.78 392.84,-497.46 382.29,-498.41 385.18,-504.78"/>
<text text-anchor="middle" x="359.89" y="-519.8" font-family="Helvetica,Arial,sans-serif" font-size="14.00">0/0</text>
</g>
<!-- &#45;1 -->
<g id="node9" class="node">
<title>&#45;1</title>
<ellipse fill="none" stroke="black" cx="109.85" cy="-293" rx="18.7" ry="18.7"/>
<text text-anchor="middle" x="109.85" y="-289.3" font-family="Helvetica,Arial,sans-serif" font-size="14.00">&#45;1</text>
</g>
<!-- &#45;1&#45;&gt;4 -->
<g id="edge45" class="edge">
<title>&#45;1&#45;&gt;4</title>
<path fill="none" stroke="black" d="M126.38,-283.56C132.5,-280.28 139.72,-276.95 146.7,-275 158.12,-271.81 171.14,-270.42 182.35,-269.89"/>
<polygon fill="black" stroke="black" points="182.53,-273.38 192.43,-269.6 182.34,-266.39 182.53,-273.38"/>
<text text-anchor="middle" x="160.2" y="-278.8" font-family="Helvetica,Arial,sans-serif" font-size="14.00">0/2</text>
</g>
<!-- &#45;1&#45;&gt;5 -->
<g id="edge46" class="edge">
<title>&#45;1&#45;&gt;5</title>
<path fill="none" stroke="black" d="M122.04,-278.45C124.3,-275.37 126.62,-272.11 128.7,-269 159.09,-223.4 156.98,-205.4 191.7,-163 248.23,-93.95 261.15,-61.4 346.39,-35 419.59,-12.33 449.23,-14.01 518.39,-47 538.55,-56.62 545.82,-60.82 555.39,-81 579.99,-132.83 588.19,-539.57 589.98,-650.91"/>
<polygon fill="black" stroke="black" points="586.48,-651.08 590.14,-661.03 593.48,-650.97 586.48,-651.08"/>
<text text-anchor="middle" x="359.89" y="-38.8" font-family="Helvetica,Arial,sans-serif" font-size="14.00">0/12</text>
</g>
<!-- &#45;1&#45;&gt;3 -->
<g id="edge47" class="edge">
<title>&#45;1&#45;&gt;3</title>
<path fill="none" stroke="black" d="M124.49,-280.81C139.64,-268.24 165.44,-249.56 191.7,-243 296.56,-216.78 350.27,-227.26 427.39,-303 478.64,-353.32 493.42,-441.44 497.67,-486.58"/>
<polygon fill="black" stroke="black" points="494.21,-487.15 498.53,-496.82 501.19,-486.57 494.21,-487.15"/>
<text text-anchor="middle" x="310.39" y="-240.8" font-family="Helvetica,Arial,sans-serif" font-size="14.00">0/32</text>
</g>
<!-- &#45;1&#45;&gt;2 -->
<g id="edge48" class="edge">
<title>&#45;1&#45;&gt;2</title>
<path fill="none" stroke="black" d="M128.56,-295.68C154.55,-300.56 202.8,-313.38 229.39,-344 247.37,-364.7 228.12,-383.51 247.39,-403 288.7,-444.78 325.54,-408.91 373.39,-443 373.73,-443.24 382.98,-455.66 391.88,-467.67"/>
<polygon fill="black" stroke="black" points="389.11,-469.81 397.87,-475.76 394.73,-465.64 389.11,-469.81"/>
<text text-anchor="middle" x="260.89" y="-424.8" font-family="Helvetica,Arial,sans-serif" font-size="14.00">0/17</text>
</g>
<!-- &#45;1&#45;&gt;6 -->
<g id="edge49" class="edge">
<title>&#45;1&#45;&gt;6</title>
<path fill="none" stroke="black" d="M126.17,-302.88C156.6,-322.61 222.35,-365.91 229.39,-376 247.29,-401.64 233.87,-415.81 247.39,-444 258.68,-467.52 276.87,-491.14 290.63,-507.32"/>
<polygon fill="black" stroke="black" points="288.16,-509.81 297.37,-515.06 293.45,-505.22 288.16,-509.81"/>
<text text-anchor="middle" x="210.54" y="-379.8" font-family="Helvetica,Arial,sans-serif" font-size="14.00">0/22</text>
</g>
</g>
</svg>
