<?xml version="1.0" encoding="UTF-8" standalone="no"?>
<!DOCTYPE svg PUBLIC "-//W3C//DTD SVG 1.1//EN"
 "http://www.w3.org/Graphics/SVG/1.1/DTD/svg11.dtd">
<!-- Generated by graphviz version 2.43.0 (0)
 -->
<!-- Title: G Pages: 1 -->
<svg width="836pt" height="477pt"
 viewBox="0.00 0.00 836.00 477.00" xmlns="http://www.w3.org/2000/svg" xmlns:xlink="http://www.w3.org/1999/xlink">
<g id="graph0" class="graph" transform="scale(1 1) rotate(0) translate(4 473)">
<title>G</title>
<polygon fill="white" stroke="transparent" points="-4,4 -4,-473 832,-473 832,4 -4,4"/>
<!-- 1 -->
<g id="node1" class="node">
<title>1</title>
<ellipse fill="none" stroke="black" cx="18" cy="-158" rx="18" ry="18"/>
<text text-anchor="middle" x="18" y="-154.3" font-family="Helvetica,Arial,sans-serif" font-size="14.00">1</text>
</g>
<!-- 9 -->
<g id="node2" class="node">
<title>9</title>
<ellipse fill="none" stroke="black" cx="113" cy="-318" rx="18" ry="18"/>
<text text-anchor="middle" x="113" y="-314.3" font-family="Helvetica,Arial,sans-serif" font-size="14.00">9</text>
</g>
<!-- 1&#45;&gt;9 -->
<g id="edge1" class="edge">
<title>1&#45;&gt;9</title>
<path fill="none" stroke="black" d="M19.61,-176.08C21.39,-202.81 28.21,-253.23 54,-286 62.2,-296.41 74.77,-303.94 86.11,-309.06"/>
<polygon fill="black" stroke="black" points="85.05,-312.41 95.63,-312.96 87.7,-305.93 85.05,-312.41"/>
<text text-anchor="middle" x="65.5" y="-307.8" font-family="Helvetica,Arial,sans-serif" font-size="14.00">524</text>
</g>
<!-- 7 -->
<g id="node3" class="node">
<title>7</title>
<ellipse fill="none" stroke="black" cx="620" cy="-105" rx="18" ry="18"/>
<text text-anchor="middle" x="620" y="-101.3" font-family="Helvetica,Arial,sans-serif" font-size="14.00">7</text>
</g>
<!-- 1&#45;&gt;7 -->
<g id="edge2" class="edge">
<title>1&#45;&gt;7</title>
<path fill="none" stroke="black" d="M24.26,-140.99C35.13,-109.66 63.22,-46 112,-46 112,-46 112,-46 518,-46 549.81,-46 580.5,-68.08 599.54,-85.23"/>
<polygon fill="black" stroke="black" points="597.27,-87.9 606.95,-92.2 602.06,-82.8 597.27,-87.9"/>
<text text-anchor="middle" x="311" y="-49.8" font-family="Helvetica,Arial,sans-serif" font-size="14.00">811</text>
</g>
<!-- 5 -->
<g id="node4" class="node">
<title>5</title>
<ellipse fill="none" stroke="black" cx="414" cy="-266" rx="18" ry="18"/>
<text text-anchor="middle" x="414" y="-262.3" font-family="Helvetica,Arial,sans-serif" font-size="14.00">5</text>
</g>
<!-- 1&#45;&gt;5 -->
<g id="edge3" class="edge">
<title>1&#45;&gt;5</title>
<path fill="none" stroke="black" d="M34.83,-164.41C53.11,-171.21 84.22,-181 112,-181 112,-181 112,-181 312,-181 343.21,-181 354.11,-184.91 378,-205 388.99,-214.24 397.26,-227.86 403,-239.89"/>
<polygon fill="black" stroke="black" points="399.82,-241.34 407.06,-249.08 406.22,-238.51 399.82,-241.34"/>
<text text-anchor="middle" x="208" y="-184.8" font-family="Helvetica,Arial,sans-serif" font-size="14.00">879</text>
</g>
<!-- 6 -->
<g id="node5" class="node">
<title>6</title>
<ellipse fill="none" stroke="black" cx="715" cy="-145" rx="18" ry="18"/>
<text text-anchor="middle" x="715" y="-141.3" font-family="Helvetica,Arial,sans-serif" font-size="14.00">6</text>
</g>
<!-- 1&#45;&gt;6 -->
<g id="edge4" class="edge">
<title>1&#45;&gt;6</title>
<path fill="none" stroke="black" d="M36.08,-157.75C111.62,-156.66 423.22,-151.98 679,-146 681.55,-145.94 684.21,-145.87 686.87,-145.8"/>
<polygon fill="black" stroke="black" points="687.01,-149.3 696.91,-145.52 686.82,-142.3 687.01,-149.3"/>
<text text-anchor="middle" x="362.5" y="-155.8" font-family="Helvetica,Arial,sans-serif" font-size="14.00">954</text>
</g>
<!-- 9&#45;&gt;1 -->
<g id="edge5" class="edge">
<title>9&#45;&gt;1</title>
<path fill="none" stroke="black" d="M102.66,-302.68C96.02,-292.23 86.6,-278.29 77,-267 67.84,-256.22 61.93,-256.71 54,-245 41.51,-226.54 32.37,-202.95 26.57,-184.99"/>
<polygon fill="black" stroke="black" points="29.9,-183.93 23.61,-175.4 23.21,-185.99 29.9,-183.93"/>
<text text-anchor="middle" x="65.5" y="-270.8" font-family="Helvetica,Arial,sans-serif" font-size="14.00">524</text>
</g>
<!-- 3 -->
<g id="node6" class="node">
<title>3</title>
<ellipse fill="none" stroke="black" cx="810" cy="-393" rx="18" ry="18"/>
<text text-anchor="middle" x="810" y="-389.3" font-family="Helvetica,Arial,sans-serif" font-size="14.00">3</text>
</g>
<!-- 9&#45;&gt;3 -->
<g id="edge6" class="edge">
<title>9&#45;&gt;3</title>
<path fill="none" stroke="black" d="M115.03,-336.22C117.34,-360.52 124.81,-403.54 149,-430 167.82,-450.59 179.1,-454 207,-454 207,-454 207,-454 716,-454 743.9,-454 751.02,-445.82 774,-430 780.17,-425.76 786.08,-420.27 791.24,-414.83"/>
<polygon fill="black" stroke="black" points="794.14,-416.84 798.19,-407.05 788.92,-412.18 794.14,-416.84"/>
<text text-anchor="middle" x="465.5" y="-457.8" font-family="Helvetica,Arial,sans-serif" font-size="14.00">1053</text>
</g>
<!-- 4 -->
<g id="node7" class="node">
<title>4</title>
<ellipse fill="none" stroke="black" cx="208" cy="-335" rx="18" ry="18"/>
<text text-anchor="middle" x="208" y="-331.3" font-family="Helvetica,Arial,sans-serif" font-size="14.00">4</text>
</g>
<!-- 9&#45;&gt;4 -->
<g id="edge7" class="edge">
<title>9&#45;&gt;4</title>
<path fill="none" stroke="black" d="M129.59,-309.75C141.45,-304.6 158.06,-299.84 172,-305 177.87,-307.17 183.41,-310.81 188.29,-314.82"/>
<polygon fill="black" stroke="black" points="186.07,-317.54 195.8,-321.73 190.81,-312.38 186.07,-317.54"/>
<text text-anchor="middle" x="160.5" y="-308.8" font-family="Helvetica,Arial,sans-serif" font-size="14.00">766</text>
</g>
<!-- 7&#45;&gt;1 -->
<g id="edge15" class="edge">
<title>7&#45;&gt;1</title>
<path fill="none" stroke="black" d="M601.88,-102.81C581.81,-100.45 547.55,-97 518,-97 112,-97 112,-97 112,-97 84.1,-97 76.98,-105.18 54,-121 47.83,-125.24 41.92,-130.73 36.76,-136.17"/>
<polygon fill="black" stroke="black" points="33.86,-134.16 29.81,-143.95 39.08,-138.82 33.86,-134.16"/>
<text text-anchor="middle" x="311" y="-100.8" font-family="Helvetica,Arial,sans-serif" font-size="14.00">811</text>
</g>
<!-- 7&#45;&gt;6 -->
<g id="edge13" class="edge">
<title>7&#45;&gt;6</title>
<path fill="none" stroke="black" d="M636.09,-96.58C648.28,-90.98 665.57,-85.85 679,-93 689.66,-98.68 697.66,-109.21 703.3,-119.32"/>
<polygon fill="black" stroke="black" points="700.21,-120.96 707.82,-128.33 706.46,-117.82 700.21,-120.96"/>
<text text-anchor="middle" x="667.5" y="-96.8" font-family="Helvetica,Arial,sans-serif" font-size="14.00">837</text>
</g>
<!-- 0 -->
<g id="node9" class="node">
<title>0</title>
<ellipse fill="none" stroke="black" cx="517" cy="-231" rx="18" ry="18"/>
<text text-anchor="middle" x="517" y="-227.3" font-family="Helvetica,Arial,sans-serif" font-size="14.00">0</text>
</g>
<!-- 7&#45;&gt;0 -->
<g id="edge14" class="edge">
<title>7&#45;&gt;0</title>
<path fill="none" stroke="black" d="M607.99,-118.89C601.1,-127.56 592.05,-138.94 584,-149 567.57,-169.54 548.75,-192.9 535.43,-209.42"/>
<polygon fill="black" stroke="black" points="532.56,-207.4 529,-217.38 538,-211.8 532.56,-207.4"/>
<text text-anchor="middle" x="568.5" y="-190.8" font-family="Helvetica,Arial,sans-serif" font-size="14.00">1435</text>
</g>
<!-- 5&#45;&gt;1 -->
<g id="edge25" class="edge">
<title>5&#45;&gt;1</title>
<path fill="none" stroke="black" d="M396.02,-262.82C329.07,-250.21 85.48,-203.65 54,-188 48.49,-185.26 43.13,-181.46 38.34,-177.49"/>
<polygon fill="black" stroke="black" points="40.64,-174.85 30.86,-170.79 35.97,-180.07 40.64,-174.85"/>
<text text-anchor="middle" x="208" y="-231.8" font-family="Helvetica,Arial,sans-serif" font-size="14.00">879</text>
</g>
<!-- 5&#45;&gt;4 -->
<g id="edge23" class="edge">
<title>5&#45;&gt;4</title>
<path fill="none" stroke="black" d="M395.76,-265.02C371.95,-264.23 327.97,-264.83 293,-277 268.91,-285.38 245.36,-302.67 229.36,-316.2"/>
<polygon fill="black" stroke="black" points="226.95,-313.66 221.71,-322.87 231.55,-318.93 226.95,-313.66"/>
<text text-anchor="middle" x="311" y="-280.8" font-family="Helvetica,Arial,sans-serif" font-size="14.00">1106</text>
</g>
<!-- 2 -->
<g id="node8" class="node">
<title>2</title>
<ellipse fill="none" stroke="black" cx="311" cy="-369" rx="18" ry="18"/>
<text text-anchor="middle" x="311" y="-365.3" font-family="Helvetica,Arial,sans-serif" font-size="14.00">2</text>
</g>
<!-- 5&#45;&gt;2 -->
<g id="edge24" class="edge">
<title>5&#45;&gt;2</title>
<path fill="none" stroke="black" d="M412.18,-284.25C410.1,-306.95 402.85,-345.04 378,-364 367.15,-372.28 352.17,-373.95 339.22,-373.37"/>
<polygon fill="black" stroke="black" points="339.23,-369.85 328.95,-372.44 338.6,-376.82 339.23,-369.85"/>
<text text-anchor="middle" x="362.5" y="-376.8" font-family="Helvetica,Arial,sans-serif" font-size="14.00">1054</text>
</g>
<!-- 5&#45;&gt;0 -->
<g id="edge26" class="edge">
<title>5&#45;&gt;0</title>
<path fill="none" stroke="black" d="M423.96,-250.86C430.07,-242.11 439.03,-231.89 450,-227 462.28,-221.52 477.15,-221.89 489.66,-223.91"/>
<polygon fill="black" stroke="black" points="489.02,-227.35 499.51,-225.9 490.4,-220.49 489.02,-227.35"/>
<text text-anchor="middle" x="465.5" y="-230.8" font-family="Helvetica,Arial,sans-serif" font-size="14.00">343</text>
</g>
<!-- 6&#45;&gt;1 -->
<g id="edge18" class="edge">
<title>6&#45;&gt;1</title>
<path fill="none" stroke="black" d="M711.18,-127.22C703.93,-88.5 680.81,0 621,0 112,0 112,0 112,0 52.33,0 30.18,-84.73 22.6,-130.1"/>
<polygon fill="black" stroke="black" points="19.11,-129.77 21.04,-140.18 26.02,-130.83 19.11,-129.77"/>
<text text-anchor="middle" x="362.5" y="-3.8" font-family="Helvetica,Arial,sans-serif" font-size="14.00">954</text>
</g>
<!-- 6&#45;&gt;7 -->
<g id="edge16" class="edge">
<title>6&#45;&gt;7</title>
<path fill="none" stroke="black" d="M698.15,-138.18C683.96,-132.08 662.91,-123.03 646.38,-115.92"/>
<polygon fill="black" stroke="black" points="647.35,-112.52 636.78,-111.79 644.58,-118.95 647.35,-112.52"/>
<text text-anchor="middle" x="667.5" y="-132.8" font-family="Helvetica,Arial,sans-serif" font-size="14.00">837</text>
</g>
<!-- 6&#45;&gt;3 -->
<g id="edge17" class="edge">
<title>6&#45;&gt;3</title>
<path fill="none" stroke="black" d="M725.51,-159.66C738.18,-179.76 760.55,-217.33 774,-252 788.72,-289.95 798.79,-336.09 804.22,-365.01"/>
<polygon fill="black" stroke="black" points="800.84,-365.98 806.08,-375.19 807.73,-364.73 800.84,-365.98"/>
<text text-anchor="middle" x="762.5" y="-255.8" font-family="Helvetica,Arial,sans-serif" font-size="14.00">433</text>
</g>
<!-- 3&#45;&gt;9 -->
<g id="edge8" class="edge">
<title>3&#45;&gt;9</title>
<path fill="none" stroke="black" d="M793.17,-399.41C774.89,-406.21 743.78,-416 716,-416 207,-416 207,-416 207,-416 167.17,-416 139.26,-372.88 124.98,-343.85"/>
<polygon fill="black" stroke="black" points="128.08,-342.2 120.67,-334.62 121.74,-345.17 128.08,-342.2"/>
<text text-anchor="middle" x="465.5" y="-419.8" font-family="Helvetica,Arial,sans-serif" font-size="14.00">1053</text>
</g>
<!-- 3&#45;&gt;6 -->
<g id="edge9" class="edge">
<title>3&#45;&gt;6</title>
<path fill="none" stroke="black" d="M800.6,-377.58C788.44,-354.8 765.77,-310.55 751,-271 738.58,-237.73 728.27,-198.06 722.13,-172.25"/>
<polygon fill="black" stroke="black" points="725.51,-171.36 719.83,-162.42 718.7,-172.95 725.51,-171.36"/>
<text text-anchor="middle" x="762.5" y="-325.8" font-family="Helvetica,Arial,sans-serif" font-size="14.00">433</text>
</g>
<!-- 4&#45;&gt;9 -->
<g id="edge10" class="edge">
<title>4&#45;&gt;9</title>
<path fill="none" stroke="black" d="M190.05,-331.9C176.45,-329.42 157.08,-325.88 141.3,-322.99"/>
<polygon fill="black" stroke="black" points="141.52,-319.47 131.06,-321.12 140.27,-326.36 141.52,-319.47"/>
<text text-anchor="middle" x="160.5" y="-331.8" font-family="Helvetica,Arial,sans-serif" font-size="14.00">766</text>
</g>
<!-- 4&#45;&gt;5 -->
<g id="edge11" class="edge">
<title>4&#45;&gt;5</title>
<path fill="none" stroke="black" d="M225.38,-329.79C255.64,-320.11 322.3,-298.57 378,-279 381.12,-277.9 384.38,-276.73 387.61,-275.55"/>
<polygon fill="black" stroke="black" points="388.85,-278.83 397.01,-272.07 386.42,-272.26 388.85,-278.83"/>
<text text-anchor="middle" x="311" y="-310.8" font-family="Helvetica,Arial,sans-serif" font-size="14.00">1106</text>
</g>
<!-- 4&#45;&gt;2 -->
<g id="edge12" class="edge">
<title>4&#45;&gt;2</title>
<path fill="none" stroke="black" d="M225.96,-337.12C239.54,-339.16 258.91,-342.87 275,-349 278.86,-350.47 282.81,-352.33 286.59,-354.32"/>
<polygon fill="black" stroke="black" points="285.09,-357.49 295.51,-359.37 288.54,-351.4 285.09,-357.49"/>
<text text-anchor="middle" x="259.5" y="-352.8" font-family="Helvetica,Arial,sans-serif" font-size="14.00">1364</text>
</g>
<!-- 2&#45;&gt;5 -->
<g id="edge28" class="edge">
<title>2&#45;&gt;5</title>
<path fill="none" stroke="black" d="M326.19,-359.02C332.51,-354.65 340.08,-349.49 347,-345 360.56,-336.21 366.7,-337.55 378,-326 387.69,-316.1 395.73,-303.01 401.65,-291.58"/>
<polygon fill="black" stroke="black" points="404.85,-293 406.11,-282.48 398.56,-289.91 404.85,-293"/>
<text text-anchor="middle" x="362.5" y="-348.8" font-family="Helvetica,Arial,sans-serif" font-size="14.00">1054</text>
</g>
<!-- 2&#45;&gt;4 -->
<g id="edge27" class="edge">
<title>2&#45;&gt;4</title>
<path fill="none" stroke="black" d="M292.81,-370.49C279.1,-371.03 259.66,-370.32 244,-364 238.51,-361.78 233.24,-358.38 228.52,-354.67"/>
<polygon fill="black" stroke="black" points="230.54,-351.79 220.7,-347.86 225.94,-357.07 230.54,-351.79"/>
<text text-anchor="middle" x="259.5" y="-373.8" font-family="Helvetica,Arial,sans-serif" font-size="14.00">1364</text>
</g>
<!-- 0&#45;&gt;7 -->
<g id="edge19" class="edge">
<title>0&#45;&gt;7</title>
<path fill="none" stroke="black" d="M519.65,-212.91C522.6,-190.61 530.75,-152.89 553,-130 563.31,-119.39 578.57,-113.23 591.83,-109.68"/>
<polygon fill="black" stroke="black" points="592.93,-113.02 601.89,-107.36 591.36,-106.19 592.93,-113.02"/>
<text text-anchor="middle" x="568.5" y="-133.8" font-family="Helvetica,Arial,sans-serif" font-size="14.00">1435</text>
</g>
<!-- 0&#45;&gt;5 -->
<g id="edge21" class="edge">
<title>0&#45;&gt;5</title>
<path fill="none" stroke="black" d="M500.12,-238.25C494.18,-240.84 487.34,-243.69 481,-246 468.21,-250.66 453.76,-255.13 441.65,-258.65"/>
<polygon fill="black" stroke="black" points="440.37,-255.38 431.71,-261.49 442.29,-262.11 440.37,-255.38"/>
<text text-anchor="middle" x="465.5" y="-259.8" font-family="Helvetica,Arial,sans-serif" font-size="14.00">343</text>
</g>
<!-- 8 -->
<g id="node10" class="node">
<title>8</title>
<ellipse fill="none" stroke="black" cx="620" cy="-250" rx="18" ry="18"/>
<text text-anchor="middle" x="620" y="-246.3" font-family="Helvetica,Arial,sans-serif" font-size="14.00">8</text>
</g>
<!-- 0&#45;&gt;8 -->
<g id="edge20" class="edge">
<title>0&#45;&gt;8</title>
<path fill="none" stroke="black" d="M533.22,-239.5C539.2,-242.42 546.25,-245.37 553,-247 565.46,-250.01 579.63,-250.97 591.63,-251.08"/>
<polygon fill="black" stroke="black" points="591.96,-254.58 601.93,-250.99 591.9,-247.58 591.96,-254.58"/>
<text text-anchor="middle" x="568.5" y="-253.8" font-family="Helvetica,Arial,sans-serif" font-size="14.00">464</text>
</g>
<!-- 8&#45;&gt;0 -->
<g id="edge22" class="edge">
<title>8&#45;&gt;0</title>
<path fill="none" stroke="black" d="M605.57,-239.06C599.39,-234.72 591.72,-230.23 584,-228 571.47,-224.39 557.05,-224.58 544.89,-225.9"/>
<polygon fill="black" stroke="black" points="544.32,-222.45 534.89,-227.29 545.28,-229.38 544.32,-222.45"/>
<text text-anchor="middle" x="568.5" y="-231.8" font-family="Helvetica,Arial,sans-serif" font-size="14.00">464</text>
</g>
</g>
</svg>
