<?xml version="1.0" encoding="UTF-8" standalone="no"?>
<!DOCTYPE svg PUBLIC "-//W3C//DTD SVG 1.1//EN"
 "http://www.w3.org/Graphics/SVG/1.1/DTD/svg11.dtd">
<!-- Generated by graphviz version 2.43.0 (0)
 -->
<!-- Title: G Pages: 1 -->
<svg width="641pt" height="270pt"
 viewBox="0.00 0.00 640.79 270.00" xmlns="http://www.w3.org/2000/svg" xmlns:xlink="http://www.w3.org/1999/xlink">
<g id="graph0" class="graph" transform="scale(1 1) rotate(0) translate(4 266)">
<title>G</title>
<polygon fill="white" stroke="transparent" points="-4,4 -4,-266 636.79,-266 636.79,4 -4,4"/>
<!-- 0 -->
<g id="node1" class="node">
<title>0</title>
<ellipse fill="none" stroke="black" cx="18" cy="-143" rx="18" ry="18"/>
<text text-anchor="middle" x="18" y="-139.3" font-family="Helvetica,Arial,sans-serif" font-size="14.00">0</text>
</g>
<!-- 3 -->
<g id="node2" class="node">
<title>3</title>
<ellipse fill="none" stroke="black" cx="109" cy="-72" rx="18" ry="18"/>
<text text-anchor="middle" x="109" y="-68.3" font-family="Helvetica,Arial,sans-serif" font-size="14.00">3</text>
</g>
<!-- 0&#45;&gt;3 -->
<g id="edge1" class="edge">
<title>0&#45;&gt;3</title>
<path fill="none" stroke="black" d="M32.22,-131.89C38.74,-126.45 46.74,-119.83 54,-114 64.46,-105.6 76.2,-96.44 86.05,-88.83"/>
<polygon fill="black" stroke="black" points="88.36,-91.46 94.15,-82.59 84.09,-85.92 88.36,-91.46"/>
<text text-anchor="middle" x="63.5" y="-117.8" font-family="Helvetica,Arial,sans-serif" font-size="14.00">0/2</text>
</g>
<!-- 2 -->
<g id="node3" class="node">
<title>2</title>
<ellipse fill="none" stroke="black" cx="163" cy="-204" rx="18" ry="18"/>
<text text-anchor="middle" x="163" y="-200.3" font-family="Helvetica,Arial,sans-serif" font-size="14.00">2</text>
</g>
<!-- 0&#45;&gt;2 -->
<g id="edge2" class="edge">
<title>0&#45;&gt;2</title>
<path fill="none" stroke="black" d="M34.85,-149.76C59.55,-160.3 107.42,-180.72 136.86,-193.28"/>
<polygon fill="black" stroke="black" points="135.51,-196.5 146.08,-197.21 138.25,-190.07 135.51,-196.5"/>
<text text-anchor="middle" x="63.5" y="-168.8" font-family="Helvetica,Arial,sans-serif" font-size="14.00">0/2</text>
</g>
<!-- 1 -->
<g id="node4" class="node">
<title>1</title>
<ellipse fill="none" stroke="black" cx="217" cy="-143" rx="18" ry="18"/>
<text text-anchor="middle" x="217" y="-139.3" font-family="Helvetica,Arial,sans-serif" font-size="14.00">1</text>
</g>
<!-- 0&#45;&gt;1 -->
<g id="edge3" class="edge">
<title>0&#45;&gt;1</title>
<path fill="none" stroke="black" d="M36.14,-143C70.34,-143 147.31,-143 188.6,-143"/>
<polygon fill="black" stroke="black" points="188.76,-146.5 198.76,-143 188.76,-139.5 188.76,-146.5"/>
<text text-anchor="middle" x="109" y="-146.8" font-family="Helvetica,Arial,sans-serif" font-size="14.00">0/4</text>
</g>
<!-- 6 -->
<g id="node6" class="node">
<title>6</title>
<ellipse fill="none" stroke="black" cx="310.8" cy="-86" rx="18" ry="18"/>
<text text-anchor="middle" x="310.8" y="-82.3" font-family="Helvetica,Arial,sans-serif" font-size="14.00">6</text>
</g>
<!-- 3&#45;&gt;6 -->
<g id="edge10" class="edge">
<title>3&#45;&gt;6</title>
<path fill="none" stroke="black" d="M127.03,-73.19C161.76,-75.63 240.97,-81.18 282.79,-84.11"/>
<polygon fill="black" stroke="black" points="282.59,-87.6 292.81,-84.81 283.08,-80.62 282.59,-87.6"/>
<text text-anchor="middle" x="217" y="-83.8" font-family="Helvetica,Arial,sans-serif" font-size="14.00">0/2</text>
</g>
<!-- 8 -->
<g id="node10" class="node">
<title>8</title>
<ellipse fill="none" stroke="black" cx="217" cy="-18" rx="18" ry="18"/>
<text text-anchor="middle" x="217" y="-14.3" font-family="Helvetica,Arial,sans-serif" font-size="14.00">8</text>
</g>
<!-- 3&#45;&gt;8 -->
<g id="edge11" class="edge">
<title>3&#45;&gt;8</title>
<path fill="none" stroke="black" d="M122.48,-59.8C128.83,-54.11 136.9,-47.59 145,-43 158.86,-35.15 175.63,-29.11 189.38,-24.93"/>
<polygon fill="black" stroke="black" points="190.57,-28.23 199.22,-22.1 188.64,-21.5 190.57,-28.23"/>
<text text-anchor="middle" x="163" y="-46.8" font-family="Helvetica,Arial,sans-serif" font-size="14.00">0/2</text>
</g>
<!-- 5 -->
<g id="node7" class="node">
<title>5</title>
<ellipse fill="none" stroke="black" cx="310.8" cy="-202" rx="18" ry="18"/>
<text text-anchor="middle" x="310.8" y="-198.3" font-family="Helvetica,Arial,sans-serif" font-size="14.00">5</text>
</g>
<!-- 2&#45;&gt;5 -->
<g id="edge8" class="edge">
<title>2&#45;&gt;5</title>
<path fill="none" stroke="black" d="M181.01,-203.77C205.9,-203.43 252.5,-202.79 282.3,-202.38"/>
<polygon fill="black" stroke="black" points="282.49,-205.87 292.44,-202.24 282.4,-198.88 282.49,-205.87"/>
<text text-anchor="middle" x="217" y="-206.8" font-family="Helvetica,Arial,sans-serif" font-size="14.00">0/2</text>
</g>
<!-- 4 -->
<g id="node5" class="node">
<title>4</title>
<ellipse fill="none" stroke="black" cx="367.6" cy="-143" rx="18" ry="18"/>
<text text-anchor="middle" x="367.6" y="-139.3" font-family="Helvetica,Arial,sans-serif" font-size="14.00">4</text>
</g>
<!-- 1&#45;&gt;4 -->
<g id="edge4" class="edge">
<title>1&#45;&gt;4</title>
<path fill="none" stroke="black" d="M235.05,-143C260.44,-143 308.47,-143 338.94,-143"/>
<polygon fill="black" stroke="black" points="339.29,-146.5 349.29,-143 339.29,-139.5 339.29,-146.5"/>
<text text-anchor="middle" x="262.5" y="-146.8" font-family="Helvetica,Arial,sans-serif" font-size="14.00">0/2</text>
</g>
<!-- 1&#45;&gt;6 -->
<g id="edge5" class="edge">
<title>1&#45;&gt;6</title>
<path fill="none" stroke="black" d="M228.68,-128.76C235.03,-121.13 243.66,-112.07 253,-106 262.11,-100.08 273.18,-95.68 283.12,-92.53"/>
<polygon fill="black" stroke="black" points="284.31,-95.83 292.94,-89.69 282.36,-89.1 284.31,-95.83"/>
<text text-anchor="middle" x="262.5" y="-109.8" font-family="Helvetica,Arial,sans-serif" font-size="14.00">0/2</text>
</g>
<!-- 1&#45;&gt;5 -->
<g id="edge6" class="edge">
<title>1&#45;&gt;5</title>
<path fill="none" stroke="black" d="M232.75,-152.48C247.2,-161.77 269.46,-176.07 286.34,-186.92"/>
<polygon fill="black" stroke="black" points="284.78,-190.08 295.09,-192.54 288.57,-184.19 284.78,-190.08"/>
<text text-anchor="middle" x="262.5" y="-179.8" font-family="Helvetica,Arial,sans-serif" font-size="14.00">0/2</text>
</g>
<!-- 10 -->
<g id="node8" class="node">
<title>10</title>
<ellipse fill="none" stroke="black" cx="515.39" cy="-193" rx="20.6" ry="20.6"/>
<text text-anchor="middle" x="515.39" y="-189.3" font-family="Helvetica,Arial,sans-serif" font-size="14.00">10</text>
</g>
<!-- 4&#45;&gt;10 -->
<g id="edge7" class="edge">
<title>4&#45;&gt;10</title>
<path fill="none" stroke="black" d="M385.57,-144.76C400.16,-146.59 421.64,-150.04 439.6,-156 456.36,-161.56 474.11,-170.21 488.11,-177.75"/>
<polygon fill="black" stroke="black" points="486.71,-180.97 497.15,-182.74 490.09,-174.84 486.71,-180.97"/>
<text text-anchor="middle" x="421.6" y="-159.8" font-family="Helvetica,Arial,sans-serif" font-size="14.00">0/2</text>
</g>
<!-- 9 -->
<g id="node11" class="node">
<title>9</title>
<ellipse fill="none" stroke="black" cx="421.6" cy="-86" rx="18" ry="18"/>
<text text-anchor="middle" x="421.6" y="-82.3" font-family="Helvetica,Arial,sans-serif" font-size="14.00">9</text>
</g>
<!-- 6&#45;&gt;9 -->
<g id="edge12" class="edge">
<title>6&#45;&gt;9</title>
<path fill="none" stroke="black" d="M329.28,-86C346.59,-86 373.35,-86 393.43,-86"/>
<polygon fill="black" stroke="black" points="393.52,-89.5 403.52,-86 393.52,-82.5 393.52,-89.5"/>
<text text-anchor="middle" x="367.6" y="-89.8" font-family="Helvetica,Arial,sans-serif" font-size="14.00">0/2</text>
</g>
<!-- 5&#45;&gt;10 -->
<g id="edge16" class="edge">
<title>5&#45;&gt;10</title>
<path fill="none" stroke="black" d="M329.07,-201.23C363.56,-199.7 441.34,-196.25 484.36,-194.33"/>
<polygon fill="black" stroke="black" points="484.67,-197.82 494.5,-193.88 484.36,-190.83 484.67,-197.82"/>
<text text-anchor="middle" x="421.6" y="-200.8" font-family="Helvetica,Arial,sans-serif" font-size="14.00">0/1</text>
</g>
<!-- 7 -->
<g id="node13" class="node">
<title>7</title>
<ellipse fill="none" stroke="black" cx="421.6" cy="-244" rx="18" ry="18"/>
<text text-anchor="middle" x="421.6" y="-240.3" font-family="Helvetica,Arial,sans-serif" font-size="14.00">7</text>
</g>
<!-- 5&#45;&gt;7 -->
<g id="edge17" class="edge">
<title>5&#45;&gt;7</title>
<path fill="none" stroke="black" d="M327.85,-208.2C345.53,-215.02 374.2,-226.09 394.99,-234.11"/>
<polygon fill="black" stroke="black" points="393.89,-237.44 404.48,-237.78 396.41,-230.91 393.89,-237.44"/>
<text text-anchor="middle" x="367.6" y="-233.8" font-family="Helvetica,Arial,sans-serif" font-size="14.00">0/1</text>
</g>
<!-- 12 -->
<g id="node9" class="node">
<title>12</title>
<ellipse fill="none" stroke="black" cx="611.99" cy="-225" rx="20.6" ry="20.6"/>
<text text-anchor="middle" x="611.99" y="-221.3" font-family="Helvetica,Arial,sans-serif" font-size="14.00">12</text>
</g>
<!-- 10&#45;&gt;12 -->
<g id="edge9" class="edge">
<title>10&#45;&gt;12</title>
<path fill="none" stroke="black" d="M535.54,-199.48C548.87,-203.99 566.9,-210.09 581.99,-215.19"/>
<polygon fill="black" stroke="black" points="581.28,-218.64 591.88,-218.53 583.53,-212.01 581.28,-218.64"/>
<text text-anchor="middle" x="563.69" y="-214.8" font-family="Helvetica,Arial,sans-serif" font-size="14.00">0/6</text>
</g>
<!-- 11 -->
<g id="node12" class="node">
<title>11</title>
<ellipse fill="none" stroke="black" cx="310.8" cy="-28" rx="20.6" ry="20.6"/>
<text text-anchor="middle" x="310.8" y="-24.3" font-family="Helvetica,Arial,sans-serif" font-size="14.00">11</text>
</g>
<!-- 8&#45;&gt;11 -->
<g id="edge13" class="edge">
<title>8&#45;&gt;11</title>
<path fill="none" stroke="black" d="M235.27,-19.88C247.8,-21.25 265.09,-23.13 279.86,-24.74"/>
<polygon fill="black" stroke="black" points="279.74,-28.25 290.06,-25.85 280.5,-21.29 279.74,-28.25"/>
<text text-anchor="middle" x="262.5" y="-27.8" font-family="Helvetica,Arial,sans-serif" font-size="14.00">0/2</text>
</g>
<!-- 9&#45;&gt;10 -->
<g id="edge15" class="edge">
<title>9&#45;&gt;10</title>
<path fill="none" stroke="black" d="M438.99,-90.96C450.71,-95.22 466.19,-102.36 476.6,-113 490.29,-127.01 499.72,-146.91 505.74,-163.36"/>
<polygon fill="black" stroke="black" points="502.51,-164.74 509.05,-173.07 509.14,-162.48 502.51,-164.74"/>
<text text-anchor="middle" x="467.1" y="-116.8" font-family="Helvetica,Arial,sans-serif" font-size="14.00">0/4</text>
</g>
<!-- 11&#45;&gt;9 -->
<g id="edge14" class="edge">
<title>11&#45;&gt;9</title>
<path fill="none" stroke="black" d="M329.72,-37.4C344.69,-45.27 366.56,-56.8 385.6,-67 389.03,-68.84 392.64,-70.79 396.2,-72.71"/>
<polygon fill="black" stroke="black" points="394.82,-75.95 405.28,-77.64 398.16,-69.79 394.82,-75.95"/>
<text text-anchor="middle" x="367.6" y="-70.8" font-family="Helvetica,Arial,sans-serif" font-size="14.00">0/2</text>
</g>
<!-- 7&#45;&gt;10 -->
<g id="edge19" class="edge">
<title>7&#45;&gt;10</title>
<path fill="none" stroke="black" d="M437.75,-235.58C451.29,-228.06 471.43,-216.87 487.67,-207.85"/>
<polygon fill="black" stroke="black" points="489.66,-210.75 496.7,-202.83 486.26,-204.63 489.66,-210.75"/>
<text text-anchor="middle" x="467.1" y="-226.8" font-family="Helvetica,Arial,sans-serif" font-size="14.00">0/1</text>
</g>
<!-- 7&#45;&gt;12 -->
<g id="edge18" class="edge">
<title>7&#45;&gt;12</title>
<path fill="none" stroke="black" d="M439.64,-243.75C450.28,-243.49 464.25,-242.99 476.6,-242 519.72,-238.53 530.28,-235.5 573.19,-230 575.72,-229.68 578.34,-229.34 580.97,-228.99"/>
<polygon fill="black" stroke="black" points="581.53,-232.45 590.99,-227.68 580.61,-225.51 581.53,-232.45"/>
<text text-anchor="middle" x="515.39" y="-243.8" font-family="Helvetica,Arial,sans-serif" font-size="14.00">0/2</text>
</g>
</g>
</svg>
