<?xml version="1.0" encoding="UTF-8" standalone="no"?>
<!DOCTYPE svg PUBLIC "-//W3C//DTD SVG 1.1//EN"
 "http://www.w3.org/Graphics/SVG/1.1/DTD/svg11.dtd">
<!-- Generated by graphviz version 2.43.0 (0)
 -->
<!-- Title: G Pages: 1 -->
<svg width="460pt" height="446pt"
 viewBox="0.00 0.00 460.00 446.00" xmlns="http://www.w3.org/2000/svg" xmlns:xlink="http://www.w3.org/1999/xlink">
<g id="graph0" class="graph" transform="scale(1 1) rotate(0) translate(4 442)">
<title>G</title>
<polygon fill="white" stroke="transparent" points="-4,4 -4,-442 456,-442 456,4 -4,4"/>
<!-- 5 -->
<g id="node1" class="node">
<title>5</title>
<ellipse fill="none" stroke="black" cx="18" cy="-70" rx="18" ry="18"/>
<text text-anchor="middle" x="18" y="-66.3" font-family="Helvetica,Arial,sans-serif" font-size="14.00">5</text>
</g>
<!-- 4 -->
<g id="node2" class="node">
<title>4</title>
<ellipse fill="none" stroke="black" cx="106" cy="-159" rx="18" ry="18"/>
<text text-anchor="middle" x="106" y="-155.3" font-family="Helvetica,Arial,sans-serif" font-size="14.00">4</text>
</g>
<!-- 5&#45;&gt;4 -->
<g id="edge1" class="edge">
<title>5&#45;&gt;4</title>
<path fill="none" stroke="black" d="M30.86,-83.14C37.57,-90.51 46.17,-99.85 54,-108 64.13,-118.55 75.63,-130.09 85.14,-139.52"/>
<polygon fill="black" stroke="black" points="82.7,-142.03 92.28,-146.57 87.62,-137.05 82.7,-142.03"/>
<text text-anchor="middle" x="62" y="-126.8" font-family="Helvetica,Arial,sans-serif" font-size="14.00">0</text>
</g>
<!-- 1 -->
<g id="node3" class="node">
<title>1</title>
<ellipse fill="none" stroke="black" cx="346" cy="-120" rx="18" ry="18"/>
<text text-anchor="middle" x="346" y="-116.3" font-family="Helvetica,Arial,sans-serif" font-size="14.00">1</text>
</g>
<!-- 5&#45;&gt;1 -->
<g id="edge2" class="edge">
<title>5&#45;&gt;1</title>
<path fill="none" stroke="black" d="M35.25,-64.2C52.37,-58.61 80.23,-51 105,-51 105,-51 105,-51 267,-51 294.75,-51 317.26,-75.81 330.85,-95.67"/>
<polygon fill="black" stroke="black" points="328.08,-97.84 336.44,-104.34 333.96,-94.04 328.08,-97.84"/>
<text text-anchor="middle" x="186" y="-54.8" font-family="Helvetica,Arial,sans-serif" font-size="14.00">0</text>
</g>
<!-- 4&#45;&gt;5 -->
<g id="edge17" class="edge">
<title>4&#45;&gt;5</title>
<path fill="none" stroke="black" d="M100.37,-141.79C95.32,-126.06 85.77,-103.16 70,-89 63.13,-82.83 54.07,-78.6 45.49,-75.73"/>
<polygon fill="black" stroke="black" points="46.39,-72.34 35.81,-72.95 44.46,-79.07 46.39,-72.34"/>
<text text-anchor="middle" x="62" y="-92.8" font-family="Helvetica,Arial,sans-serif" font-size="14.00">14</text>
</g>
<!-- 4&#45;&gt;1 -->
<g id="edge18" class="edge">
<title>4&#45;&gt;1</title>
<path fill="none" stroke="black" d="M124.12,-156.2C165.03,-149.49 268.74,-132.5 318.1,-124.41"/>
<polygon fill="black" stroke="black" points="318.74,-127.85 328.04,-122.78 317.6,-120.94 318.74,-127.85"/>
<text text-anchor="middle" x="226" y="-142.8" font-family="Helvetica,Arial,sans-serif" font-size="14.00">0</text>
</g>
<!-- 3 -->
<g id="node4" class="node">
<title>3</title>
<ellipse fill="none" stroke="black" cx="434" cy="-266" rx="18" ry="18"/>
<text text-anchor="middle" x="434" y="-262.3" font-family="Helvetica,Arial,sans-serif" font-size="14.00">3</text>
</g>
<!-- 4&#45;&gt;3 -->
<g id="edge19" class="edge">
<title>4&#45;&gt;3</title>
<path fill="none" stroke="black" d="M108.41,-177.15C113.53,-236.79 133.62,-423 185,-423 185,-423 185,-423 347,-423 405.12,-423 424.22,-339.22 430.29,-294.06"/>
<polygon fill="black" stroke="black" points="433.78,-294.36 431.51,-284.01 426.83,-293.51 433.78,-294.36"/>
<text text-anchor="middle" x="266" y="-426.8" font-family="Helvetica,Arial,sans-serif" font-size="14.00">0</text>
</g>
<!-- 2 -->
<g id="node6" class="node">
<title>2</title>
<ellipse fill="none" stroke="black" cx="186" cy="-221" rx="18" ry="18"/>
<text text-anchor="middle" x="186" y="-217.3" font-family="Helvetica,Arial,sans-serif" font-size="14.00">2</text>
</g>
<!-- 4&#45;&gt;2 -->
<g id="edge20" class="edge">
<title>4&#45;&gt;2</title>
<path fill="none" stroke="black" d="M124.1,-159.57C132.51,-160.56 142.43,-162.86 150,-168 160.06,-174.83 167.94,-185.61 173.66,-195.67"/>
<polygon fill="black" stroke="black" points="170.58,-197.32 178.31,-204.57 176.78,-194.08 170.58,-197.32"/>
<text text-anchor="middle" x="146" y="-171.8" font-family="Helvetica,Arial,sans-serif" font-size="14.00">8</text>
</g>
<!-- 1&#45;&gt;5 -->
<g id="edge3" class="edge">
<title>1&#45;&gt;5</title>
<path fill="none" stroke="black" d="M341.97,-102.29C335.14,-68.91 315.2,0 267,0 105,0 105,0 105,0 74.85,0 49.4,-26.2 34.19,-46.54"/>
<polygon fill="black" stroke="black" points="31.25,-44.63 28.31,-54.81 36.96,-48.69 31.25,-44.63"/>
<text text-anchor="middle" x="186" y="-3.8" font-family="Helvetica,Arial,sans-serif" font-size="14.00">21</text>
</g>
<!-- 1&#45;&gt;4 -->
<g id="edge4" class="edge">
<title>1&#45;&gt;4</title>
<path fill="none" stroke="black" d="M329.18,-113.25C305.87,-104.11 260.84,-89.53 222,-95 185.37,-100.16 173.11,-97.97 142,-118 134.7,-122.7 128.09,-129.38 122.63,-135.99"/>
<polygon fill="black" stroke="black" points="119.67,-134.1 116.37,-144.17 125.23,-138.36 119.67,-134.1"/>
<text text-anchor="middle" x="226" y="-98.8" font-family="Helvetica,Arial,sans-serif" font-size="14.00">1</text>
</g>
<!-- 1&#45;&gt;3 -->
<g id="edge5" class="edge">
<title>1&#45;&gt;3</title>
<path fill="none" stroke="black" d="M364.11,-117.44C375.07,-116.8 388.9,-117.99 398,-126 414.61,-140.61 424.96,-201.67 429.78,-238.15"/>
<polygon fill="black" stroke="black" points="426.32,-238.69 431.05,-248.17 433.26,-237.81 426.32,-238.69"/>
<text text-anchor="middle" x="390" y="-129.8" font-family="Helvetica,Arial,sans-serif" font-size="14.00">0</text>
</g>
<!-- 0 -->
<g id="node5" class="node">
<title>0</title>
<ellipse fill="none" stroke="black" cx="266" cy="-205" rx="18" ry="18"/>
<text text-anchor="middle" x="266" y="-201.3" font-family="Helvetica,Arial,sans-serif" font-size="14.00">0</text>
</g>
<!-- 1&#45;&gt;0 -->
<g id="edge6" class="edge">
<title>1&#45;&gt;0</title>
<path fill="none" stroke="black" d="M330.49,-129.36C321.67,-135.46 310.51,-143.95 302,-153 294.18,-161.33 286.88,-171.57 281,-180.76"/>
<polygon fill="black" stroke="black" points="277.89,-179.14 275.62,-189.48 283.85,-182.81 277.89,-179.14"/>
<text text-anchor="middle" x="306" y="-156.8" font-family="Helvetica,Arial,sans-serif" font-size="14.00">0</text>
</g>
<!-- 3&#45;&gt;4 -->
<g id="edge9" class="edge">
<title>3&#45;&gt;4</title>
<path fill="none" stroke="black" d="M427.94,-283.03C417.86,-312.99 392.26,-372 347,-372 185,-372 185,-372 185,-372 145.98,-372 120.63,-244.37 111.17,-186.7"/>
<polygon fill="black" stroke="black" points="114.62,-186.12 109.59,-176.79 107.71,-187.22 114.62,-186.12"/>
<text text-anchor="middle" x="266" y="-375.8" font-family="Helvetica,Arial,sans-serif" font-size="14.00">5</text>
</g>
<!-- 3&#45;&gt;1 -->
<g id="edge7" class="edge">
<title>3&#45;&gt;1</title>
<path fill="none" stroke="black" d="M429.75,-248.33C425.24,-227.14 415.57,-191.2 398,-165 390.47,-153.77 379.48,-143.59 369.63,-135.76"/>
<polygon fill="black" stroke="black" points="371.46,-132.76 361.38,-129.52 367.24,-138.34 371.46,-132.76"/>
<text text-anchor="middle" x="390" y="-168.8" font-family="Helvetica,Arial,sans-serif" font-size="14.00">11</text>
</g>
<!-- 3&#45;&gt;0 -->
<g id="edge10" class="edge">
<title>3&#45;&gt;0</title>
<path fill="none" stroke="black" d="M416.16,-263.59C390.52,-259.46 340.58,-249.64 302,-231 297.39,-228.77 292.77,-225.9 288.46,-222.89"/>
<polygon fill="black" stroke="black" points="290.28,-219.88 280.19,-216.66 286.07,-225.47 290.28,-219.88"/>
<text text-anchor="middle" x="346" y="-255.8" font-family="Helvetica,Arial,sans-serif" font-size="14.00">0</text>
</g>
<!-- 3&#45;&gt;2 -->
<g id="edge8" class="edge">
<title>3&#45;&gt;2</title>
<path fill="none" stroke="black" d="M415.98,-269.51C410.29,-270.53 403.9,-271.5 398,-272 390.91,-272.6 389.11,-272.07 382,-272 358,-271.78 351.62,-275.29 328,-271 285.89,-263.35 239.58,-244.84 211.92,-232.61"/>
<polygon fill="black" stroke="black" points="213.17,-229.34 202.61,-228.42 210.29,-235.72 213.17,-229.34"/>
<text text-anchor="middle" x="306" y="-270.8" font-family="Helvetica,Arial,sans-serif" font-size="14.00">2</text>
</g>
<!-- 0&#45;&gt;1 -->
<g id="edge11" class="edge">
<title>0&#45;&gt;1</title>
<path fill="none" stroke="black" d="M280.89,-194.41C289.69,-187.38 301.05,-177.7 310,-168 316.98,-160.43 323.85,-151.46 329.62,-143.34"/>
<polygon fill="black" stroke="black" points="332.6,-145.17 335.41,-134.96 326.84,-141.19 332.6,-145.17"/>
<text text-anchor="middle" x="306" y="-178.8" font-family="Helvetica,Arial,sans-serif" font-size="14.00">7</text>
</g>
<!-- 0&#45;&gt;3 -->
<g id="edge12" class="edge">
<title>0&#45;&gt;3</title>
<path fill="none" stroke="black" d="M284,-206.23C303.78,-208.09 337.18,-212.58 364,-223 380.78,-229.52 397.97,-240.22 411,-249.31"/>
<polygon fill="black" stroke="black" points="409.13,-252.28 419.29,-255.28 413.22,-246.6 409.13,-252.28"/>
<text text-anchor="middle" x="346" y="-226.8" font-family="Helvetica,Arial,sans-serif" font-size="14.00">10</text>
</g>
<!-- 0&#45;&gt;2 -->
<g id="edge13" class="edge">
<title>0&#45;&gt;2</title>
<path fill="none" stroke="black" d="M248.11,-208.46C238.1,-210.52 225.19,-213.17 213.81,-215.5"/>
<polygon fill="black" stroke="black" points="213.02,-212.09 203.92,-217.53 214.42,-218.95 213.02,-212.09"/>
<text text-anchor="middle" x="226" y="-216.8" font-family="Helvetica,Arial,sans-serif" font-size="14.00">0</text>
</g>
<!-- 2&#45;&gt;4 -->
<g id="edge16" class="edge">
<title>2&#45;&gt;4</title>
<path fill="none" stroke="black" d="M171.43,-210.3C162.96,-203.61 151.83,-194.82 142,-187 137.69,-183.58 133.1,-179.91 128.7,-176.39"/>
<polygon fill="black" stroke="black" points="130.61,-173.44 120.62,-169.92 126.24,-178.9 130.61,-173.44"/>
<text text-anchor="middle" x="146" y="-195.8" font-family="Helvetica,Arial,sans-serif" font-size="14.00">4</text>
</g>
<!-- 2&#45;&gt;3 -->
<g id="edge14" class="edge">
<title>2&#45;&gt;3</title>
<path fill="none" stroke="black" d="M199.45,-233.13C205.91,-239.14 214.1,-246.31 222,-252 253.35,-274.58 263.92,-279.5 302,-286 344.06,-293.18 356.76,-296.95 398,-286 402.19,-284.89 406.39,-283.15 410.37,-281.14"/>
<polygon fill="black" stroke="black" points="412.14,-284.16 419.09,-276.17 408.67,-278.08 412.14,-284.16"/>
<text text-anchor="middle" x="306" y="-290.8" font-family="Helvetica,Arial,sans-serif" font-size="14.00">0</text>
</g>
<!-- 2&#45;&gt;0 -->
<g id="edge15" class="edge">
<title>2&#45;&gt;0</title>
<path fill="none" stroke="black" d="M198.99,-208.01C205.22,-202.23 213.34,-196.04 222,-193 227.9,-190.93 234.36,-191.36 240.43,-192.91"/>
<polygon fill="black" stroke="black" points="239.53,-196.31 250.13,-196.36 241.87,-189.71 239.53,-196.31"/>
<text text-anchor="middle" x="226" y="-196.8" font-family="Helvetica,Arial,sans-serif" font-size="14.00">8</text>
</g>
</g>
</svg>
